%TF.GenerationSoftware,KiCad,Pcbnew,9.0.4*%
%TF.CreationDate,2025-10-15T15:11:25+01:00*%
%TF.ProjectId,breadboardPowerSupply,62726561-6462-46f6-9172-64506f776572,rev?*%
%TF.SameCoordinates,Original*%
%TF.FileFunction,Legend,Bot*%
%TF.FilePolarity,Positive*%
%FSLAX46Y46*%
G04 Gerber Fmt 4.6, Leading zero omitted, Abs format (unit mm)*
G04 Created by KiCad (PCBNEW 9.0.4) date 2025-10-15 15:11:25*
%MOMM*%
%LPD*%
G01*
G04 APERTURE LIST*
%ADD10C,0.100000*%
%ADD11C,0.010000*%
G04 APERTURE END LIST*
D10*
X145888665Y-110309523D02*
X145936284Y-110452380D01*
X145936284Y-110452380D02*
X145983903Y-110499999D01*
X145983903Y-110499999D02*
X146079141Y-110547618D01*
X146079141Y-110547618D02*
X146221998Y-110547618D01*
X146221998Y-110547618D02*
X146317236Y-110499999D01*
X146317236Y-110499999D02*
X146364856Y-110452380D01*
X146364856Y-110452380D02*
X146412475Y-110357142D01*
X146412475Y-110357142D02*
X146412475Y-109976190D01*
X146412475Y-109976190D02*
X145412475Y-109976190D01*
X145412475Y-109976190D02*
X145412475Y-110309523D01*
X145412475Y-110309523D02*
X145460094Y-110404761D01*
X145460094Y-110404761D02*
X145507713Y-110452380D01*
X145507713Y-110452380D02*
X145602951Y-110499999D01*
X145602951Y-110499999D02*
X145698189Y-110499999D01*
X145698189Y-110499999D02*
X145793427Y-110452380D01*
X145793427Y-110452380D02*
X145841046Y-110404761D01*
X145841046Y-110404761D02*
X145888665Y-110309523D01*
X145888665Y-110309523D02*
X145888665Y-109976190D01*
X146412475Y-110976190D02*
X145745808Y-110976190D01*
X145936284Y-110976190D02*
X145841046Y-111023809D01*
X145841046Y-111023809D02*
X145793427Y-111071428D01*
X145793427Y-111071428D02*
X145745808Y-111166666D01*
X145745808Y-111166666D02*
X145745808Y-111261904D01*
X146364856Y-111976190D02*
X146412475Y-111880952D01*
X146412475Y-111880952D02*
X146412475Y-111690476D01*
X146412475Y-111690476D02*
X146364856Y-111595238D01*
X146364856Y-111595238D02*
X146269617Y-111547619D01*
X146269617Y-111547619D02*
X145888665Y-111547619D01*
X145888665Y-111547619D02*
X145793427Y-111595238D01*
X145793427Y-111595238D02*
X145745808Y-111690476D01*
X145745808Y-111690476D02*
X145745808Y-111880952D01*
X145745808Y-111880952D02*
X145793427Y-111976190D01*
X145793427Y-111976190D02*
X145888665Y-112023809D01*
X145888665Y-112023809D02*
X145983903Y-112023809D01*
X145983903Y-112023809D02*
X146079141Y-111547619D01*
X146412475Y-112880952D02*
X145888665Y-112880952D01*
X145888665Y-112880952D02*
X145793427Y-112833333D01*
X145793427Y-112833333D02*
X145745808Y-112738095D01*
X145745808Y-112738095D02*
X145745808Y-112547619D01*
X145745808Y-112547619D02*
X145793427Y-112452381D01*
X146364856Y-112880952D02*
X146412475Y-112785714D01*
X146412475Y-112785714D02*
X146412475Y-112547619D01*
X146412475Y-112547619D02*
X146364856Y-112452381D01*
X146364856Y-112452381D02*
X146269617Y-112404762D01*
X146269617Y-112404762D02*
X146174379Y-112404762D01*
X146174379Y-112404762D02*
X146079141Y-112452381D01*
X146079141Y-112452381D02*
X146031522Y-112547619D01*
X146031522Y-112547619D02*
X146031522Y-112785714D01*
X146031522Y-112785714D02*
X145983903Y-112880952D01*
X146412475Y-113785714D02*
X145412475Y-113785714D01*
X146364856Y-113785714D02*
X146412475Y-113690476D01*
X146412475Y-113690476D02*
X146412475Y-113500000D01*
X146412475Y-113500000D02*
X146364856Y-113404762D01*
X146364856Y-113404762D02*
X146317236Y-113357143D01*
X146317236Y-113357143D02*
X146221998Y-113309524D01*
X146221998Y-113309524D02*
X145936284Y-113309524D01*
X145936284Y-113309524D02*
X145841046Y-113357143D01*
X145841046Y-113357143D02*
X145793427Y-113404762D01*
X145793427Y-113404762D02*
X145745808Y-113500000D01*
X145745808Y-113500000D02*
X145745808Y-113690476D01*
X145745808Y-113690476D02*
X145793427Y-113785714D01*
X146412475Y-114261905D02*
X145412475Y-114261905D01*
X145793427Y-114261905D02*
X145745808Y-114357143D01*
X145745808Y-114357143D02*
X145745808Y-114547619D01*
X145745808Y-114547619D02*
X145793427Y-114642857D01*
X145793427Y-114642857D02*
X145841046Y-114690476D01*
X145841046Y-114690476D02*
X145936284Y-114738095D01*
X145936284Y-114738095D02*
X146221998Y-114738095D01*
X146221998Y-114738095D02*
X146317236Y-114690476D01*
X146317236Y-114690476D02*
X146364856Y-114642857D01*
X146364856Y-114642857D02*
X146412475Y-114547619D01*
X146412475Y-114547619D02*
X146412475Y-114357143D01*
X146412475Y-114357143D02*
X146364856Y-114261905D01*
X146412475Y-115309524D02*
X146364856Y-115214286D01*
X146364856Y-115214286D02*
X146317236Y-115166667D01*
X146317236Y-115166667D02*
X146221998Y-115119048D01*
X146221998Y-115119048D02*
X145936284Y-115119048D01*
X145936284Y-115119048D02*
X145841046Y-115166667D01*
X145841046Y-115166667D02*
X145793427Y-115214286D01*
X145793427Y-115214286D02*
X145745808Y-115309524D01*
X145745808Y-115309524D02*
X145745808Y-115452381D01*
X145745808Y-115452381D02*
X145793427Y-115547619D01*
X145793427Y-115547619D02*
X145841046Y-115595238D01*
X145841046Y-115595238D02*
X145936284Y-115642857D01*
X145936284Y-115642857D02*
X146221998Y-115642857D01*
X146221998Y-115642857D02*
X146317236Y-115595238D01*
X146317236Y-115595238D02*
X146364856Y-115547619D01*
X146364856Y-115547619D02*
X146412475Y-115452381D01*
X146412475Y-115452381D02*
X146412475Y-115309524D01*
X146412475Y-116071429D02*
X145745808Y-116071429D01*
X145936284Y-116071429D02*
X145841046Y-116119048D01*
X145841046Y-116119048D02*
X145793427Y-116166667D01*
X145793427Y-116166667D02*
X145745808Y-116261905D01*
X145745808Y-116261905D02*
X145745808Y-116357143D01*
X146412475Y-117119048D02*
X145888665Y-117119048D01*
X145888665Y-117119048D02*
X145793427Y-117071429D01*
X145793427Y-117071429D02*
X145745808Y-116976191D01*
X145745808Y-116976191D02*
X145745808Y-116785715D01*
X145745808Y-116785715D02*
X145793427Y-116690477D01*
X146364856Y-117119048D02*
X146412475Y-117023810D01*
X146412475Y-117023810D02*
X146412475Y-116785715D01*
X146412475Y-116785715D02*
X146364856Y-116690477D01*
X146364856Y-116690477D02*
X146269617Y-116642858D01*
X146269617Y-116642858D02*
X146174379Y-116642858D01*
X146174379Y-116642858D02*
X146079141Y-116690477D01*
X146079141Y-116690477D02*
X146031522Y-116785715D01*
X146031522Y-116785715D02*
X146031522Y-117023810D01*
X146031522Y-117023810D02*
X145983903Y-117119048D01*
X146412475Y-118023810D02*
X145412475Y-118023810D01*
X146364856Y-118023810D02*
X146412475Y-117928572D01*
X146412475Y-117928572D02*
X146412475Y-117738096D01*
X146412475Y-117738096D02*
X146364856Y-117642858D01*
X146364856Y-117642858D02*
X146317236Y-117595239D01*
X146317236Y-117595239D02*
X146221998Y-117547620D01*
X146221998Y-117547620D02*
X145936284Y-117547620D01*
X145936284Y-117547620D02*
X145841046Y-117595239D01*
X145841046Y-117595239D02*
X145793427Y-117642858D01*
X145793427Y-117642858D02*
X145745808Y-117738096D01*
X145745808Y-117738096D02*
X145745808Y-117928572D01*
X145745808Y-117928572D02*
X145793427Y-118023810D01*
X148022419Y-109238094D02*
X147022419Y-109238094D01*
X147022419Y-109238094D02*
X147022419Y-109619046D01*
X147022419Y-109619046D02*
X147070038Y-109714284D01*
X147070038Y-109714284D02*
X147117657Y-109761903D01*
X147117657Y-109761903D02*
X147212895Y-109809522D01*
X147212895Y-109809522D02*
X147355752Y-109809522D01*
X147355752Y-109809522D02*
X147450990Y-109761903D01*
X147450990Y-109761903D02*
X147498609Y-109714284D01*
X147498609Y-109714284D02*
X147546228Y-109619046D01*
X147546228Y-109619046D02*
X147546228Y-109238094D01*
X148022419Y-110380951D02*
X147974800Y-110285713D01*
X147974800Y-110285713D02*
X147927180Y-110238094D01*
X147927180Y-110238094D02*
X147831942Y-110190475D01*
X147831942Y-110190475D02*
X147546228Y-110190475D01*
X147546228Y-110190475D02*
X147450990Y-110238094D01*
X147450990Y-110238094D02*
X147403371Y-110285713D01*
X147403371Y-110285713D02*
X147355752Y-110380951D01*
X147355752Y-110380951D02*
X147355752Y-110523808D01*
X147355752Y-110523808D02*
X147403371Y-110619046D01*
X147403371Y-110619046D02*
X147450990Y-110666665D01*
X147450990Y-110666665D02*
X147546228Y-110714284D01*
X147546228Y-110714284D02*
X147831942Y-110714284D01*
X147831942Y-110714284D02*
X147927180Y-110666665D01*
X147927180Y-110666665D02*
X147974800Y-110619046D01*
X147974800Y-110619046D02*
X148022419Y-110523808D01*
X148022419Y-110523808D02*
X148022419Y-110380951D01*
X147355752Y-111047618D02*
X148022419Y-111238094D01*
X148022419Y-111238094D02*
X147546228Y-111428570D01*
X147546228Y-111428570D02*
X148022419Y-111619046D01*
X148022419Y-111619046D02*
X147355752Y-111809522D01*
X147974800Y-112571427D02*
X148022419Y-112476189D01*
X148022419Y-112476189D02*
X148022419Y-112285713D01*
X148022419Y-112285713D02*
X147974800Y-112190475D01*
X147974800Y-112190475D02*
X147879561Y-112142856D01*
X147879561Y-112142856D02*
X147498609Y-112142856D01*
X147498609Y-112142856D02*
X147403371Y-112190475D01*
X147403371Y-112190475D02*
X147355752Y-112285713D01*
X147355752Y-112285713D02*
X147355752Y-112476189D01*
X147355752Y-112476189D02*
X147403371Y-112571427D01*
X147403371Y-112571427D02*
X147498609Y-112619046D01*
X147498609Y-112619046D02*
X147593847Y-112619046D01*
X147593847Y-112619046D02*
X147689085Y-112142856D01*
X148022419Y-113047618D02*
X147355752Y-113047618D01*
X147546228Y-113047618D02*
X147450990Y-113095237D01*
X147450990Y-113095237D02*
X147403371Y-113142856D01*
X147403371Y-113142856D02*
X147355752Y-113238094D01*
X147355752Y-113238094D02*
X147355752Y-113333332D01*
X147974800Y-114380952D02*
X148022419Y-114476190D01*
X148022419Y-114476190D02*
X148022419Y-114666666D01*
X148022419Y-114666666D02*
X147974800Y-114761904D01*
X147974800Y-114761904D02*
X147879561Y-114809523D01*
X147879561Y-114809523D02*
X147831942Y-114809523D01*
X147831942Y-114809523D02*
X147736704Y-114761904D01*
X147736704Y-114761904D02*
X147689085Y-114666666D01*
X147689085Y-114666666D02*
X147689085Y-114523809D01*
X147689085Y-114523809D02*
X147641466Y-114428571D01*
X147641466Y-114428571D02*
X147546228Y-114380952D01*
X147546228Y-114380952D02*
X147498609Y-114380952D01*
X147498609Y-114380952D02*
X147403371Y-114428571D01*
X147403371Y-114428571D02*
X147355752Y-114523809D01*
X147355752Y-114523809D02*
X147355752Y-114666666D01*
X147355752Y-114666666D02*
X147403371Y-114761904D01*
X147355752Y-115666666D02*
X148022419Y-115666666D01*
X147355752Y-115238095D02*
X147879561Y-115238095D01*
X147879561Y-115238095D02*
X147974800Y-115285714D01*
X147974800Y-115285714D02*
X148022419Y-115380952D01*
X148022419Y-115380952D02*
X148022419Y-115523809D01*
X148022419Y-115523809D02*
X147974800Y-115619047D01*
X147974800Y-115619047D02*
X147927180Y-115666666D01*
X147355752Y-116142857D02*
X148355752Y-116142857D01*
X147403371Y-116142857D02*
X147355752Y-116238095D01*
X147355752Y-116238095D02*
X147355752Y-116428571D01*
X147355752Y-116428571D02*
X147403371Y-116523809D01*
X147403371Y-116523809D02*
X147450990Y-116571428D01*
X147450990Y-116571428D02*
X147546228Y-116619047D01*
X147546228Y-116619047D02*
X147831942Y-116619047D01*
X147831942Y-116619047D02*
X147927180Y-116571428D01*
X147927180Y-116571428D02*
X147974800Y-116523809D01*
X147974800Y-116523809D02*
X148022419Y-116428571D01*
X148022419Y-116428571D02*
X148022419Y-116238095D01*
X148022419Y-116238095D02*
X147974800Y-116142857D01*
X147355752Y-117047619D02*
X148355752Y-117047619D01*
X147403371Y-117047619D02*
X147355752Y-117142857D01*
X147355752Y-117142857D02*
X147355752Y-117333333D01*
X147355752Y-117333333D02*
X147403371Y-117428571D01*
X147403371Y-117428571D02*
X147450990Y-117476190D01*
X147450990Y-117476190D02*
X147546228Y-117523809D01*
X147546228Y-117523809D02*
X147831942Y-117523809D01*
X147831942Y-117523809D02*
X147927180Y-117476190D01*
X147927180Y-117476190D02*
X147974800Y-117428571D01*
X147974800Y-117428571D02*
X148022419Y-117333333D01*
X148022419Y-117333333D02*
X148022419Y-117142857D01*
X148022419Y-117142857D02*
X147974800Y-117047619D01*
X148022419Y-118095238D02*
X147974800Y-118000000D01*
X147974800Y-118000000D02*
X147879561Y-117952381D01*
X147879561Y-117952381D02*
X147022419Y-117952381D01*
X147355752Y-118380953D02*
X148022419Y-118619048D01*
X147355752Y-118857143D02*
X148022419Y-118619048D01*
X148022419Y-118619048D02*
X148260514Y-118523810D01*
X148260514Y-118523810D02*
X148308133Y-118476191D01*
X148308133Y-118476191D02*
X148355752Y-118380953D01*
X145350000Y-116150000D02*
G75*
G02*
X141350000Y-116150000I-2000000J0D01*
G01*
X141350000Y-116150000D02*
G75*
G02*
X145350000Y-116150000I2000000J0D01*
G01*
X142872419Y-114661027D02*
X143872419Y-114994360D01*
X143872419Y-114994360D02*
X142872419Y-115327693D01*
X142872419Y-115851503D02*
X142872419Y-115946741D01*
X142872419Y-115946741D02*
X142920038Y-116041979D01*
X142920038Y-116041979D02*
X142967657Y-116089598D01*
X142967657Y-116089598D02*
X143062895Y-116137217D01*
X143062895Y-116137217D02*
X143253371Y-116184836D01*
X143253371Y-116184836D02*
X143491466Y-116184836D01*
X143491466Y-116184836D02*
X143681942Y-116137217D01*
X143681942Y-116137217D02*
X143777180Y-116089598D01*
X143777180Y-116089598D02*
X143824800Y-116041979D01*
X143824800Y-116041979D02*
X143872419Y-115946741D01*
X143872419Y-115946741D02*
X143872419Y-115851503D01*
X143872419Y-115851503D02*
X143824800Y-115756265D01*
X143824800Y-115756265D02*
X143777180Y-115708646D01*
X143777180Y-115708646D02*
X143681942Y-115661027D01*
X143681942Y-115661027D02*
X143491466Y-115613408D01*
X143491466Y-115613408D02*
X143253371Y-115613408D01*
X143253371Y-115613408D02*
X143062895Y-115661027D01*
X143062895Y-115661027D02*
X142967657Y-115708646D01*
X142967657Y-115708646D02*
X142920038Y-115756265D01*
X142920038Y-115756265D02*
X142872419Y-115851503D01*
X143777180Y-116613408D02*
X143824800Y-116661027D01*
X143824800Y-116661027D02*
X143872419Y-116613408D01*
X143872419Y-116613408D02*
X143824800Y-116565789D01*
X143824800Y-116565789D02*
X143777180Y-116613408D01*
X143777180Y-116613408D02*
X143872419Y-116613408D01*
X142967657Y-117041979D02*
X142920038Y-117089598D01*
X142920038Y-117089598D02*
X142872419Y-117184836D01*
X142872419Y-117184836D02*
X142872419Y-117422931D01*
X142872419Y-117422931D02*
X142920038Y-117518169D01*
X142920038Y-117518169D02*
X142967657Y-117565788D01*
X142967657Y-117565788D02*
X143062895Y-117613407D01*
X143062895Y-117613407D02*
X143158133Y-117613407D01*
X143158133Y-117613407D02*
X143300990Y-117565788D01*
X143300990Y-117565788D02*
X143872419Y-116994360D01*
X143872419Y-116994360D02*
X143872419Y-117613407D01*
D11*
%TO.C,REF\u002A\u002A*%
X163401264Y-125658873D02*
X163418739Y-125690233D01*
X163419575Y-125726034D01*
X163399082Y-125757472D01*
X163394416Y-125761348D01*
X163384949Y-125766814D01*
X163371267Y-125771021D01*
X163350748Y-125774133D01*
X163320768Y-125776313D01*
X163278704Y-125777724D01*
X163221932Y-125778529D01*
X163147830Y-125778893D01*
X163053773Y-125778978D01*
X162732227Y-125778978D01*
X162710647Y-125752327D01*
X162695877Y-125728614D01*
X162689067Y-125705600D01*
X162694949Y-125684594D01*
X162710647Y-125658873D01*
X162732227Y-125632222D01*
X163379684Y-125632222D01*
X163401264Y-125658873D01*
G36*
X163401264Y-125658873D02*
G01*
X163418739Y-125690233D01*
X163419575Y-125726034D01*
X163399082Y-125757472D01*
X163394416Y-125761348D01*
X163384949Y-125766814D01*
X163371267Y-125771021D01*
X163350748Y-125774133D01*
X163320768Y-125776313D01*
X163278704Y-125777724D01*
X163221932Y-125778529D01*
X163147830Y-125778893D01*
X163053773Y-125778978D01*
X162732227Y-125778978D01*
X162710647Y-125752327D01*
X162695877Y-125728614D01*
X162689067Y-125705600D01*
X162694949Y-125684594D01*
X162710647Y-125658873D01*
X162732227Y-125632222D01*
X163379684Y-125632222D01*
X163401264Y-125658873D01*
G37*
X163141567Y-118492041D02*
X163215789Y-118492299D01*
X163272541Y-118492970D01*
X163314512Y-118494248D01*
X163344389Y-118496327D01*
X163364861Y-118499401D01*
X163378614Y-118503666D01*
X163388337Y-118509316D01*
X163396717Y-118516545D01*
X163418181Y-118548009D01*
X163419947Y-118583174D01*
X163400267Y-118616178D01*
X163394398Y-118621484D01*
X163385314Y-118626934D01*
X163371973Y-118631100D01*
X163351757Y-118634154D01*
X163322049Y-118636268D01*
X163280232Y-118637614D01*
X163223689Y-118638362D01*
X163149802Y-118638686D01*
X163055956Y-118638755D01*
X162980294Y-118638716D01*
X162902385Y-118638461D01*
X162842375Y-118637817D01*
X162797648Y-118636613D01*
X162765585Y-118634676D01*
X162743571Y-118631836D01*
X162728987Y-118627921D01*
X162719218Y-118622758D01*
X162711645Y-118616178D01*
X162692623Y-118586994D01*
X162693463Y-118553863D01*
X162716776Y-118519709D01*
X162744485Y-118492000D01*
X163057537Y-118492000D01*
X163141567Y-118492041D01*
G36*
X163141567Y-118492041D02*
G01*
X163215789Y-118492299D01*
X163272541Y-118492970D01*
X163314512Y-118494248D01*
X163344389Y-118496327D01*
X163364861Y-118499401D01*
X163378614Y-118503666D01*
X163388337Y-118509316D01*
X163396717Y-118516545D01*
X163418181Y-118548009D01*
X163419947Y-118583174D01*
X163400267Y-118616178D01*
X163394398Y-118621484D01*
X163385314Y-118626934D01*
X163371973Y-118631100D01*
X163351757Y-118634154D01*
X163322049Y-118636268D01*
X163280232Y-118637614D01*
X163223689Y-118638362D01*
X163149802Y-118638686D01*
X163055956Y-118638755D01*
X162980294Y-118638716D01*
X162902385Y-118638461D01*
X162842375Y-118637817D01*
X162797648Y-118636613D01*
X162765585Y-118634676D01*
X162743571Y-118631836D01*
X162728987Y-118627921D01*
X162719218Y-118622758D01*
X162711645Y-118616178D01*
X162692623Y-118586994D01*
X162693463Y-118553863D01*
X162716776Y-118519709D01*
X162744485Y-118492000D01*
X163057537Y-118492000D01*
X163141567Y-118492041D01*
G37*
X157954307Y-118735331D02*
X157995450Y-118737540D01*
X158027582Y-118743106D01*
X158058122Y-118753414D01*
X158094489Y-118769852D01*
X158121728Y-118783800D01*
X158207429Y-118842335D01*
X158276617Y-118914381D01*
X158327741Y-118998053D01*
X158359250Y-119091469D01*
X158366225Y-119124566D01*
X158373094Y-119165040D01*
X158374919Y-119198001D01*
X158371947Y-119232302D01*
X158364426Y-119276800D01*
X158352002Y-119328066D01*
X158314112Y-119418566D01*
X158259836Y-119497655D01*
X158191770Y-119563472D01*
X158112511Y-119614160D01*
X158024654Y-119647860D01*
X157930795Y-119662714D01*
X157833530Y-119656864D01*
X157737220Y-119630601D01*
X157648494Y-119585582D01*
X157573419Y-119524627D01*
X157513641Y-119449816D01*
X157470809Y-119363232D01*
X157446571Y-119266957D01*
X157442576Y-119163072D01*
X157452850Y-119085438D01*
X157480053Y-119002687D01*
X157525484Y-118927594D01*
X157591302Y-118855702D01*
X157635567Y-118817154D01*
X157693961Y-118777744D01*
X157754586Y-118752554D01*
X157823865Y-118739139D01*
X157908222Y-118735052D01*
X157954307Y-118735331D01*
G36*
X157954307Y-118735331D02*
G01*
X157995450Y-118737540D01*
X158027582Y-118743106D01*
X158058122Y-118753414D01*
X158094489Y-118769852D01*
X158121728Y-118783800D01*
X158207429Y-118842335D01*
X158276617Y-118914381D01*
X158327741Y-118998053D01*
X158359250Y-119091469D01*
X158366225Y-119124566D01*
X158373094Y-119165040D01*
X158374919Y-119198001D01*
X158371947Y-119232302D01*
X158364426Y-119276800D01*
X158352002Y-119328066D01*
X158314112Y-119418566D01*
X158259836Y-119497655D01*
X158191770Y-119563472D01*
X158112511Y-119614160D01*
X158024654Y-119647860D01*
X157930795Y-119662714D01*
X157833530Y-119656864D01*
X157737220Y-119630601D01*
X157648494Y-119585582D01*
X157573419Y-119524627D01*
X157513641Y-119449816D01*
X157470809Y-119363232D01*
X157446571Y-119266957D01*
X157442576Y-119163072D01*
X157452850Y-119085438D01*
X157480053Y-119002687D01*
X157525484Y-118927594D01*
X157591302Y-118855702D01*
X157635567Y-118817154D01*
X157693961Y-118777744D01*
X157754586Y-118752554D01*
X157823865Y-118739139D01*
X157908222Y-118735052D01*
X157954307Y-118735331D01*
G37*
X162815178Y-126029083D02*
X162816631Y-126030443D01*
X162824992Y-126041646D01*
X162830547Y-126058748D01*
X162833840Y-126085918D01*
X162835418Y-126127322D01*
X162835822Y-126187127D01*
X162835822Y-126326489D01*
X163099589Y-126326489D01*
X163175417Y-126326564D01*
X163242083Y-126326972D01*
X163291867Y-126327954D01*
X163327784Y-126329750D01*
X163352850Y-126332601D01*
X163370081Y-126336747D01*
X163382492Y-126342429D01*
X163393100Y-126349886D01*
X163395906Y-126352176D01*
X163418548Y-126383354D01*
X163420112Y-126417734D01*
X163400267Y-126450666D01*
X163392191Y-126457645D01*
X163381593Y-126463117D01*
X163365749Y-126467137D01*
X163341773Y-126469928D01*
X163306774Y-126471712D01*
X163257864Y-126472711D01*
X163192154Y-126473148D01*
X163106756Y-126473244D01*
X162835822Y-126473244D01*
X162835822Y-126619180D01*
X162835821Y-126630280D01*
X162835596Y-126686798D01*
X162834457Y-126725642D01*
X162831657Y-126751035D01*
X162826450Y-126767196D01*
X162818089Y-126778348D01*
X162805826Y-126788711D01*
X162775138Y-126804559D01*
X162741358Y-126801457D01*
X162708822Y-126775813D01*
X162705105Y-126770871D01*
X162700269Y-126760662D01*
X162696506Y-126745236D01*
X162693683Y-126722114D01*
X162691670Y-126688817D01*
X162690333Y-126642863D01*
X162689542Y-126581772D01*
X162689163Y-126503065D01*
X162689067Y-126404260D01*
X162689068Y-126384233D01*
X162689158Y-126290110D01*
X162689498Y-126215595D01*
X162690239Y-126158189D01*
X162691535Y-126115389D01*
X162693537Y-126084696D01*
X162696396Y-126063609D01*
X162700266Y-126049627D01*
X162705298Y-126040250D01*
X162711645Y-126032978D01*
X162744362Y-126014172D01*
X162781939Y-126012725D01*
X162815178Y-126029083D01*
G36*
X162815178Y-126029083D02*
G01*
X162816631Y-126030443D01*
X162824992Y-126041646D01*
X162830547Y-126058748D01*
X162833840Y-126085918D01*
X162835418Y-126127322D01*
X162835822Y-126187127D01*
X162835822Y-126326489D01*
X163099589Y-126326489D01*
X163175417Y-126326564D01*
X163242083Y-126326972D01*
X163291867Y-126327954D01*
X163327784Y-126329750D01*
X163352850Y-126332601D01*
X163370081Y-126336747D01*
X163382492Y-126342429D01*
X163393100Y-126349886D01*
X163395906Y-126352176D01*
X163418548Y-126383354D01*
X163420112Y-126417734D01*
X163400267Y-126450666D01*
X163392191Y-126457645D01*
X163381593Y-126463117D01*
X163365749Y-126467137D01*
X163341773Y-126469928D01*
X163306774Y-126471712D01*
X163257864Y-126472711D01*
X163192154Y-126473148D01*
X163106756Y-126473244D01*
X162835822Y-126473244D01*
X162835822Y-126619180D01*
X162835821Y-126630280D01*
X162835596Y-126686798D01*
X162834457Y-126725642D01*
X162831657Y-126751035D01*
X162826450Y-126767196D01*
X162818089Y-126778348D01*
X162805826Y-126788711D01*
X162775138Y-126804559D01*
X162741358Y-126801457D01*
X162708822Y-126775813D01*
X162705105Y-126770871D01*
X162700269Y-126760662D01*
X162696506Y-126745236D01*
X162693683Y-126722114D01*
X162691670Y-126688817D01*
X162690333Y-126642863D01*
X162689542Y-126581772D01*
X162689163Y-126503065D01*
X162689067Y-126404260D01*
X162689068Y-126384233D01*
X162689158Y-126290110D01*
X162689498Y-126215595D01*
X162690239Y-126158189D01*
X162691535Y-126115389D01*
X162693537Y-126084696D01*
X162696396Y-126063609D01*
X162700266Y-126049627D01*
X162705298Y-126040250D01*
X162711645Y-126032978D01*
X162744362Y-126014172D01*
X162781939Y-126012725D01*
X162815178Y-126029083D01*
G37*
X163097631Y-127036891D02*
X163214000Y-127037375D01*
X163228175Y-127037443D01*
X163289937Y-127038029D01*
X163333620Y-127039352D01*
X163363001Y-127041897D01*
X163381855Y-127046152D01*
X163393959Y-127052604D01*
X163403089Y-127061738D01*
X163420506Y-127095196D01*
X163417604Y-127130144D01*
X163393100Y-127161047D01*
X163379897Y-127170056D01*
X163361361Y-127177508D01*
X163335333Y-127181876D01*
X163296787Y-127183931D01*
X163240700Y-127184444D01*
X163118045Y-127184444D01*
X163118045Y-127681155D01*
X163252871Y-127681155D01*
X163288662Y-127681228D01*
X163334992Y-127681991D01*
X163365526Y-127684167D01*
X163384557Y-127688464D01*
X163396374Y-127695588D01*
X163405271Y-127706245D01*
X163420341Y-127738496D01*
X163417673Y-127773783D01*
X163393100Y-127804514D01*
X163386845Y-127809169D01*
X163376321Y-127815105D01*
X163362391Y-127819636D01*
X163342317Y-127822952D01*
X163313360Y-127825241D01*
X163272780Y-127826692D01*
X163217840Y-127827495D01*
X163145799Y-127827838D01*
X163053920Y-127827911D01*
X162744485Y-127827911D01*
X162716776Y-127800202D01*
X162694533Y-127768823D01*
X162691844Y-127735594D01*
X162711645Y-127703733D01*
X162721415Y-127695447D01*
X162737307Y-127688035D01*
X162761275Y-127683698D01*
X162798148Y-127681662D01*
X162852756Y-127681155D01*
X162971289Y-127681155D01*
X162971289Y-127184444D01*
X162855776Y-127184444D01*
X162804078Y-127184006D01*
X162769554Y-127182042D01*
X162746978Y-127177526D01*
X162731126Y-127169433D01*
X162716776Y-127156735D01*
X162694533Y-127125357D01*
X162691844Y-127092128D01*
X162711645Y-127060266D01*
X162717835Y-127054634D01*
X162726041Y-127049544D01*
X162737817Y-127045457D01*
X162755276Y-127042279D01*
X162780530Y-127039913D01*
X162815690Y-127038262D01*
X162862869Y-127037231D01*
X162924177Y-127036723D01*
X163001727Y-127036641D01*
X163097631Y-127036891D01*
G36*
X163097631Y-127036891D02*
G01*
X163214000Y-127037375D01*
X163228175Y-127037443D01*
X163289937Y-127038029D01*
X163333620Y-127039352D01*
X163363001Y-127041897D01*
X163381855Y-127046152D01*
X163393959Y-127052604D01*
X163403089Y-127061738D01*
X163420506Y-127095196D01*
X163417604Y-127130144D01*
X163393100Y-127161047D01*
X163379897Y-127170056D01*
X163361361Y-127177508D01*
X163335333Y-127181876D01*
X163296787Y-127183931D01*
X163240700Y-127184444D01*
X163118045Y-127184444D01*
X163118045Y-127681155D01*
X163252871Y-127681155D01*
X163288662Y-127681228D01*
X163334992Y-127681991D01*
X163365526Y-127684167D01*
X163384557Y-127688464D01*
X163396374Y-127695588D01*
X163405271Y-127706245D01*
X163420341Y-127738496D01*
X163417673Y-127773783D01*
X163393100Y-127804514D01*
X163386845Y-127809169D01*
X163376321Y-127815105D01*
X163362391Y-127819636D01*
X163342317Y-127822952D01*
X163313360Y-127825241D01*
X163272780Y-127826692D01*
X163217840Y-127827495D01*
X163145799Y-127827838D01*
X163053920Y-127827911D01*
X162744485Y-127827911D01*
X162716776Y-127800202D01*
X162694533Y-127768823D01*
X162691844Y-127735594D01*
X162711645Y-127703733D01*
X162721415Y-127695447D01*
X162737307Y-127688035D01*
X162761275Y-127683698D01*
X162798148Y-127681662D01*
X162852756Y-127681155D01*
X162971289Y-127681155D01*
X162971289Y-127184444D01*
X162855776Y-127184444D01*
X162804078Y-127184006D01*
X162769554Y-127182042D01*
X162746978Y-127177526D01*
X162731126Y-127169433D01*
X162716776Y-127156735D01*
X162694533Y-127125357D01*
X162691844Y-127092128D01*
X162711645Y-127060266D01*
X162717835Y-127054634D01*
X162726041Y-127049544D01*
X162737817Y-127045457D01*
X162755276Y-127042279D01*
X162780530Y-127039913D01*
X162815690Y-127038262D01*
X162862869Y-127037231D01*
X162924177Y-127036723D01*
X163001727Y-127036641D01*
X163097631Y-127036891D01*
G37*
X163115526Y-122352825D02*
X163194311Y-122353050D01*
X163255021Y-122353668D01*
X163276089Y-122354225D01*
X163300396Y-122354867D01*
X163333175Y-122356837D01*
X163356095Y-122359765D01*
X163371897Y-122363842D01*
X163383319Y-122369257D01*
X163393100Y-122376197D01*
X163422845Y-122399594D01*
X163422251Y-122565286D01*
X163421953Y-122600082D01*
X163418522Y-122698565D01*
X163410839Y-122779527D01*
X163398282Y-122846621D01*
X163380227Y-122903504D01*
X163356052Y-122953831D01*
X163354135Y-122957190D01*
X163317417Y-123015002D01*
X163280451Y-123057356D01*
X163236966Y-123090172D01*
X163180689Y-123119372D01*
X163171073Y-123123654D01*
X163107887Y-123146231D01*
X163052509Y-123153203D01*
X162997483Y-123144601D01*
X162935351Y-123120459D01*
X162933658Y-123119663D01*
X162864236Y-123079212D01*
X162807638Y-123028527D01*
X162763070Y-122965802D01*
X162729741Y-122889226D01*
X162706861Y-122796991D01*
X162693636Y-122687288D01*
X162689275Y-122558309D01*
X162689270Y-122554737D01*
X162689372Y-122510844D01*
X162835822Y-122510844D01*
X162836270Y-122598333D01*
X162838746Y-122665253D01*
X162849998Y-122757651D01*
X162869537Y-122836966D01*
X162896511Y-122898940D01*
X162917240Y-122929880D01*
X162947006Y-122958000D01*
X162989434Y-122981340D01*
X163005400Y-122988467D01*
X163037902Y-123000291D01*
X163062333Y-123002721D01*
X163087061Y-122997108D01*
X163102939Y-122991382D01*
X163162847Y-122958452D01*
X163208600Y-122911114D01*
X163241736Y-122847348D01*
X163263790Y-122765139D01*
X163264292Y-122762345D01*
X163270255Y-122716060D01*
X163274483Y-122659664D01*
X163276089Y-122604726D01*
X163276089Y-122510844D01*
X162835822Y-122510844D01*
X162689372Y-122510844D01*
X162689410Y-122494717D01*
X162690446Y-122452786D01*
X162693040Y-122424672D01*
X162697853Y-122406103D01*
X162705544Y-122392806D01*
X162716776Y-122380509D01*
X162744485Y-122352800D01*
X163053920Y-122352800D01*
X163115526Y-122352825D01*
G36*
X163115526Y-122352825D02*
G01*
X163194311Y-122353050D01*
X163255021Y-122353668D01*
X163276089Y-122354225D01*
X163300396Y-122354867D01*
X163333175Y-122356837D01*
X163356095Y-122359765D01*
X163371897Y-122363842D01*
X163383319Y-122369257D01*
X163393100Y-122376197D01*
X163422845Y-122399594D01*
X163422251Y-122565286D01*
X163421953Y-122600082D01*
X163418522Y-122698565D01*
X163410839Y-122779527D01*
X163398282Y-122846621D01*
X163380227Y-122903504D01*
X163356052Y-122953831D01*
X163354135Y-122957190D01*
X163317417Y-123015002D01*
X163280451Y-123057356D01*
X163236966Y-123090172D01*
X163180689Y-123119372D01*
X163171073Y-123123654D01*
X163107887Y-123146231D01*
X163052509Y-123153203D01*
X162997483Y-123144601D01*
X162935351Y-123120459D01*
X162933658Y-123119663D01*
X162864236Y-123079212D01*
X162807638Y-123028527D01*
X162763070Y-122965802D01*
X162729741Y-122889226D01*
X162706861Y-122796991D01*
X162693636Y-122687288D01*
X162689275Y-122558309D01*
X162689270Y-122554737D01*
X162689372Y-122510844D01*
X162835822Y-122510844D01*
X162836270Y-122598333D01*
X162838746Y-122665253D01*
X162849998Y-122757651D01*
X162869537Y-122836966D01*
X162896511Y-122898940D01*
X162917240Y-122929880D01*
X162947006Y-122958000D01*
X162989434Y-122981340D01*
X163005400Y-122988467D01*
X163037902Y-123000291D01*
X163062333Y-123002721D01*
X163087061Y-122997108D01*
X163102939Y-122991382D01*
X163162847Y-122958452D01*
X163208600Y-122911114D01*
X163241736Y-122847348D01*
X163263790Y-122765139D01*
X163264292Y-122762345D01*
X163270255Y-122716060D01*
X163274483Y-122659664D01*
X163276089Y-122604726D01*
X163276089Y-122510844D01*
X162835822Y-122510844D01*
X162689372Y-122510844D01*
X162689410Y-122494717D01*
X162690446Y-122452786D01*
X162693040Y-122424672D01*
X162697853Y-122406103D01*
X162705544Y-122392806D01*
X162716776Y-122380509D01*
X162744485Y-122352800D01*
X163053920Y-122352800D01*
X163115526Y-122352825D01*
G37*
X163055956Y-115263378D02*
X163131617Y-115263417D01*
X163209526Y-115263672D01*
X163269536Y-115264316D01*
X163314264Y-115265520D01*
X163346326Y-115267457D01*
X163368340Y-115270297D01*
X163382924Y-115274212D01*
X163392694Y-115279374D01*
X163400267Y-115285955D01*
X163406501Y-115292923D01*
X163413801Y-115305921D01*
X163418554Y-115325069D01*
X163421292Y-115354472D01*
X163422545Y-115398238D01*
X163422845Y-115460472D01*
X163422469Y-115509418D01*
X163418041Y-115616278D01*
X163407953Y-115705506D01*
X163391365Y-115780304D01*
X163367435Y-115843875D01*
X163335321Y-115899421D01*
X163294182Y-115950146D01*
X163288330Y-115956134D01*
X163239821Y-115993001D01*
X163179013Y-116024101D01*
X163114769Y-116045583D01*
X163055956Y-116053600D01*
X163034739Y-116052321D01*
X162977323Y-116040009D01*
X162917413Y-116017480D01*
X162863363Y-115988250D01*
X162823532Y-115955833D01*
X162806510Y-115936292D01*
X162767322Y-115881580D01*
X162737193Y-115821277D01*
X162715232Y-115752081D01*
X162700550Y-115670689D01*
X162692259Y-115573800D01*
X162690148Y-115486333D01*
X162835808Y-115486333D01*
X162835817Y-115489361D01*
X162837782Y-115540481D01*
X162842507Y-115600584D01*
X162849035Y-115657292D01*
X162858331Y-115707250D01*
X162884600Y-115782002D01*
X162923899Y-115839511D01*
X162976933Y-115881012D01*
X163028200Y-115902229D01*
X163076026Y-115903647D01*
X163126961Y-115885365D01*
X163172878Y-115855695D01*
X163215287Y-115808998D01*
X163245090Y-115747608D01*
X163264226Y-115668462D01*
X163264464Y-115666972D01*
X163270256Y-115618001D01*
X163274396Y-115559307D01*
X163276004Y-115503266D01*
X163276089Y-115410133D01*
X162835822Y-115410133D01*
X162835808Y-115486333D01*
X162690148Y-115486333D01*
X162689467Y-115458111D01*
X162689066Y-115418629D01*
X162688653Y-115372918D01*
X162690457Y-115337117D01*
X162696739Y-115310026D01*
X162709759Y-115290444D01*
X162731778Y-115277170D01*
X162765055Y-115269002D01*
X162811851Y-115264740D01*
X162835822Y-115264143D01*
X162874427Y-115263183D01*
X162955041Y-115263130D01*
X163055956Y-115263378D01*
G36*
X163055956Y-115263378D02*
G01*
X163131617Y-115263417D01*
X163209526Y-115263672D01*
X163269536Y-115264316D01*
X163314264Y-115265520D01*
X163346326Y-115267457D01*
X163368340Y-115270297D01*
X163382924Y-115274212D01*
X163392694Y-115279374D01*
X163400267Y-115285955D01*
X163406501Y-115292923D01*
X163413801Y-115305921D01*
X163418554Y-115325069D01*
X163421292Y-115354472D01*
X163422545Y-115398238D01*
X163422845Y-115460472D01*
X163422469Y-115509418D01*
X163418041Y-115616278D01*
X163407953Y-115705506D01*
X163391365Y-115780304D01*
X163367435Y-115843875D01*
X163335321Y-115899421D01*
X163294182Y-115950146D01*
X163288330Y-115956134D01*
X163239821Y-115993001D01*
X163179013Y-116024101D01*
X163114769Y-116045583D01*
X163055956Y-116053600D01*
X163034739Y-116052321D01*
X162977323Y-116040009D01*
X162917413Y-116017480D01*
X162863363Y-115988250D01*
X162823532Y-115955833D01*
X162806510Y-115936292D01*
X162767322Y-115881580D01*
X162737193Y-115821277D01*
X162715232Y-115752081D01*
X162700550Y-115670689D01*
X162692259Y-115573800D01*
X162690148Y-115486333D01*
X162835808Y-115486333D01*
X162835817Y-115489361D01*
X162837782Y-115540481D01*
X162842507Y-115600584D01*
X162849035Y-115657292D01*
X162858331Y-115707250D01*
X162884600Y-115782002D01*
X162923899Y-115839511D01*
X162976933Y-115881012D01*
X163028200Y-115902229D01*
X163076026Y-115903647D01*
X163126961Y-115885365D01*
X163172878Y-115855695D01*
X163215287Y-115808998D01*
X163245090Y-115747608D01*
X163264226Y-115668462D01*
X163264464Y-115666972D01*
X163270256Y-115618001D01*
X163274396Y-115559307D01*
X163276004Y-115503266D01*
X163276089Y-115410133D01*
X162835822Y-115410133D01*
X162835808Y-115486333D01*
X162690148Y-115486333D01*
X162689467Y-115458111D01*
X162689066Y-115418629D01*
X162688653Y-115372918D01*
X162690457Y-115337117D01*
X162696739Y-115310026D01*
X162709759Y-115290444D01*
X162731778Y-115277170D01*
X162765055Y-115269002D01*
X162811851Y-115264740D01*
X162835822Y-115264143D01*
X162874427Y-115263183D01*
X162955041Y-115263130D01*
X163055956Y-115263378D01*
G37*
X163114486Y-120151489D02*
X163193573Y-120151708D01*
X163254516Y-120152317D01*
X163300062Y-120153508D01*
X163332963Y-120155471D01*
X163355968Y-120158397D01*
X163371826Y-120162477D01*
X163383286Y-120167903D01*
X163393100Y-120174864D01*
X163417493Y-120205292D01*
X163420372Y-120240235D01*
X163401282Y-120277216D01*
X163397807Y-120281400D01*
X163389279Y-120289576D01*
X163377728Y-120295636D01*
X163359896Y-120300019D01*
X163332524Y-120303161D01*
X163292354Y-120305498D01*
X163236128Y-120307469D01*
X163160589Y-120309511D01*
X162941458Y-120315155D01*
X163182099Y-120580444D01*
X163248875Y-120654278D01*
X163306991Y-120719458D01*
X163351949Y-120771652D01*
X163384871Y-120812727D01*
X163406879Y-120844545D01*
X163419094Y-120868974D01*
X163422639Y-120887876D01*
X163418636Y-120903117D01*
X163408207Y-120916561D01*
X163392474Y-120930073D01*
X163383991Y-120936318D01*
X163373413Y-120941950D01*
X163359255Y-120946161D01*
X163338803Y-120949113D01*
X163309342Y-120950968D01*
X163268161Y-120951887D01*
X163212544Y-120952032D01*
X163139779Y-120951565D01*
X163047151Y-120950648D01*
X162732199Y-120947333D01*
X162710633Y-120920682D01*
X162694441Y-120894617D01*
X162691670Y-120861759D01*
X162710623Y-120827228D01*
X162714208Y-120822916D01*
X162722737Y-120814784D01*
X162734329Y-120808755D01*
X162752235Y-120804394D01*
X162779706Y-120801266D01*
X162819994Y-120798937D01*
X162876351Y-120796971D01*
X162952029Y-120794933D01*
X163171878Y-120789289D01*
X163008084Y-120608666D01*
X162929451Y-120521928D01*
X162861058Y-120446157D01*
X162805708Y-120384020D01*
X162762338Y-120333922D01*
X162729881Y-120294265D01*
X162707273Y-120263452D01*
X162693448Y-120239886D01*
X162687343Y-120221970D01*
X162687892Y-120208107D01*
X162694029Y-120196699D01*
X162704691Y-120186150D01*
X162718811Y-120174864D01*
X162724772Y-120170411D01*
X162735268Y-120164412D01*
X162749093Y-120159833D01*
X162768998Y-120156481D01*
X162797732Y-120154167D01*
X162838045Y-120152699D01*
X162892687Y-120151887D01*
X162964407Y-120151540D01*
X163055956Y-120151466D01*
X163114486Y-120151489D01*
G36*
X163114486Y-120151489D02*
G01*
X163193573Y-120151708D01*
X163254516Y-120152317D01*
X163300062Y-120153508D01*
X163332963Y-120155471D01*
X163355968Y-120158397D01*
X163371826Y-120162477D01*
X163383286Y-120167903D01*
X163393100Y-120174864D01*
X163417493Y-120205292D01*
X163420372Y-120240235D01*
X163401282Y-120277216D01*
X163397807Y-120281400D01*
X163389279Y-120289576D01*
X163377728Y-120295636D01*
X163359896Y-120300019D01*
X163332524Y-120303161D01*
X163292354Y-120305498D01*
X163236128Y-120307469D01*
X163160589Y-120309511D01*
X162941458Y-120315155D01*
X163182099Y-120580444D01*
X163248875Y-120654278D01*
X163306991Y-120719458D01*
X163351949Y-120771652D01*
X163384871Y-120812727D01*
X163406879Y-120844545D01*
X163419094Y-120868974D01*
X163422639Y-120887876D01*
X163418636Y-120903117D01*
X163408207Y-120916561D01*
X163392474Y-120930073D01*
X163383991Y-120936318D01*
X163373413Y-120941950D01*
X163359255Y-120946161D01*
X163338803Y-120949113D01*
X163309342Y-120950968D01*
X163268161Y-120951887D01*
X163212544Y-120952032D01*
X163139779Y-120951565D01*
X163047151Y-120950648D01*
X162732199Y-120947333D01*
X162710633Y-120920682D01*
X162694441Y-120894617D01*
X162691670Y-120861759D01*
X162710623Y-120827228D01*
X162714208Y-120822916D01*
X162722737Y-120814784D01*
X162734329Y-120808755D01*
X162752235Y-120804394D01*
X162779706Y-120801266D01*
X162819994Y-120798937D01*
X162876351Y-120796971D01*
X162952029Y-120794933D01*
X163171878Y-120789289D01*
X163008084Y-120608666D01*
X162929451Y-120521928D01*
X162861058Y-120446157D01*
X162805708Y-120384020D01*
X162762338Y-120333922D01*
X162729881Y-120294265D01*
X162707273Y-120263452D01*
X162693448Y-120239886D01*
X162687343Y-120221970D01*
X162687892Y-120208107D01*
X162694029Y-120196699D01*
X162704691Y-120186150D01*
X162718811Y-120174864D01*
X162724772Y-120170411D01*
X162735268Y-120164412D01*
X162749093Y-120159833D01*
X162768998Y-120156481D01*
X162797732Y-120154167D01*
X162838045Y-120152699D01*
X162892687Y-120151887D01*
X162964407Y-120151540D01*
X163055956Y-120151466D01*
X163114486Y-120151489D01*
G37*
X163074259Y-118967702D02*
X163125592Y-118980643D01*
X163182118Y-119003806D01*
X163236035Y-119033698D01*
X163279539Y-119066827D01*
X163289887Y-119077023D01*
X163341662Y-119144108D01*
X163381554Y-119224234D01*
X163405956Y-119310444D01*
X163414068Y-119365408D01*
X163420673Y-119458861D01*
X163418586Y-119548642D01*
X163408340Y-119631131D01*
X163390470Y-119702714D01*
X163365508Y-119759772D01*
X163333988Y-119798689D01*
X163332012Y-119800064D01*
X163306786Y-119807152D01*
X163259535Y-119811391D01*
X163190071Y-119812800D01*
X163127838Y-119811940D01*
X163080456Y-119807220D01*
X163048353Y-119795530D01*
X163028800Y-119773761D01*
X163019070Y-119738802D01*
X163016433Y-119687544D01*
X163018161Y-119616877D01*
X163021173Y-119568257D01*
X163029366Y-119518061D01*
X163043419Y-119485567D01*
X163064654Y-119468108D01*
X163094394Y-119463017D01*
X163098936Y-119463123D01*
X163133730Y-119471825D01*
X163157147Y-119495835D01*
X163170347Y-119537100D01*
X163174489Y-119597569D01*
X163174489Y-119666044D01*
X163212841Y-119666044D01*
X163221976Y-119665994D01*
X163239227Y-119663773D01*
X163249521Y-119654506D01*
X163256459Y-119633125D01*
X163263641Y-119594564D01*
X163264575Y-119589090D01*
X163274478Y-119492140D01*
X163271559Y-119402148D01*
X163256829Y-119321240D01*
X163231299Y-119251541D01*
X163195978Y-119195176D01*
X163151879Y-119154271D01*
X163100012Y-119130949D01*
X163041388Y-119127337D01*
X163012494Y-119132855D01*
X162956604Y-119159539D01*
X162910945Y-119205727D01*
X162876108Y-119270709D01*
X162852690Y-119353771D01*
X162848241Y-119378445D01*
X162837742Y-119467774D01*
X162838971Y-119547581D01*
X162851906Y-119625674D01*
X162858696Y-119660817D01*
X162859713Y-119706255D01*
X162847182Y-119737570D01*
X162820395Y-119757723D01*
X162792148Y-119764107D01*
X162760924Y-119754621D01*
X162747499Y-119745292D01*
X162723967Y-119711057D01*
X162706095Y-119658435D01*
X162694599Y-119589919D01*
X162690192Y-119508000D01*
X162694179Y-119410850D01*
X162710494Y-119304843D01*
X162738545Y-119211031D01*
X162777452Y-119132235D01*
X162826334Y-119071281D01*
X162859195Y-119045211D01*
X162908394Y-119015703D01*
X162962252Y-118990432D01*
X163013419Y-118972782D01*
X163054544Y-118966142D01*
X163074259Y-118967702D01*
G36*
X163074259Y-118967702D02*
G01*
X163125592Y-118980643D01*
X163182118Y-119003806D01*
X163236035Y-119033698D01*
X163279539Y-119066827D01*
X163289887Y-119077023D01*
X163341662Y-119144108D01*
X163381554Y-119224234D01*
X163405956Y-119310444D01*
X163414068Y-119365408D01*
X163420673Y-119458861D01*
X163418586Y-119548642D01*
X163408340Y-119631131D01*
X163390470Y-119702714D01*
X163365508Y-119759772D01*
X163333988Y-119798689D01*
X163332012Y-119800064D01*
X163306786Y-119807152D01*
X163259535Y-119811391D01*
X163190071Y-119812800D01*
X163127838Y-119811940D01*
X163080456Y-119807220D01*
X163048353Y-119795530D01*
X163028800Y-119773761D01*
X163019070Y-119738802D01*
X163016433Y-119687544D01*
X163018161Y-119616877D01*
X163021173Y-119568257D01*
X163029366Y-119518061D01*
X163043419Y-119485567D01*
X163064654Y-119468108D01*
X163094394Y-119463017D01*
X163098936Y-119463123D01*
X163133730Y-119471825D01*
X163157147Y-119495835D01*
X163170347Y-119537100D01*
X163174489Y-119597569D01*
X163174489Y-119666044D01*
X163212841Y-119666044D01*
X163221976Y-119665994D01*
X163239227Y-119663773D01*
X163249521Y-119654506D01*
X163256459Y-119633125D01*
X163263641Y-119594564D01*
X163264575Y-119589090D01*
X163274478Y-119492140D01*
X163271559Y-119402148D01*
X163256829Y-119321240D01*
X163231299Y-119251541D01*
X163195978Y-119195176D01*
X163151879Y-119154271D01*
X163100012Y-119130949D01*
X163041388Y-119127337D01*
X163012494Y-119132855D01*
X162956604Y-119159539D01*
X162910945Y-119205727D01*
X162876108Y-119270709D01*
X162852690Y-119353771D01*
X162848241Y-119378445D01*
X162837742Y-119467774D01*
X162838971Y-119547581D01*
X162851906Y-119625674D01*
X162858696Y-119660817D01*
X162859713Y-119706255D01*
X162847182Y-119737570D01*
X162820395Y-119757723D01*
X162792148Y-119764107D01*
X162760924Y-119754621D01*
X162747499Y-119745292D01*
X162723967Y-119711057D01*
X162706095Y-119658435D01*
X162694599Y-119589919D01*
X162690192Y-119508000D01*
X162694179Y-119410850D01*
X162710494Y-119304843D01*
X162738545Y-119211031D01*
X162777452Y-119132235D01*
X162826334Y-119071281D01*
X162859195Y-119045211D01*
X162908394Y-119015703D01*
X162962252Y-118990432D01*
X163013419Y-118972782D01*
X163054544Y-118966142D01*
X163074259Y-118967702D01*
G37*
X163126911Y-121336829D02*
X163205228Y-121337061D01*
X163265496Y-121337681D01*
X163310393Y-121338874D01*
X163342602Y-121340821D01*
X163364800Y-121343706D01*
X163379669Y-121347712D01*
X163389889Y-121353021D01*
X163398138Y-121359817D01*
X163402795Y-121364332D01*
X163409282Y-121372562D01*
X163414194Y-121383922D01*
X163417749Y-121401190D01*
X163420167Y-121427145D01*
X163421667Y-121464564D01*
X163422467Y-121516227D01*
X163422787Y-121584911D01*
X163422845Y-121673394D01*
X163422838Y-121693069D01*
X163422572Y-121780094D01*
X163421806Y-121847746D01*
X163420392Y-121898701D01*
X163418180Y-121935633D01*
X163415022Y-121961217D01*
X163410769Y-121978129D01*
X163405271Y-121989043D01*
X163395285Y-121999536D01*
X163364168Y-122012797D01*
X163328280Y-122011614D01*
X163296733Y-121995450D01*
X163294457Y-121993261D01*
X163288189Y-121984573D01*
X163283523Y-121971231D01*
X163280227Y-121950248D01*
X163278068Y-121918637D01*
X163276814Y-121873410D01*
X163276231Y-121811580D01*
X163276089Y-121730161D01*
X163276089Y-121483555D01*
X163118045Y-121483555D01*
X163118045Y-121645994D01*
X163117964Y-121681662D01*
X163117167Y-121737432D01*
X163115162Y-121776570D01*
X163111521Y-121803024D01*
X163105812Y-121820741D01*
X163097607Y-121833671D01*
X163094423Y-121837314D01*
X163063448Y-121855722D01*
X163027112Y-121856356D01*
X162993493Y-121838817D01*
X162993424Y-121838755D01*
X162984798Y-121829084D01*
X162978742Y-121815791D01*
X162974811Y-121795083D01*
X162972556Y-121763172D01*
X162971531Y-121716266D01*
X162971289Y-121650576D01*
X162971289Y-121482429D01*
X162906378Y-121485814D01*
X162841467Y-121489200D01*
X162838414Y-121731277D01*
X162838086Y-121756293D01*
X162836606Y-121837913D01*
X162834222Y-121900232D01*
X162830227Y-121945846D01*
X162823913Y-121977348D01*
X162814574Y-121997333D01*
X162801503Y-122008396D01*
X162783992Y-122013131D01*
X162761335Y-122014133D01*
X162758970Y-122014127D01*
X162738939Y-122012973D01*
X162723146Y-122008176D01*
X162711090Y-121997368D01*
X162702267Y-121978183D01*
X162696175Y-121948255D01*
X162692311Y-121905217D01*
X162690174Y-121846701D01*
X162689260Y-121770343D01*
X162689067Y-121673774D01*
X162689067Y-121383594D01*
X162718811Y-121360197D01*
X162725495Y-121355248D01*
X162736066Y-121349404D01*
X162750153Y-121344943D01*
X162770478Y-121341679D01*
X162799765Y-121339426D01*
X162840737Y-121337998D01*
X162896117Y-121337208D01*
X162968628Y-121336871D01*
X163060994Y-121336800D01*
X163126911Y-121336829D01*
G36*
X163126911Y-121336829D02*
G01*
X163205228Y-121337061D01*
X163265496Y-121337681D01*
X163310393Y-121338874D01*
X163342602Y-121340821D01*
X163364800Y-121343706D01*
X163379669Y-121347712D01*
X163389889Y-121353021D01*
X163398138Y-121359817D01*
X163402795Y-121364332D01*
X163409282Y-121372562D01*
X163414194Y-121383922D01*
X163417749Y-121401190D01*
X163420167Y-121427145D01*
X163421667Y-121464564D01*
X163422467Y-121516227D01*
X163422787Y-121584911D01*
X163422845Y-121673394D01*
X163422838Y-121693069D01*
X163422572Y-121780094D01*
X163421806Y-121847746D01*
X163420392Y-121898701D01*
X163418180Y-121935633D01*
X163415022Y-121961217D01*
X163410769Y-121978129D01*
X163405271Y-121989043D01*
X163395285Y-121999536D01*
X163364168Y-122012797D01*
X163328280Y-122011614D01*
X163296733Y-121995450D01*
X163294457Y-121993261D01*
X163288189Y-121984573D01*
X163283523Y-121971231D01*
X163280227Y-121950248D01*
X163278068Y-121918637D01*
X163276814Y-121873410D01*
X163276231Y-121811580D01*
X163276089Y-121730161D01*
X163276089Y-121483555D01*
X163118045Y-121483555D01*
X163118045Y-121645994D01*
X163117964Y-121681662D01*
X163117167Y-121737432D01*
X163115162Y-121776570D01*
X163111521Y-121803024D01*
X163105812Y-121820741D01*
X163097607Y-121833671D01*
X163094423Y-121837314D01*
X163063448Y-121855722D01*
X163027112Y-121856356D01*
X162993493Y-121838817D01*
X162993424Y-121838755D01*
X162984798Y-121829084D01*
X162978742Y-121815791D01*
X162974811Y-121795083D01*
X162972556Y-121763172D01*
X162971531Y-121716266D01*
X162971289Y-121650576D01*
X162971289Y-121482429D01*
X162906378Y-121485814D01*
X162841467Y-121489200D01*
X162838414Y-121731277D01*
X162838086Y-121756293D01*
X162836606Y-121837913D01*
X162834222Y-121900232D01*
X162830227Y-121945846D01*
X162823913Y-121977348D01*
X162814574Y-121997333D01*
X162801503Y-122008396D01*
X162783992Y-122013131D01*
X162761335Y-122014133D01*
X162758970Y-122014127D01*
X162738939Y-122012973D01*
X162723146Y-122008176D01*
X162711090Y-121997368D01*
X162702267Y-121978183D01*
X162696175Y-121948255D01*
X162692311Y-121905217D01*
X162690174Y-121846701D01*
X162689260Y-121770343D01*
X162689067Y-121673774D01*
X162689067Y-121383594D01*
X162718811Y-121360197D01*
X162725495Y-121355248D01*
X162736066Y-121349404D01*
X162750153Y-121344943D01*
X162770478Y-121341679D01*
X162799765Y-121339426D01*
X162840737Y-121337998D01*
X162896117Y-121337208D01*
X162968628Y-121336871D01*
X163060994Y-121336800D01*
X163126911Y-121336829D01*
G37*
X163130713Y-116392303D02*
X163208889Y-116392552D01*
X163269103Y-116393188D01*
X163313982Y-116394385D01*
X163346152Y-116396316D01*
X163368239Y-116399154D01*
X163382870Y-116403073D01*
X163392670Y-116408245D01*
X163400267Y-116414844D01*
X163403444Y-116418178D01*
X163409554Y-116426700D01*
X163414229Y-116438702D01*
X163417659Y-116456913D01*
X163420036Y-116484060D01*
X163421552Y-116522871D01*
X163422398Y-116576076D01*
X163422765Y-116646402D01*
X163422845Y-116736578D01*
X163422833Y-116778686D01*
X163422651Y-116859833D01*
X163422098Y-116922325D01*
X163420982Y-116968891D01*
X163419113Y-117002259D01*
X163416298Y-117025156D01*
X163412346Y-117040312D01*
X163407066Y-117050454D01*
X163400267Y-117058311D01*
X163378667Y-117073037D01*
X163349467Y-117080889D01*
X163325560Y-117075390D01*
X163298667Y-117058311D01*
X163294059Y-117053332D01*
X163287772Y-117043557D01*
X163283146Y-117029441D01*
X163279930Y-117007946D01*
X163277870Y-116976032D01*
X163276712Y-116930658D01*
X163276202Y-116868787D01*
X163276089Y-116787378D01*
X163276089Y-116539022D01*
X163118045Y-116539022D01*
X163118045Y-116700199D01*
X163117899Y-116736017D01*
X163116176Y-116801641D01*
X163111741Y-116848882D01*
X163103637Y-116880617D01*
X163090906Y-116899723D01*
X163072592Y-116909077D01*
X163047738Y-116911555D01*
X163027482Y-116910758D01*
X163005656Y-116905506D01*
X162990304Y-116892712D01*
X162980309Y-116869372D01*
X162974553Y-116832483D01*
X162971919Y-116779041D01*
X162971289Y-116706042D01*
X162971289Y-116537895D01*
X162906378Y-116541281D01*
X162841467Y-116544666D01*
X162838418Y-116792383D01*
X162837539Y-116854974D01*
X162836095Y-116923435D01*
X162834164Y-116974339D01*
X162831514Y-117010592D01*
X162827910Y-117035099D01*
X162823121Y-117050765D01*
X162816913Y-117060494D01*
X162810510Y-117066509D01*
X162778828Y-117079518D01*
X162743142Y-117075957D01*
X162712084Y-117056182D01*
X162709161Y-117052931D01*
X162702810Y-117043951D01*
X162697957Y-117031847D01*
X162694403Y-117013841D01*
X162691946Y-116987153D01*
X162690385Y-116949003D01*
X162689518Y-116896614D01*
X162689146Y-116827206D01*
X162689067Y-116737999D01*
X162689083Y-116683266D01*
X162689275Y-116606169D01*
X162689860Y-116547223D01*
X162691051Y-116503636D01*
X162693064Y-116472617D01*
X162696112Y-116451375D01*
X162700409Y-116437118D01*
X162706172Y-116427055D01*
X162713612Y-116418394D01*
X162715293Y-116416609D01*
X162722832Y-116409365D01*
X162731850Y-116403723D01*
X162744984Y-116399483D01*
X162764872Y-116396444D01*
X162794151Y-116394406D01*
X162835458Y-116393170D01*
X162891431Y-116392535D01*
X162964707Y-116392300D01*
X163057923Y-116392266D01*
X163130713Y-116392303D01*
G36*
X163130713Y-116392303D02*
G01*
X163208889Y-116392552D01*
X163269103Y-116393188D01*
X163313982Y-116394385D01*
X163346152Y-116396316D01*
X163368239Y-116399154D01*
X163382870Y-116403073D01*
X163392670Y-116408245D01*
X163400267Y-116414844D01*
X163403444Y-116418178D01*
X163409554Y-116426700D01*
X163414229Y-116438702D01*
X163417659Y-116456913D01*
X163420036Y-116484060D01*
X163421552Y-116522871D01*
X163422398Y-116576076D01*
X163422765Y-116646402D01*
X163422845Y-116736578D01*
X163422833Y-116778686D01*
X163422651Y-116859833D01*
X163422098Y-116922325D01*
X163420982Y-116968891D01*
X163419113Y-117002259D01*
X163416298Y-117025156D01*
X163412346Y-117040312D01*
X163407066Y-117050454D01*
X163400267Y-117058311D01*
X163378667Y-117073037D01*
X163349467Y-117080889D01*
X163325560Y-117075390D01*
X163298667Y-117058311D01*
X163294059Y-117053332D01*
X163287772Y-117043557D01*
X163283146Y-117029441D01*
X163279930Y-117007946D01*
X163277870Y-116976032D01*
X163276712Y-116930658D01*
X163276202Y-116868787D01*
X163276089Y-116787378D01*
X163276089Y-116539022D01*
X163118045Y-116539022D01*
X163118045Y-116700199D01*
X163117899Y-116736017D01*
X163116176Y-116801641D01*
X163111741Y-116848882D01*
X163103637Y-116880617D01*
X163090906Y-116899723D01*
X163072592Y-116909077D01*
X163047738Y-116911555D01*
X163027482Y-116910758D01*
X163005656Y-116905506D01*
X162990304Y-116892712D01*
X162980309Y-116869372D01*
X162974553Y-116832483D01*
X162971919Y-116779041D01*
X162971289Y-116706042D01*
X162971289Y-116537895D01*
X162906378Y-116541281D01*
X162841467Y-116544666D01*
X162838418Y-116792383D01*
X162837539Y-116854974D01*
X162836095Y-116923435D01*
X162834164Y-116974339D01*
X162831514Y-117010592D01*
X162827910Y-117035099D01*
X162823121Y-117050765D01*
X162816913Y-117060494D01*
X162810510Y-117066509D01*
X162778828Y-117079518D01*
X162743142Y-117075957D01*
X162712084Y-117056182D01*
X162709161Y-117052931D01*
X162702810Y-117043951D01*
X162697957Y-117031847D01*
X162694403Y-117013841D01*
X162691946Y-116987153D01*
X162690385Y-116949003D01*
X162689518Y-116896614D01*
X162689146Y-116827206D01*
X162689067Y-116737999D01*
X162689083Y-116683266D01*
X162689275Y-116606169D01*
X162689860Y-116547223D01*
X162691051Y-116503636D01*
X162693064Y-116472617D01*
X162696112Y-116451375D01*
X162700409Y-116437118D01*
X162706172Y-116427055D01*
X162713612Y-116418394D01*
X162715293Y-116416609D01*
X162722832Y-116409365D01*
X162731850Y-116403723D01*
X162744984Y-116399483D01*
X162764872Y-116396444D01*
X162794151Y-116394406D01*
X162835458Y-116393170D01*
X162891431Y-116392535D01*
X162964707Y-116392300D01*
X163057923Y-116392266D01*
X163130713Y-116392303D01*
G37*
X162771915Y-124244772D02*
X162806481Y-124257636D01*
X162854826Y-124277395D01*
X162913825Y-124302619D01*
X162980355Y-124331881D01*
X163051291Y-124363750D01*
X163123507Y-124396799D01*
X163193880Y-124429599D01*
X163259285Y-124460720D01*
X163316597Y-124488735D01*
X163362692Y-124512214D01*
X163394446Y-124529728D01*
X163408733Y-124539849D01*
X163422102Y-124574257D01*
X163415741Y-124615954D01*
X163411044Y-124621319D01*
X163388893Y-124637148D01*
X163352132Y-124659350D01*
X163304415Y-124685767D01*
X163249393Y-124714240D01*
X163090150Y-124794014D01*
X163236742Y-124867201D01*
X163256032Y-124876897D01*
X163308380Y-124903875D01*
X163353170Y-124927904D01*
X163386154Y-124946668D01*
X163403089Y-124957854D01*
X163404332Y-124959000D01*
X163419619Y-124987121D01*
X163421302Y-125022183D01*
X163408733Y-125053224D01*
X163405884Y-125055650D01*
X163385259Y-125067910D01*
X163347708Y-125087648D01*
X163295880Y-125113552D01*
X163232423Y-125144315D01*
X163159985Y-125178625D01*
X163081216Y-125215175D01*
X163037093Y-125235415D01*
X162956365Y-125272188D01*
X162892687Y-125300645D01*
X162843752Y-125321669D01*
X162807257Y-125336146D01*
X162780895Y-125344961D01*
X162762361Y-125348996D01*
X162749352Y-125349138D01*
X162739561Y-125346270D01*
X162718678Y-125331613D01*
X162698377Y-125305010D01*
X162698035Y-125304255D01*
X162691034Y-125284665D01*
X162690504Y-125267210D01*
X162698478Y-125250298D01*
X162716989Y-125232337D01*
X162748071Y-125211737D01*
X162793756Y-125186905D01*
X162856078Y-125156250D01*
X162937071Y-125118180D01*
X162968454Y-125103546D01*
X163031638Y-125073797D01*
X163086244Y-125047703D01*
X163129290Y-125026708D01*
X163157793Y-125012261D01*
X163168770Y-125005809D01*
X163168189Y-125004450D01*
X163154242Y-124994458D01*
X163124704Y-124977167D01*
X163083087Y-124954570D01*
X163032903Y-124928662D01*
X163001414Y-124912689D01*
X162946061Y-124883739D01*
X162907044Y-124861251D01*
X162881566Y-124843035D01*
X162866831Y-124826904D01*
X162860042Y-124810670D01*
X162858400Y-124792143D01*
X162858875Y-124781640D01*
X162863082Y-124765524D01*
X162873946Y-124750210D01*
X162894219Y-124733612D01*
X162926654Y-124713643D01*
X162974004Y-124688217D01*
X163039022Y-124655248D01*
X163058277Y-124645515D01*
X163104946Y-124621057D01*
X163141109Y-124600822D01*
X163163497Y-124586689D01*
X163168845Y-124580540D01*
X163165573Y-124579173D01*
X163144664Y-124569798D01*
X163107725Y-124552938D01*
X163057874Y-124530021D01*
X162998226Y-124502480D01*
X162931898Y-124471745D01*
X162874677Y-124445030D01*
X162812688Y-124415407D01*
X162766949Y-124392336D01*
X162734908Y-124374357D01*
X162714014Y-124360010D01*
X162701718Y-124347834D01*
X162695466Y-124336368D01*
X162692574Y-124326958D01*
X162692425Y-124301853D01*
X162707768Y-124274710D01*
X162708753Y-124273410D01*
X162731388Y-124251326D01*
X162753613Y-124240277D01*
X162754253Y-124240231D01*
X162771915Y-124244772D01*
G36*
X162771915Y-124244772D02*
G01*
X162806481Y-124257636D01*
X162854826Y-124277395D01*
X162913825Y-124302619D01*
X162980355Y-124331881D01*
X163051291Y-124363750D01*
X163123507Y-124396799D01*
X163193880Y-124429599D01*
X163259285Y-124460720D01*
X163316597Y-124488735D01*
X163362692Y-124512214D01*
X163394446Y-124529728D01*
X163408733Y-124539849D01*
X163422102Y-124574257D01*
X163415741Y-124615954D01*
X163411044Y-124621319D01*
X163388893Y-124637148D01*
X163352132Y-124659350D01*
X163304415Y-124685767D01*
X163249393Y-124714240D01*
X163090150Y-124794014D01*
X163236742Y-124867201D01*
X163256032Y-124876897D01*
X163308380Y-124903875D01*
X163353170Y-124927904D01*
X163386154Y-124946668D01*
X163403089Y-124957854D01*
X163404332Y-124959000D01*
X163419619Y-124987121D01*
X163421302Y-125022183D01*
X163408733Y-125053224D01*
X163405884Y-125055650D01*
X163385259Y-125067910D01*
X163347708Y-125087648D01*
X163295880Y-125113552D01*
X163232423Y-125144315D01*
X163159985Y-125178625D01*
X163081216Y-125215175D01*
X163037093Y-125235415D01*
X162956365Y-125272188D01*
X162892687Y-125300645D01*
X162843752Y-125321669D01*
X162807257Y-125336146D01*
X162780895Y-125344961D01*
X162762361Y-125348996D01*
X162749352Y-125349138D01*
X162739561Y-125346270D01*
X162718678Y-125331613D01*
X162698377Y-125305010D01*
X162698035Y-125304255D01*
X162691034Y-125284665D01*
X162690504Y-125267210D01*
X162698478Y-125250298D01*
X162716989Y-125232337D01*
X162748071Y-125211737D01*
X162793756Y-125186905D01*
X162856078Y-125156250D01*
X162937071Y-125118180D01*
X162968454Y-125103546D01*
X163031638Y-125073797D01*
X163086244Y-125047703D01*
X163129290Y-125026708D01*
X163157793Y-125012261D01*
X163168770Y-125005809D01*
X163168189Y-125004450D01*
X163154242Y-124994458D01*
X163124704Y-124977167D01*
X163083087Y-124954570D01*
X163032903Y-124928662D01*
X163001414Y-124912689D01*
X162946061Y-124883739D01*
X162907044Y-124861251D01*
X162881566Y-124843035D01*
X162866831Y-124826904D01*
X162860042Y-124810670D01*
X162858400Y-124792143D01*
X162858875Y-124781640D01*
X162863082Y-124765524D01*
X162873946Y-124750210D01*
X162894219Y-124733612D01*
X162926654Y-124713643D01*
X162974004Y-124688217D01*
X163039022Y-124655248D01*
X163058277Y-124645515D01*
X163104946Y-124621057D01*
X163141109Y-124600822D01*
X163163497Y-124586689D01*
X163168845Y-124580540D01*
X163165573Y-124579173D01*
X163144664Y-124569798D01*
X163107725Y-124552938D01*
X163057874Y-124530021D01*
X162998226Y-124502480D01*
X162931898Y-124471745D01*
X162874677Y-124445030D01*
X162812688Y-124415407D01*
X162766949Y-124392336D01*
X162734908Y-124374357D01*
X162714014Y-124360010D01*
X162701718Y-124347834D01*
X162695466Y-124336368D01*
X162692574Y-124326958D01*
X162692425Y-124301853D01*
X162707768Y-124274710D01*
X162708753Y-124273410D01*
X162731388Y-124251326D01*
X162753613Y-124240277D01*
X162754253Y-124240231D01*
X162771915Y-124244772D01*
G37*
X162940232Y-117364048D02*
X162965029Y-117369840D01*
X162986699Y-117384647D01*
X163014049Y-117412620D01*
X163021378Y-117420598D01*
X163042281Y-117444308D01*
X163059251Y-117466702D01*
X163073205Y-117490735D01*
X163085056Y-117519363D01*
X163095720Y-117555540D01*
X163106111Y-117602220D01*
X163117146Y-117662359D01*
X163129738Y-117738910D01*
X163144804Y-117834829D01*
X163147838Y-117853192D01*
X163161458Y-117915522D01*
X163177192Y-117960740D01*
X163194263Y-117987024D01*
X163211897Y-117992553D01*
X163216168Y-117989932D01*
X163231233Y-117972000D01*
X163247867Y-117943874D01*
X163253857Y-117931074D01*
X163261050Y-117909776D01*
X163265827Y-117883390D01*
X163268646Y-117847546D01*
X163269964Y-117797872D01*
X163270237Y-117730000D01*
X163270164Y-117712215D01*
X163269053Y-117644594D01*
X163266828Y-117579655D01*
X163263762Y-117524030D01*
X163260127Y-117484349D01*
X163256059Y-117448838D01*
X163255276Y-117419585D01*
X163259876Y-117400685D01*
X163270551Y-117385571D01*
X163274144Y-117381915D01*
X163305918Y-117365573D01*
X163341572Y-117366893D01*
X163372190Y-117385850D01*
X163383796Y-117406220D01*
X163396491Y-117442204D01*
X163406541Y-117484628D01*
X163407140Y-117488078D01*
X163412356Y-117530748D01*
X163416730Y-117588134D01*
X163419818Y-117653151D01*
X163421177Y-117718711D01*
X163421218Y-117734943D01*
X163418741Y-117833256D01*
X163410735Y-117913308D01*
X163396203Y-117978487D01*
X163374149Y-118032183D01*
X163343576Y-118077784D01*
X163303486Y-118118677D01*
X163277259Y-118138798D01*
X163247712Y-118150424D01*
X163207995Y-118153333D01*
X163196026Y-118153192D01*
X163163345Y-118149319D01*
X163136819Y-118136935D01*
X163105971Y-118111770D01*
X163083831Y-118090558D01*
X163061285Y-118064162D01*
X163042917Y-118034445D01*
X163027661Y-117998215D01*
X163014449Y-117952283D01*
X163002214Y-117893456D01*
X162989889Y-117818544D01*
X162976406Y-117724355D01*
X162969396Y-117679043D01*
X162954837Y-117611089D01*
X162938337Y-117561953D01*
X162920439Y-117532386D01*
X162901685Y-117523136D01*
X162882615Y-117534952D01*
X162863771Y-117568584D01*
X162862557Y-117571630D01*
X162850479Y-117617989D01*
X162842279Y-117680639D01*
X162838119Y-117754073D01*
X162838161Y-117832783D01*
X162842569Y-117911261D01*
X162851505Y-117984000D01*
X162852154Y-117987927D01*
X162859861Y-118036743D01*
X162863473Y-118068995D01*
X162862876Y-118089992D01*
X162857954Y-118105046D01*
X162848596Y-118119466D01*
X162847725Y-118120636D01*
X162817351Y-118145153D01*
X162781850Y-118149946D01*
X162747269Y-118134140D01*
X162742813Y-118129594D01*
X162727673Y-118099980D01*
X162714550Y-118052998D01*
X162703750Y-117992694D01*
X162695581Y-117923112D01*
X162690351Y-117848297D01*
X162688367Y-117772294D01*
X162689936Y-117699147D01*
X162695366Y-117632900D01*
X162704964Y-117577600D01*
X162719825Y-117526717D01*
X162752958Y-117455405D01*
X162795640Y-117404248D01*
X162847705Y-117373425D01*
X162908983Y-117363111D01*
X162940232Y-117364048D01*
G36*
X162940232Y-117364048D02*
G01*
X162965029Y-117369840D01*
X162986699Y-117384647D01*
X163014049Y-117412620D01*
X163021378Y-117420598D01*
X163042281Y-117444308D01*
X163059251Y-117466702D01*
X163073205Y-117490735D01*
X163085056Y-117519363D01*
X163095720Y-117555540D01*
X163106111Y-117602220D01*
X163117146Y-117662359D01*
X163129738Y-117738910D01*
X163144804Y-117834829D01*
X163147838Y-117853192D01*
X163161458Y-117915522D01*
X163177192Y-117960740D01*
X163194263Y-117987024D01*
X163211897Y-117992553D01*
X163216168Y-117989932D01*
X163231233Y-117972000D01*
X163247867Y-117943874D01*
X163253857Y-117931074D01*
X163261050Y-117909776D01*
X163265827Y-117883390D01*
X163268646Y-117847546D01*
X163269964Y-117797872D01*
X163270237Y-117730000D01*
X163270164Y-117712215D01*
X163269053Y-117644594D01*
X163266828Y-117579655D01*
X163263762Y-117524030D01*
X163260127Y-117484349D01*
X163256059Y-117448838D01*
X163255276Y-117419585D01*
X163259876Y-117400685D01*
X163270551Y-117385571D01*
X163274144Y-117381915D01*
X163305918Y-117365573D01*
X163341572Y-117366893D01*
X163372190Y-117385850D01*
X163383796Y-117406220D01*
X163396491Y-117442204D01*
X163406541Y-117484628D01*
X163407140Y-117488078D01*
X163412356Y-117530748D01*
X163416730Y-117588134D01*
X163419818Y-117653151D01*
X163421177Y-117718711D01*
X163421218Y-117734943D01*
X163418741Y-117833256D01*
X163410735Y-117913308D01*
X163396203Y-117978487D01*
X163374149Y-118032183D01*
X163343576Y-118077784D01*
X163303486Y-118118677D01*
X163277259Y-118138798D01*
X163247712Y-118150424D01*
X163207995Y-118153333D01*
X163196026Y-118153192D01*
X163163345Y-118149319D01*
X163136819Y-118136935D01*
X163105971Y-118111770D01*
X163083831Y-118090558D01*
X163061285Y-118064162D01*
X163042917Y-118034445D01*
X163027661Y-117998215D01*
X163014449Y-117952283D01*
X163002214Y-117893456D01*
X162989889Y-117818544D01*
X162976406Y-117724355D01*
X162969396Y-117679043D01*
X162954837Y-117611089D01*
X162938337Y-117561953D01*
X162920439Y-117532386D01*
X162901685Y-117523136D01*
X162882615Y-117534952D01*
X162863771Y-117568584D01*
X162862557Y-117571630D01*
X162850479Y-117617989D01*
X162842279Y-117680639D01*
X162838119Y-117754073D01*
X162838161Y-117832783D01*
X162842569Y-117911261D01*
X162851505Y-117984000D01*
X162852154Y-117987927D01*
X162859861Y-118036743D01*
X162863473Y-118068995D01*
X162862876Y-118089992D01*
X162857954Y-118105046D01*
X162848596Y-118119466D01*
X162847725Y-118120636D01*
X162817351Y-118145153D01*
X162781850Y-118149946D01*
X162747269Y-118134140D01*
X162742813Y-118129594D01*
X162727673Y-118099980D01*
X162714550Y-118052998D01*
X162703750Y-117992694D01*
X162695581Y-117923112D01*
X162690351Y-117848297D01*
X162688367Y-117772294D01*
X162689936Y-117699147D01*
X162695366Y-117632900D01*
X162704964Y-117577600D01*
X162719825Y-117526717D01*
X162752958Y-117455405D01*
X162795640Y-117404248D01*
X162847705Y-117373425D01*
X162908983Y-117363111D01*
X162940232Y-117364048D01*
G37*
X160241325Y-120222449D02*
X160442581Y-120239209D01*
X160637128Y-120272708D01*
X160820756Y-120322956D01*
X160938053Y-120366810D01*
X161100951Y-120444652D01*
X161254866Y-120538172D01*
X161396671Y-120645178D01*
X161523239Y-120763481D01*
X161631441Y-120890889D01*
X161684120Y-120968394D01*
X161753750Y-121095275D01*
X161812468Y-121232757D01*
X161857587Y-121374284D01*
X161886422Y-121513298D01*
X161888106Y-121527403D01*
X161891434Y-121570847D01*
X161894275Y-121628277D01*
X161896373Y-121693878D01*
X161897468Y-121761833D01*
X161895140Y-121888622D01*
X161882136Y-122036327D01*
X161857133Y-122174221D01*
X161819318Y-122307986D01*
X161810889Y-122331438D01*
X161791408Y-122379388D01*
X161766473Y-122435860D01*
X161737722Y-122497621D01*
X161706790Y-122561437D01*
X161675315Y-122624074D01*
X161644934Y-122682297D01*
X161617283Y-122732873D01*
X161593999Y-122772567D01*
X161576718Y-122798146D01*
X161567079Y-122806375D01*
X161563984Y-122804924D01*
X161544079Y-122793750D01*
X161508420Y-122772866D01*
X161459459Y-122743735D01*
X161399646Y-122707819D01*
X161331433Y-122666580D01*
X161257271Y-122621483D01*
X160960008Y-122440215D01*
X161004539Y-122393685D01*
X161082865Y-122302277D01*
X161157439Y-122188666D01*
X161211474Y-122070878D01*
X161244290Y-121950441D01*
X161255211Y-121828883D01*
X161253868Y-121787415D01*
X161235612Y-121669920D01*
X161196617Y-121559911D01*
X161137670Y-121458570D01*
X161059557Y-121367079D01*
X160963064Y-121286620D01*
X160848978Y-121218373D01*
X160814724Y-121202092D01*
X160691240Y-121156018D01*
X160552918Y-121120894D01*
X160403561Y-121096803D01*
X160246973Y-121083827D01*
X160086956Y-121082051D01*
X159927314Y-121091557D01*
X159771850Y-121112428D01*
X159624366Y-121144748D01*
X159488667Y-121188601D01*
X159402076Y-121226018D01*
X159288688Y-121290815D01*
X159195070Y-121366228D01*
X159120959Y-121452582D01*
X159066094Y-121550205D01*
X159030212Y-121659423D01*
X159013051Y-121780561D01*
X159011880Y-121849962D01*
X159026141Y-121972832D01*
X159061241Y-122088336D01*
X159116682Y-122195047D01*
X159191964Y-122291536D01*
X159206440Y-122307280D01*
X159232962Y-122337850D01*
X159250138Y-122360191D01*
X159254787Y-122370309D01*
X159252597Y-122372294D01*
X159233721Y-122386759D01*
X159200397Y-122410600D01*
X159155380Y-122441971D01*
X159101425Y-122479026D01*
X159041285Y-122519917D01*
X158977718Y-122562798D01*
X158913476Y-122605822D01*
X158851315Y-122647143D01*
X158793991Y-122684914D01*
X158744257Y-122717288D01*
X158704868Y-122742418D01*
X158678580Y-122758458D01*
X158668147Y-122763561D01*
X158663941Y-122758950D01*
X158658933Y-122739733D01*
X158656386Y-122730162D01*
X158645249Y-122702191D01*
X158626802Y-122660552D01*
X158602725Y-122609005D01*
X158574699Y-122551310D01*
X158569154Y-122540043D01*
X158489889Y-122362313D01*
X158430385Y-122192510D01*
X158390245Y-122028570D01*
X158369071Y-121868429D01*
X158366466Y-121710023D01*
X158382033Y-121551289D01*
X158399523Y-121455732D01*
X158444564Y-121291442D01*
X158507656Y-121137411D01*
X158589915Y-120991491D01*
X158692457Y-120851534D01*
X158816399Y-120715392D01*
X158861661Y-120671527D01*
X158993865Y-120559242D01*
X159131832Y-120466028D01*
X159279750Y-120389281D01*
X159441803Y-120326397D01*
X159453391Y-120322580D01*
X159639392Y-120272493D01*
X159835521Y-120239101D01*
X160037568Y-120222416D01*
X160241325Y-120222449D01*
G36*
X160241325Y-120222449D02*
G01*
X160442581Y-120239209D01*
X160637128Y-120272708D01*
X160820756Y-120322956D01*
X160938053Y-120366810D01*
X161100951Y-120444652D01*
X161254866Y-120538172D01*
X161396671Y-120645178D01*
X161523239Y-120763481D01*
X161631441Y-120890889D01*
X161684120Y-120968394D01*
X161753750Y-121095275D01*
X161812468Y-121232757D01*
X161857587Y-121374284D01*
X161886422Y-121513298D01*
X161888106Y-121527403D01*
X161891434Y-121570847D01*
X161894275Y-121628277D01*
X161896373Y-121693878D01*
X161897468Y-121761833D01*
X161895140Y-121888622D01*
X161882136Y-122036327D01*
X161857133Y-122174221D01*
X161819318Y-122307986D01*
X161810889Y-122331438D01*
X161791408Y-122379388D01*
X161766473Y-122435860D01*
X161737722Y-122497621D01*
X161706790Y-122561437D01*
X161675315Y-122624074D01*
X161644934Y-122682297D01*
X161617283Y-122732873D01*
X161593999Y-122772567D01*
X161576718Y-122798146D01*
X161567079Y-122806375D01*
X161563984Y-122804924D01*
X161544079Y-122793750D01*
X161508420Y-122772866D01*
X161459459Y-122743735D01*
X161399646Y-122707819D01*
X161331433Y-122666580D01*
X161257271Y-122621483D01*
X160960008Y-122440215D01*
X161004539Y-122393685D01*
X161082865Y-122302277D01*
X161157439Y-122188666D01*
X161211474Y-122070878D01*
X161244290Y-121950441D01*
X161255211Y-121828883D01*
X161253868Y-121787415D01*
X161235612Y-121669920D01*
X161196617Y-121559911D01*
X161137670Y-121458570D01*
X161059557Y-121367079D01*
X160963064Y-121286620D01*
X160848978Y-121218373D01*
X160814724Y-121202092D01*
X160691240Y-121156018D01*
X160552918Y-121120894D01*
X160403561Y-121096803D01*
X160246973Y-121083827D01*
X160086956Y-121082051D01*
X159927314Y-121091557D01*
X159771850Y-121112428D01*
X159624366Y-121144748D01*
X159488667Y-121188601D01*
X159402076Y-121226018D01*
X159288688Y-121290815D01*
X159195070Y-121366228D01*
X159120959Y-121452582D01*
X159066094Y-121550205D01*
X159030212Y-121659423D01*
X159013051Y-121780561D01*
X159011880Y-121849962D01*
X159026141Y-121972832D01*
X159061241Y-122088336D01*
X159116682Y-122195047D01*
X159191964Y-122291536D01*
X159206440Y-122307280D01*
X159232962Y-122337850D01*
X159250138Y-122360191D01*
X159254787Y-122370309D01*
X159252597Y-122372294D01*
X159233721Y-122386759D01*
X159200397Y-122410600D01*
X159155380Y-122441971D01*
X159101425Y-122479026D01*
X159041285Y-122519917D01*
X158977718Y-122562798D01*
X158913476Y-122605822D01*
X158851315Y-122647143D01*
X158793991Y-122684914D01*
X158744257Y-122717288D01*
X158704868Y-122742418D01*
X158678580Y-122758458D01*
X158668147Y-122763561D01*
X158663941Y-122758950D01*
X158658933Y-122739733D01*
X158656386Y-122730162D01*
X158645249Y-122702191D01*
X158626802Y-122660552D01*
X158602725Y-122609005D01*
X158574699Y-122551310D01*
X158569154Y-122540043D01*
X158489889Y-122362313D01*
X158430385Y-122192510D01*
X158390245Y-122028570D01*
X158369071Y-121868429D01*
X158366466Y-121710023D01*
X158382033Y-121551289D01*
X158399523Y-121455732D01*
X158444564Y-121291442D01*
X158507656Y-121137411D01*
X158589915Y-120991491D01*
X158692457Y-120851534D01*
X158816399Y-120715392D01*
X158861661Y-120671527D01*
X158993865Y-120559242D01*
X159131832Y-120466028D01*
X159279750Y-120389281D01*
X159441803Y-120326397D01*
X159453391Y-120322580D01*
X159639392Y-120272493D01*
X159835521Y-120239101D01*
X160037568Y-120222416D01*
X160241325Y-120222449D01*
G37*
X160740158Y-125354732D02*
X160891594Y-125363311D01*
X161028283Y-125382167D01*
X161154276Y-125412163D01*
X161273625Y-125454164D01*
X161390381Y-125509031D01*
X161501179Y-125575833D01*
X161614739Y-125666637D01*
X161710211Y-125770292D01*
X161787073Y-125886113D01*
X161844797Y-126013414D01*
X161882858Y-126151511D01*
X161888666Y-126189207D01*
X161894396Y-126268248D01*
X161894583Y-126356371D01*
X161889539Y-126445764D01*
X161879578Y-126528616D01*
X161865012Y-126597113D01*
X161855364Y-126627965D01*
X161825123Y-126705270D01*
X161787617Y-126782321D01*
X161746614Y-126851800D01*
X161705879Y-126906385D01*
X161686505Y-126929084D01*
X161668662Y-126951799D01*
X161661778Y-126963221D01*
X161663424Y-126964463D01*
X161681205Y-126967272D01*
X161714370Y-126969224D01*
X161757733Y-126969955D01*
X161853689Y-126969955D01*
X161853689Y-127828104D01*
X161792974Y-127793839D01*
X161783868Y-127788645D01*
X161769249Y-127780285D01*
X161755173Y-127772712D01*
X161740540Y-127765888D01*
X161724249Y-127759773D01*
X161705198Y-127754327D01*
X161682286Y-127749513D01*
X161654413Y-127745292D01*
X161620478Y-127741623D01*
X161579379Y-127738469D01*
X161530015Y-127735789D01*
X161471286Y-127733546D01*
X161402090Y-127731701D01*
X161321326Y-127730213D01*
X161227894Y-127729045D01*
X161120692Y-127728156D01*
X160998620Y-127727509D01*
X160860576Y-127727064D01*
X160705459Y-127726782D01*
X160532168Y-127726625D01*
X160339603Y-127726552D01*
X160126662Y-127726526D01*
X159892245Y-127726507D01*
X158207378Y-127726311D01*
X158207378Y-126820983D01*
X158244067Y-126845415D01*
X158253647Y-126851682D01*
X158299981Y-126877792D01*
X158347102Y-126895531D01*
X158402251Y-126907092D01*
X158472667Y-126914669D01*
X158479650Y-126915161D01*
X158517641Y-126916938D01*
X158571576Y-126918556D01*
X158638703Y-126920001D01*
X158716271Y-126921260D01*
X158801528Y-126922320D01*
X158891724Y-126923171D01*
X158984107Y-126923797D01*
X159075925Y-126924188D01*
X159164427Y-126924330D01*
X159246862Y-126924210D01*
X159320479Y-126923817D01*
X159382526Y-126923138D01*
X159430251Y-126922159D01*
X159460904Y-126920868D01*
X159471733Y-126919253D01*
X159467333Y-126911043D01*
X159452362Y-126889353D01*
X159430448Y-126859986D01*
X159396236Y-126811121D01*
X159349714Y-126722875D01*
X159316046Y-126624084D01*
X159313231Y-126609557D01*
X159867465Y-126609557D01*
X159879389Y-126694681D01*
X159906040Y-126778867D01*
X159946962Y-126857392D01*
X159990530Y-126924800D01*
X161140721Y-126924800D01*
X161187089Y-126854244D01*
X161210791Y-126813583D01*
X161236639Y-126759454D01*
X161254829Y-126710311D01*
X161270551Y-126646835D01*
X161281541Y-126550669D01*
X161273365Y-126466100D01*
X161245805Y-126392781D01*
X161198642Y-126330363D01*
X161131658Y-126278498D01*
X161044633Y-126236840D01*
X160937350Y-126205038D01*
X160925009Y-126202455D01*
X160863772Y-126194000D01*
X160786692Y-126188337D01*
X160699002Y-126185424D01*
X160605934Y-126185217D01*
X160512720Y-126187670D01*
X160424594Y-126192739D01*
X160346788Y-126200381D01*
X160284533Y-126210552D01*
X160278666Y-126211833D01*
X160168121Y-126240874D01*
X160077575Y-126275390D01*
X160004953Y-126316544D01*
X159948181Y-126365501D01*
X159905184Y-126423426D01*
X159889615Y-126455380D01*
X159870722Y-126528216D01*
X159867465Y-126609557D01*
X159313231Y-126609557D01*
X159294231Y-126511490D01*
X159283265Y-126381836D01*
X159282219Y-126289330D01*
X159292014Y-126167989D01*
X159316174Y-126057901D01*
X159355785Y-125954611D01*
X159411932Y-125853662D01*
X159442883Y-125808497D01*
X159534115Y-125703089D01*
X159643106Y-125611462D01*
X159769726Y-125533668D01*
X159913845Y-125469759D01*
X160075332Y-125419786D01*
X160254059Y-125383802D01*
X160449895Y-125361857D01*
X160605934Y-125356100D01*
X160662711Y-125354006D01*
X160740158Y-125354732D01*
G36*
X160740158Y-125354732D02*
G01*
X160891594Y-125363311D01*
X161028283Y-125382167D01*
X161154276Y-125412163D01*
X161273625Y-125454164D01*
X161390381Y-125509031D01*
X161501179Y-125575833D01*
X161614739Y-125666637D01*
X161710211Y-125770292D01*
X161787073Y-125886113D01*
X161844797Y-126013414D01*
X161882858Y-126151511D01*
X161888666Y-126189207D01*
X161894396Y-126268248D01*
X161894583Y-126356371D01*
X161889539Y-126445764D01*
X161879578Y-126528616D01*
X161865012Y-126597113D01*
X161855364Y-126627965D01*
X161825123Y-126705270D01*
X161787617Y-126782321D01*
X161746614Y-126851800D01*
X161705879Y-126906385D01*
X161686505Y-126929084D01*
X161668662Y-126951799D01*
X161661778Y-126963221D01*
X161663424Y-126964463D01*
X161681205Y-126967272D01*
X161714370Y-126969224D01*
X161757733Y-126969955D01*
X161853689Y-126969955D01*
X161853689Y-127828104D01*
X161792974Y-127793839D01*
X161783868Y-127788645D01*
X161769249Y-127780285D01*
X161755173Y-127772712D01*
X161740540Y-127765888D01*
X161724249Y-127759773D01*
X161705198Y-127754327D01*
X161682286Y-127749513D01*
X161654413Y-127745292D01*
X161620478Y-127741623D01*
X161579379Y-127738469D01*
X161530015Y-127735789D01*
X161471286Y-127733546D01*
X161402090Y-127731701D01*
X161321326Y-127730213D01*
X161227894Y-127729045D01*
X161120692Y-127728156D01*
X160998620Y-127727509D01*
X160860576Y-127727064D01*
X160705459Y-127726782D01*
X160532168Y-127726625D01*
X160339603Y-127726552D01*
X160126662Y-127726526D01*
X159892245Y-127726507D01*
X158207378Y-127726311D01*
X158207378Y-126820983D01*
X158244067Y-126845415D01*
X158253647Y-126851682D01*
X158299981Y-126877792D01*
X158347102Y-126895531D01*
X158402251Y-126907092D01*
X158472667Y-126914669D01*
X158479650Y-126915161D01*
X158517641Y-126916938D01*
X158571576Y-126918556D01*
X158638703Y-126920001D01*
X158716271Y-126921260D01*
X158801528Y-126922320D01*
X158891724Y-126923171D01*
X158984107Y-126923797D01*
X159075925Y-126924188D01*
X159164427Y-126924330D01*
X159246862Y-126924210D01*
X159320479Y-126923817D01*
X159382526Y-126923138D01*
X159430251Y-126922159D01*
X159460904Y-126920868D01*
X159471733Y-126919253D01*
X159467333Y-126911043D01*
X159452362Y-126889353D01*
X159430448Y-126859986D01*
X159396236Y-126811121D01*
X159349714Y-126722875D01*
X159316046Y-126624084D01*
X159313231Y-126609557D01*
X159867465Y-126609557D01*
X159879389Y-126694681D01*
X159906040Y-126778867D01*
X159946962Y-126857392D01*
X159990530Y-126924800D01*
X161140721Y-126924800D01*
X161187089Y-126854244D01*
X161210791Y-126813583D01*
X161236639Y-126759454D01*
X161254829Y-126710311D01*
X161270551Y-126646835D01*
X161281541Y-126550669D01*
X161273365Y-126466100D01*
X161245805Y-126392781D01*
X161198642Y-126330363D01*
X161131658Y-126278498D01*
X161044633Y-126236840D01*
X160937350Y-126205038D01*
X160925009Y-126202455D01*
X160863772Y-126194000D01*
X160786692Y-126188337D01*
X160699002Y-126185424D01*
X160605934Y-126185217D01*
X160512720Y-126187670D01*
X160424594Y-126192739D01*
X160346788Y-126200381D01*
X160284533Y-126210552D01*
X160278666Y-126211833D01*
X160168121Y-126240874D01*
X160077575Y-126275390D01*
X160004953Y-126316544D01*
X159948181Y-126365501D01*
X159905184Y-126423426D01*
X159889615Y-126455380D01*
X159870722Y-126528216D01*
X159867465Y-126609557D01*
X159313231Y-126609557D01*
X159294231Y-126511490D01*
X159283265Y-126381836D01*
X159282219Y-126289330D01*
X159292014Y-126167989D01*
X159316174Y-126057901D01*
X159355785Y-125954611D01*
X159411932Y-125853662D01*
X159442883Y-125808497D01*
X159534115Y-125703089D01*
X159643106Y-125611462D01*
X159769726Y-125533668D01*
X159913845Y-125469759D01*
X160075332Y-125419786D01*
X160254059Y-125383802D01*
X160449895Y-125361857D01*
X160605934Y-125356100D01*
X160662711Y-125354006D01*
X160740158Y-125354732D01*
G37*
X161097363Y-122812739D02*
X161172202Y-122816368D01*
X161234401Y-122823978D01*
X161290984Y-122836312D01*
X161417076Y-122880687D01*
X161531679Y-122943600D01*
X161632568Y-123023762D01*
X161718924Y-123120260D01*
X161789932Y-123232178D01*
X161844776Y-123358603D01*
X161882638Y-123498622D01*
X161888351Y-123534851D01*
X161894313Y-123613845D01*
X161894646Y-123702159D01*
X161889659Y-123791925D01*
X161879666Y-123875278D01*
X161864978Y-123944349D01*
X161834749Y-124030813D01*
X161780057Y-124140714D01*
X161712543Y-124238044D01*
X161661556Y-124300133D01*
X161757622Y-124303395D01*
X161853689Y-124306657D01*
X161853689Y-124729550D01*
X161853686Y-124740457D01*
X161853380Y-124834944D01*
X161852616Y-124921669D01*
X161851451Y-124998163D01*
X161849942Y-125061957D01*
X161848147Y-125110582D01*
X161846121Y-125141567D01*
X161843922Y-125152444D01*
X161843463Y-125152422D01*
X161827910Y-125145386D01*
X161805071Y-125129566D01*
X161799638Y-125125266D01*
X161785606Y-125114223D01*
X161772186Y-125104689D01*
X161757722Y-125096539D01*
X161740556Y-125089648D01*
X161719034Y-125083889D01*
X161691498Y-125079138D01*
X161656292Y-125075269D01*
X161611760Y-125072156D01*
X161556246Y-125069675D01*
X161488093Y-125067700D01*
X161405645Y-125066106D01*
X161307246Y-125064766D01*
X161191239Y-125063556D01*
X161055968Y-125062351D01*
X160899778Y-125061025D01*
X160757012Y-125059772D01*
X160611942Y-125058349D01*
X160486027Y-125056824D01*
X160377436Y-125055067D01*
X160284334Y-125052949D01*
X160204891Y-125050340D01*
X160137273Y-125047110D01*
X160079649Y-125043131D01*
X160030185Y-125038272D01*
X159987050Y-125032403D01*
X159948410Y-125025396D01*
X159912434Y-125017120D01*
X159877289Y-125007446D01*
X159841142Y-124996244D01*
X159802161Y-124983384D01*
X159759091Y-124967910D01*
X159666871Y-124925006D01*
X159587099Y-124871265D01*
X159512965Y-124802424D01*
X159449405Y-124724815D01*
X159387725Y-124620239D01*
X159340202Y-124500756D01*
X159306567Y-124365492D01*
X159286552Y-124213574D01*
X159279889Y-124044128D01*
X159280287Y-123986110D01*
X159282335Y-123920602D01*
X159286704Y-123859307D01*
X159294035Y-123797903D01*
X159304969Y-123732068D01*
X159320147Y-123657480D01*
X159340209Y-123569816D01*
X159365797Y-123464755D01*
X159372820Y-123436194D01*
X159390776Y-123360946D01*
X159406820Y-123290612D01*
X159420028Y-123229433D01*
X159429474Y-123181646D01*
X159434231Y-123151489D01*
X159437910Y-123123217D01*
X159443187Y-123096940D01*
X159447942Y-123086941D01*
X159456781Y-123090048D01*
X159484072Y-123100806D01*
X159526906Y-123118136D01*
X159582425Y-123140874D01*
X159647772Y-123167853D01*
X159720089Y-123197910D01*
X159735879Y-123204507D01*
X159826484Y-123243093D01*
X159896217Y-123274232D01*
X159945405Y-123298083D01*
X159974374Y-123314802D01*
X159983452Y-123324546D01*
X159981405Y-123332234D01*
X159971760Y-123358585D01*
X159956190Y-123397018D01*
X159936815Y-123442178D01*
X159898814Y-123536707D01*
X159857780Y-123673520D01*
X159832612Y-123814711D01*
X159828611Y-123852686D01*
X159826447Y-123955941D01*
X159839622Y-124043048D01*
X159868756Y-124114871D01*
X159914466Y-124172269D01*
X159977372Y-124216104D01*
X160058092Y-124247238D01*
X160157245Y-124266530D01*
X160216224Y-124273950D01*
X160209445Y-124112064D01*
X160209110Y-124086106D01*
X160731842Y-124086106D01*
X160731857Y-124094993D01*
X160732655Y-124150340D01*
X160734488Y-124197264D01*
X160737111Y-124231047D01*
X160740274Y-124246972D01*
X160746741Y-124251057D01*
X160768875Y-124255428D01*
X160807988Y-124258396D01*
X160865939Y-124260086D01*
X160944586Y-124260622D01*
X161140462Y-124260622D01*
X161196973Y-124215952D01*
X161212212Y-124203215D01*
X161254844Y-124156396D01*
X161290672Y-124095745D01*
X161295850Y-124085103D01*
X161312745Y-124046324D01*
X161322909Y-124011308D01*
X161328325Y-123971278D01*
X161330978Y-123917459D01*
X161331383Y-123899352D01*
X161328540Y-123823989D01*
X161316620Y-123763257D01*
X161294037Y-123711548D01*
X161259211Y-123663254D01*
X161254798Y-123658197D01*
X161199160Y-123609728D01*
X161135333Y-123581541D01*
X161060282Y-123572248D01*
X160988693Y-123579480D01*
X160925645Y-123604204D01*
X160867758Y-123648751D01*
X160820808Y-123703681D01*
X160780961Y-123776106D01*
X160753263Y-123862660D01*
X160737096Y-123965330D01*
X160731842Y-124086106D01*
X160209110Y-124086106D01*
X160207813Y-123985505D01*
X160214194Y-123834049D01*
X160228777Y-123685604D01*
X160250882Y-123549422D01*
X160265821Y-123484755D01*
X160308741Y-123352510D01*
X160365340Y-123230238D01*
X160434017Y-123120315D01*
X160513170Y-123025117D01*
X160601196Y-122947020D01*
X160696493Y-122888401D01*
X160748864Y-122864405D01*
X160819590Y-122838768D01*
X160890812Y-122822522D01*
X160969712Y-122814178D01*
X161060282Y-122812310D01*
X161063467Y-122812245D01*
X161097363Y-122812739D01*
G36*
X161097363Y-122812739D02*
G01*
X161172202Y-122816368D01*
X161234401Y-122823978D01*
X161290984Y-122836312D01*
X161417076Y-122880687D01*
X161531679Y-122943600D01*
X161632568Y-123023762D01*
X161718924Y-123120260D01*
X161789932Y-123232178D01*
X161844776Y-123358603D01*
X161882638Y-123498622D01*
X161888351Y-123534851D01*
X161894313Y-123613845D01*
X161894646Y-123702159D01*
X161889659Y-123791925D01*
X161879666Y-123875278D01*
X161864978Y-123944349D01*
X161834749Y-124030813D01*
X161780057Y-124140714D01*
X161712543Y-124238044D01*
X161661556Y-124300133D01*
X161757622Y-124303395D01*
X161853689Y-124306657D01*
X161853689Y-124729550D01*
X161853686Y-124740457D01*
X161853380Y-124834944D01*
X161852616Y-124921669D01*
X161851451Y-124998163D01*
X161849942Y-125061957D01*
X161848147Y-125110582D01*
X161846121Y-125141567D01*
X161843922Y-125152444D01*
X161843463Y-125152422D01*
X161827910Y-125145386D01*
X161805071Y-125129566D01*
X161799638Y-125125266D01*
X161785606Y-125114223D01*
X161772186Y-125104689D01*
X161757722Y-125096539D01*
X161740556Y-125089648D01*
X161719034Y-125083889D01*
X161691498Y-125079138D01*
X161656292Y-125075269D01*
X161611760Y-125072156D01*
X161556246Y-125069675D01*
X161488093Y-125067700D01*
X161405645Y-125066106D01*
X161307246Y-125064766D01*
X161191239Y-125063556D01*
X161055968Y-125062351D01*
X160899778Y-125061025D01*
X160757012Y-125059772D01*
X160611942Y-125058349D01*
X160486027Y-125056824D01*
X160377436Y-125055067D01*
X160284334Y-125052949D01*
X160204891Y-125050340D01*
X160137273Y-125047110D01*
X160079649Y-125043131D01*
X160030185Y-125038272D01*
X159987050Y-125032403D01*
X159948410Y-125025396D01*
X159912434Y-125017120D01*
X159877289Y-125007446D01*
X159841142Y-124996244D01*
X159802161Y-124983384D01*
X159759091Y-124967910D01*
X159666871Y-124925006D01*
X159587099Y-124871265D01*
X159512965Y-124802424D01*
X159449405Y-124724815D01*
X159387725Y-124620239D01*
X159340202Y-124500756D01*
X159306567Y-124365492D01*
X159286552Y-124213574D01*
X159279889Y-124044128D01*
X159280287Y-123986110D01*
X159282335Y-123920602D01*
X159286704Y-123859307D01*
X159294035Y-123797903D01*
X159304969Y-123732068D01*
X159320147Y-123657480D01*
X159340209Y-123569816D01*
X159365797Y-123464755D01*
X159372820Y-123436194D01*
X159390776Y-123360946D01*
X159406820Y-123290612D01*
X159420028Y-123229433D01*
X159429474Y-123181646D01*
X159434231Y-123151489D01*
X159437910Y-123123217D01*
X159443187Y-123096940D01*
X159447942Y-123086941D01*
X159456781Y-123090048D01*
X159484072Y-123100806D01*
X159526906Y-123118136D01*
X159582425Y-123140874D01*
X159647772Y-123167853D01*
X159720089Y-123197910D01*
X159735879Y-123204507D01*
X159826484Y-123243093D01*
X159896217Y-123274232D01*
X159945405Y-123298083D01*
X159974374Y-123314802D01*
X159983452Y-123324546D01*
X159981405Y-123332234D01*
X159971760Y-123358585D01*
X159956190Y-123397018D01*
X159936815Y-123442178D01*
X159898814Y-123536707D01*
X159857780Y-123673520D01*
X159832612Y-123814711D01*
X159828611Y-123852686D01*
X159826447Y-123955941D01*
X159839622Y-124043048D01*
X159868756Y-124114871D01*
X159914466Y-124172269D01*
X159977372Y-124216104D01*
X160058092Y-124247238D01*
X160157245Y-124266530D01*
X160216224Y-124273950D01*
X160209445Y-124112064D01*
X160209110Y-124086106D01*
X160731842Y-124086106D01*
X160731857Y-124094993D01*
X160732655Y-124150340D01*
X160734488Y-124197264D01*
X160737111Y-124231047D01*
X160740274Y-124246972D01*
X160746741Y-124251057D01*
X160768875Y-124255428D01*
X160807988Y-124258396D01*
X160865939Y-124260086D01*
X160944586Y-124260622D01*
X161140462Y-124260622D01*
X161196973Y-124215952D01*
X161212212Y-124203215D01*
X161254844Y-124156396D01*
X161290672Y-124095745D01*
X161295850Y-124085103D01*
X161312745Y-124046324D01*
X161322909Y-124011308D01*
X161328325Y-123971278D01*
X161330978Y-123917459D01*
X161331383Y-123899352D01*
X161328540Y-123823989D01*
X161316620Y-123763257D01*
X161294037Y-123711548D01*
X161259211Y-123663254D01*
X161254798Y-123658197D01*
X161199160Y-123609728D01*
X161135333Y-123581541D01*
X161060282Y-123572248D01*
X160988693Y-123579480D01*
X160925645Y-123604204D01*
X160867758Y-123648751D01*
X160820808Y-123703681D01*
X160780961Y-123776106D01*
X160753263Y-123862660D01*
X160737096Y-123965330D01*
X160731842Y-124086106D01*
X160209110Y-124086106D01*
X160207813Y-123985505D01*
X160214194Y-123834049D01*
X160228777Y-123685604D01*
X160250882Y-123549422D01*
X160265821Y-123484755D01*
X160308741Y-123352510D01*
X160365340Y-123230238D01*
X160434017Y-123120315D01*
X160513170Y-123025117D01*
X160601196Y-122947020D01*
X160696493Y-122888401D01*
X160748864Y-122864405D01*
X160819590Y-122838768D01*
X160890812Y-122822522D01*
X160969712Y-122814178D01*
X161060282Y-122812310D01*
X161063467Y-122812245D01*
X161097363Y-122812739D01*
G37*
X161041295Y-115263313D02*
X161221535Y-115263407D01*
X161384015Y-115263605D01*
X161529670Y-115263937D01*
X161659434Y-115264431D01*
X161774243Y-115265117D01*
X161875030Y-115266024D01*
X161962730Y-115267183D01*
X162038279Y-115268622D01*
X162102611Y-115270371D01*
X162156661Y-115272460D01*
X162201363Y-115274917D01*
X162237652Y-115277773D01*
X162266463Y-115281057D01*
X162288731Y-115284798D01*
X162305390Y-115289026D01*
X162317375Y-115293771D01*
X162325621Y-115299061D01*
X162331062Y-115304927D01*
X162334634Y-115311398D01*
X162337270Y-115318503D01*
X162339906Y-115326272D01*
X162343477Y-115334734D01*
X162345145Y-115339092D01*
X162347111Y-115347605D01*
X162348911Y-115360306D01*
X162350555Y-115378115D01*
X162352047Y-115401951D01*
X162353397Y-115432734D01*
X162354611Y-115471383D01*
X162355697Y-115518818D01*
X162356661Y-115575957D01*
X162357511Y-115643721D01*
X162358253Y-115723029D01*
X162358897Y-115814801D01*
X162359447Y-115919956D01*
X162359913Y-116039413D01*
X162360300Y-116174092D01*
X162360616Y-116324912D01*
X162360869Y-116492794D01*
X162361066Y-116678655D01*
X162361213Y-116883417D01*
X162361318Y-117107998D01*
X162361389Y-117353318D01*
X162361432Y-117620296D01*
X162361437Y-117658679D01*
X162361480Y-117924078D01*
X162361525Y-118167950D01*
X162361548Y-118391217D01*
X162361524Y-118594804D01*
X162361430Y-118779633D01*
X162361243Y-118946627D01*
X162360939Y-119096710D01*
X162360494Y-119230804D01*
X162359885Y-119349834D01*
X162359089Y-119454721D01*
X162358080Y-119546390D01*
X162356837Y-119625763D01*
X162355335Y-119693763D01*
X162353551Y-119751314D01*
X162351461Y-119799338D01*
X162349042Y-119838760D01*
X162346270Y-119870501D01*
X162343121Y-119895486D01*
X162339572Y-119914636D01*
X162335598Y-119928877D01*
X162331178Y-119939129D01*
X162326286Y-119946318D01*
X162320900Y-119951365D01*
X162314996Y-119955195D01*
X162308549Y-119958729D01*
X162301537Y-119962892D01*
X162299687Y-119963975D01*
X162294180Y-119966187D01*
X162285868Y-119968214D01*
X162273809Y-119970062D01*
X162257063Y-119971739D01*
X162234687Y-119973255D01*
X162205740Y-119974617D01*
X162169280Y-119975833D01*
X162124367Y-119976911D01*
X162070057Y-119977860D01*
X162005410Y-119978688D01*
X161929484Y-119979403D01*
X161841338Y-119980013D01*
X161740029Y-119980526D01*
X161624617Y-119980950D01*
X161494160Y-119981294D01*
X161347716Y-119981566D01*
X161184344Y-119981773D01*
X161003101Y-119981924D01*
X160803048Y-119982028D01*
X160583241Y-119982092D01*
X160342739Y-119982124D01*
X160080602Y-119982133D01*
X157889031Y-119982133D01*
X157850649Y-119943751D01*
X157826911Y-119916645D01*
X157815111Y-119889747D01*
X157812267Y-119853440D01*
X157812267Y-119801511D01*
X157900206Y-119801511D01*
X157950102Y-119799573D01*
X158060523Y-119780801D01*
X158161987Y-119743783D01*
X158253152Y-119690631D01*
X158332673Y-119623454D01*
X158399205Y-119544362D01*
X158451406Y-119455466D01*
X158487930Y-119358875D01*
X158507434Y-119256700D01*
X158508561Y-119152147D01*
X159324978Y-119152147D01*
X159324978Y-119597805D01*
X160501845Y-119600880D01*
X161678711Y-119603955D01*
X161737622Y-119630593D01*
X161762183Y-119642515D01*
X161792434Y-119659754D01*
X161809560Y-119672926D01*
X161817591Y-119680924D01*
X161832493Y-119688622D01*
X161833765Y-119684740D01*
X161835791Y-119661480D01*
X161837626Y-119619126D01*
X161839227Y-119559868D01*
X161840549Y-119485893D01*
X161841548Y-119399390D01*
X161842180Y-119302548D01*
X161842400Y-119197555D01*
X161842349Y-119128644D01*
X161842091Y-119030393D01*
X161841637Y-118940970D01*
X161841010Y-118862667D01*
X161840235Y-118797777D01*
X161839335Y-118748589D01*
X161838334Y-118717396D01*
X161837257Y-118706489D01*
X161834037Y-118707678D01*
X161816452Y-118717824D01*
X161790158Y-118734960D01*
X161777691Y-118743460D01*
X161763622Y-118752671D01*
X161749351Y-118760767D01*
X161733479Y-118767815D01*
X161714609Y-118773883D01*
X161691341Y-118779039D01*
X161662278Y-118783349D01*
X161626021Y-118786881D01*
X161581170Y-118789703D01*
X161526328Y-118791882D01*
X161460097Y-118793486D01*
X161381077Y-118794581D01*
X161287871Y-118795235D01*
X161179079Y-118795516D01*
X161053303Y-118795491D01*
X160909145Y-118795228D01*
X160745207Y-118794794D01*
X160560089Y-118794255D01*
X160381232Y-118793721D01*
X160222374Y-118793195D01*
X160083316Y-118792650D01*
X159962665Y-118792055D01*
X159859028Y-118791381D01*
X159771011Y-118790597D01*
X159697223Y-118789674D01*
X159636269Y-118788581D01*
X159586757Y-118787288D01*
X159547293Y-118785765D01*
X159516484Y-118783981D01*
X159492938Y-118781908D01*
X159475260Y-118779514D01*
X159462059Y-118776770D01*
X159451940Y-118773644D01*
X159443511Y-118770108D01*
X159435375Y-118766209D01*
X159398544Y-118746562D01*
X159368391Y-118727775D01*
X159366908Y-118726728D01*
X159344659Y-118712398D01*
X159331702Y-118706489D01*
X159331249Y-118707496D01*
X159329803Y-118724695D01*
X159328480Y-118761344D01*
X159327316Y-118815038D01*
X159326347Y-118883370D01*
X159325611Y-118963936D01*
X159325142Y-119054330D01*
X159324978Y-119152147D01*
X158508561Y-119152147D01*
X158508573Y-119151050D01*
X158490005Y-119044036D01*
X158450384Y-118937768D01*
X158392516Y-118840781D01*
X158317684Y-118755707D01*
X158229615Y-118686985D01*
X158130616Y-118636082D01*
X158022993Y-118604465D01*
X157909054Y-118593600D01*
X157812267Y-118593600D01*
X157812267Y-116973247D01*
X157812280Y-116762103D01*
X157812313Y-116627686D01*
X158421867Y-116627686D01*
X158484966Y-116589689D01*
X158510005Y-116575007D01*
X158537586Y-116560469D01*
X158565700Y-116548373D01*
X158596551Y-116538468D01*
X158632344Y-116530506D01*
X158675283Y-116524239D01*
X158727574Y-116519418D01*
X158791419Y-116515794D01*
X158869025Y-116513119D01*
X158962594Y-116511143D01*
X159074333Y-116509618D01*
X159206445Y-116508296D01*
X159326434Y-116507387D01*
X159443063Y-116506980D01*
X159538531Y-116507233D01*
X159612556Y-116508143D01*
X159664855Y-116509707D01*
X159695149Y-116511921D01*
X159703156Y-116514780D01*
X159699858Y-116517839D01*
X159678408Y-116535994D01*
X159641889Y-116565725D01*
X159592442Y-116605361D01*
X159532207Y-116653229D01*
X159463327Y-116707657D01*
X159387943Y-116766973D01*
X159308196Y-116829505D01*
X159226228Y-116893579D01*
X159144180Y-116957525D01*
X159064194Y-117019669D01*
X158988411Y-117078339D01*
X158918973Y-117131863D01*
X158858021Y-117178570D01*
X158807696Y-117216786D01*
X158770140Y-117244839D01*
X158747495Y-117261057D01*
X158675212Y-117306365D01*
X158595463Y-117346339D01*
X158527188Y-117367870D01*
X158469844Y-117371173D01*
X158421867Y-117365884D01*
X158422117Y-118497644D01*
X158452722Y-118458133D01*
X158460089Y-118448752D01*
X158514438Y-118385817D01*
X158582259Y-118317003D01*
X158665516Y-118240404D01*
X158766178Y-118154112D01*
X158786847Y-118136948D01*
X158836409Y-118096167D01*
X158897326Y-118046412D01*
X158967898Y-117989045D01*
X159046424Y-117925431D01*
X159131204Y-117856931D01*
X159220537Y-117784910D01*
X159312722Y-117710730D01*
X159331702Y-117695483D01*
X159406060Y-117635754D01*
X159498848Y-117561347D01*
X159589388Y-117488869D01*
X159675978Y-117419686D01*
X159756918Y-117355159D01*
X159830506Y-117296653D01*
X159895044Y-117245530D01*
X159948829Y-117203153D01*
X159990162Y-117170885D01*
X160017342Y-117150090D01*
X160028668Y-117142131D01*
X160032771Y-117143889D01*
X160053334Y-117156770D01*
X160089561Y-117181115D01*
X160139824Y-117215753D01*
X160202492Y-117259514D01*
X160275936Y-117311225D01*
X160358527Y-117369716D01*
X160448636Y-117433816D01*
X160544631Y-117502354D01*
X160644885Y-117574157D01*
X160747768Y-117648056D01*
X160851650Y-117722879D01*
X160954901Y-117797455D01*
X161055892Y-117870613D01*
X161152994Y-117941181D01*
X161244577Y-118007989D01*
X161329011Y-118069865D01*
X161404667Y-118125639D01*
X161469916Y-118174138D01*
X161523128Y-118214193D01*
X161562673Y-118244631D01*
X161588026Y-118265056D01*
X161642295Y-118311101D01*
X161698775Y-118361388D01*
X161748669Y-118408185D01*
X161842400Y-118499349D01*
X161842400Y-117344910D01*
X161766200Y-117345544D01*
X161724160Y-117344426D01*
X161688334Y-117338696D01*
X161650772Y-117326110D01*
X161602577Y-117304432D01*
X161595897Y-117301211D01*
X161546359Y-117275812D01*
X161498369Y-117249004D01*
X161461466Y-117226083D01*
X161454834Y-117221515D01*
X161423593Y-117199484D01*
X161378654Y-117167307D01*
X161322147Y-117126543D01*
X161256204Y-117078755D01*
X161182957Y-117025502D01*
X161104536Y-116968345D01*
X161023072Y-116908845D01*
X160940698Y-116848563D01*
X160859544Y-116789060D01*
X160781742Y-116731895D01*
X160709423Y-116678630D01*
X160644718Y-116630826D01*
X160589759Y-116590043D01*
X160546676Y-116557842D01*
X160517602Y-116535784D01*
X160504667Y-116525429D01*
X160500351Y-116520956D01*
X160498312Y-116516764D01*
X160500926Y-116513357D01*
X160509986Y-116510675D01*
X160527285Y-116508659D01*
X160554614Y-116507252D01*
X160593765Y-116506395D01*
X160646533Y-116506030D01*
X160714707Y-116506097D01*
X160800082Y-116506540D01*
X160904449Y-116507298D01*
X161029600Y-116508315D01*
X161074300Y-116508692D01*
X161195395Y-116509831D01*
X161296688Y-116511028D01*
X161380262Y-116512364D01*
X161448204Y-116513923D01*
X161502599Y-116515785D01*
X161545532Y-116518034D01*
X161579089Y-116520752D01*
X161605355Y-116524021D01*
X161626416Y-116527922D01*
X161644357Y-116532539D01*
X161670770Y-116540808D01*
X161732772Y-116564417D01*
X161785573Y-116590315D01*
X161822645Y-116615465D01*
X161824075Y-116616661D01*
X161828424Y-116618832D01*
X161832026Y-116616672D01*
X161834951Y-116608356D01*
X161837269Y-116592060D01*
X161839051Y-116565959D01*
X161840367Y-116528229D01*
X161841286Y-116477044D01*
X161841878Y-116410580D01*
X161842215Y-116327013D01*
X161842365Y-116224517D01*
X161842400Y-116101268D01*
X161842400Y-115569704D01*
X161784783Y-115608477D01*
X161775893Y-115614568D01*
X161761069Y-115625024D01*
X161747422Y-115634421D01*
X161733765Y-115642817D01*
X161718911Y-115650267D01*
X161701670Y-115656827D01*
X161680855Y-115662554D01*
X161655280Y-115667505D01*
X161623755Y-115671734D01*
X161585093Y-115675299D01*
X161538107Y-115678256D01*
X161481608Y-115680660D01*
X161414409Y-115682569D01*
X161335322Y-115684038D01*
X161243160Y-115685124D01*
X161136734Y-115685882D01*
X161014857Y-115686370D01*
X160876341Y-115686642D01*
X160719999Y-115686757D01*
X160544642Y-115686769D01*
X160349082Y-115686735D01*
X160132133Y-115686711D01*
X160009513Y-115686720D01*
X159804447Y-115686757D01*
X159620116Y-115686773D01*
X159455334Y-115686712D01*
X159308916Y-115686516D01*
X159179674Y-115686130D01*
X159066422Y-115685495D01*
X158967975Y-115684556D01*
X158883144Y-115683255D01*
X158810744Y-115681536D01*
X158749589Y-115679341D01*
X158698492Y-115676615D01*
X158656267Y-115673299D01*
X158621727Y-115669338D01*
X158593686Y-115664675D01*
X158570958Y-115659253D01*
X158552356Y-115653014D01*
X158536693Y-115645903D01*
X158522784Y-115637862D01*
X158509441Y-115628834D01*
X158495479Y-115618764D01*
X158479711Y-115607593D01*
X158421867Y-115567803D01*
X158421867Y-116627686D01*
X157812313Y-116627686D01*
X157812330Y-116557980D01*
X157812430Y-116374314D01*
X157812592Y-116210009D01*
X157812829Y-116063971D01*
X157813153Y-115935106D01*
X157813575Y-115822317D01*
X157814109Y-115724512D01*
X157814767Y-115640596D01*
X157815561Y-115569473D01*
X157816504Y-115510050D01*
X157817608Y-115461232D01*
X157818884Y-115421923D01*
X157820347Y-115391031D01*
X157822007Y-115367459D01*
X157823878Y-115350114D01*
X157825972Y-115337901D01*
X157828300Y-115329725D01*
X157830876Y-115324492D01*
X157834445Y-115318496D01*
X157837978Y-115311721D01*
X157841488Y-115305522D01*
X157845918Y-115299874D01*
X157852208Y-115294753D01*
X157861301Y-115290131D01*
X157874139Y-115285985D01*
X157891662Y-115282287D01*
X157914813Y-115279013D01*
X157944534Y-115276137D01*
X157981765Y-115273633D01*
X158027449Y-115271476D01*
X158082527Y-115269640D01*
X158147941Y-115268100D01*
X158224633Y-115266830D01*
X158313544Y-115265805D01*
X158415617Y-115264999D01*
X158421867Y-115264966D01*
X158531792Y-115264386D01*
X158663011Y-115263941D01*
X158810216Y-115263638D01*
X158974349Y-115263452D01*
X159156352Y-115263358D01*
X159357165Y-115263329D01*
X159577732Y-115263339D01*
X159818992Y-115263364D01*
X160081889Y-115263378D01*
X160124040Y-115263378D01*
X160384668Y-115263354D01*
X160623796Y-115263315D01*
X160842360Y-115263292D01*
X161041295Y-115263313D01*
G36*
X161041295Y-115263313D02*
G01*
X161221535Y-115263407D01*
X161384015Y-115263605D01*
X161529670Y-115263937D01*
X161659434Y-115264431D01*
X161774243Y-115265117D01*
X161875030Y-115266024D01*
X161962730Y-115267183D01*
X162038279Y-115268622D01*
X162102611Y-115270371D01*
X162156661Y-115272460D01*
X162201363Y-115274917D01*
X162237652Y-115277773D01*
X162266463Y-115281057D01*
X162288731Y-115284798D01*
X162305390Y-115289026D01*
X162317375Y-115293771D01*
X162325621Y-115299061D01*
X162331062Y-115304927D01*
X162334634Y-115311398D01*
X162337270Y-115318503D01*
X162339906Y-115326272D01*
X162343477Y-115334734D01*
X162345145Y-115339092D01*
X162347111Y-115347605D01*
X162348911Y-115360306D01*
X162350555Y-115378115D01*
X162352047Y-115401951D01*
X162353397Y-115432734D01*
X162354611Y-115471383D01*
X162355697Y-115518818D01*
X162356661Y-115575957D01*
X162357511Y-115643721D01*
X162358253Y-115723029D01*
X162358897Y-115814801D01*
X162359447Y-115919956D01*
X162359913Y-116039413D01*
X162360300Y-116174092D01*
X162360616Y-116324912D01*
X162360869Y-116492794D01*
X162361066Y-116678655D01*
X162361213Y-116883417D01*
X162361318Y-117107998D01*
X162361389Y-117353318D01*
X162361432Y-117620296D01*
X162361437Y-117658679D01*
X162361480Y-117924078D01*
X162361525Y-118167950D01*
X162361548Y-118391217D01*
X162361524Y-118594804D01*
X162361430Y-118779633D01*
X162361243Y-118946627D01*
X162360939Y-119096710D01*
X162360494Y-119230804D01*
X162359885Y-119349834D01*
X162359089Y-119454721D01*
X162358080Y-119546390D01*
X162356837Y-119625763D01*
X162355335Y-119693763D01*
X162353551Y-119751314D01*
X162351461Y-119799338D01*
X162349042Y-119838760D01*
X162346270Y-119870501D01*
X162343121Y-119895486D01*
X162339572Y-119914636D01*
X162335598Y-119928877D01*
X162331178Y-119939129D01*
X162326286Y-119946318D01*
X162320900Y-119951365D01*
X162314996Y-119955195D01*
X162308549Y-119958729D01*
X162301537Y-119962892D01*
X162299687Y-119963975D01*
X162294180Y-119966187D01*
X162285868Y-119968214D01*
X162273809Y-119970062D01*
X162257063Y-119971739D01*
X162234687Y-119973255D01*
X162205740Y-119974617D01*
X162169280Y-119975833D01*
X162124367Y-119976911D01*
X162070057Y-119977860D01*
X162005410Y-119978688D01*
X161929484Y-119979403D01*
X161841338Y-119980013D01*
X161740029Y-119980526D01*
X161624617Y-119980950D01*
X161494160Y-119981294D01*
X161347716Y-119981566D01*
X161184344Y-119981773D01*
X161003101Y-119981924D01*
X160803048Y-119982028D01*
X160583241Y-119982092D01*
X160342739Y-119982124D01*
X160080602Y-119982133D01*
X157889031Y-119982133D01*
X157850649Y-119943751D01*
X157826911Y-119916645D01*
X157815111Y-119889747D01*
X157812267Y-119853440D01*
X157812267Y-119801511D01*
X157900206Y-119801511D01*
X157950102Y-119799573D01*
X158060523Y-119780801D01*
X158161987Y-119743783D01*
X158253152Y-119690631D01*
X158332673Y-119623454D01*
X158399205Y-119544362D01*
X158451406Y-119455466D01*
X158487930Y-119358875D01*
X158507434Y-119256700D01*
X158508561Y-119152147D01*
X159324978Y-119152147D01*
X159324978Y-119597805D01*
X160501845Y-119600880D01*
X161678711Y-119603955D01*
X161737622Y-119630593D01*
X161762183Y-119642515D01*
X161792434Y-119659754D01*
X161809560Y-119672926D01*
X161817591Y-119680924D01*
X161832493Y-119688622D01*
X161833765Y-119684740D01*
X161835791Y-119661480D01*
X161837626Y-119619126D01*
X161839227Y-119559868D01*
X161840549Y-119485893D01*
X161841548Y-119399390D01*
X161842180Y-119302548D01*
X161842400Y-119197555D01*
X161842349Y-119128644D01*
X161842091Y-119030393D01*
X161841637Y-118940970D01*
X161841010Y-118862667D01*
X161840235Y-118797777D01*
X161839335Y-118748589D01*
X161838334Y-118717396D01*
X161837257Y-118706489D01*
X161834037Y-118707678D01*
X161816452Y-118717824D01*
X161790158Y-118734960D01*
X161777691Y-118743460D01*
X161763622Y-118752671D01*
X161749351Y-118760767D01*
X161733479Y-118767815D01*
X161714609Y-118773883D01*
X161691341Y-118779039D01*
X161662278Y-118783349D01*
X161626021Y-118786881D01*
X161581170Y-118789703D01*
X161526328Y-118791882D01*
X161460097Y-118793486D01*
X161381077Y-118794581D01*
X161287871Y-118795235D01*
X161179079Y-118795516D01*
X161053303Y-118795491D01*
X160909145Y-118795228D01*
X160745207Y-118794794D01*
X160560089Y-118794255D01*
X160381232Y-118793721D01*
X160222374Y-118793195D01*
X160083316Y-118792650D01*
X159962665Y-118792055D01*
X159859028Y-118791381D01*
X159771011Y-118790597D01*
X159697223Y-118789674D01*
X159636269Y-118788581D01*
X159586757Y-118787288D01*
X159547293Y-118785765D01*
X159516484Y-118783981D01*
X159492938Y-118781908D01*
X159475260Y-118779514D01*
X159462059Y-118776770D01*
X159451940Y-118773644D01*
X159443511Y-118770108D01*
X159435375Y-118766209D01*
X159398544Y-118746562D01*
X159368391Y-118727775D01*
X159366908Y-118726728D01*
X159344659Y-118712398D01*
X159331702Y-118706489D01*
X159331249Y-118707496D01*
X159329803Y-118724695D01*
X159328480Y-118761344D01*
X159327316Y-118815038D01*
X159326347Y-118883370D01*
X159325611Y-118963936D01*
X159325142Y-119054330D01*
X159324978Y-119152147D01*
X158508561Y-119152147D01*
X158508573Y-119151050D01*
X158490005Y-119044036D01*
X158450384Y-118937768D01*
X158392516Y-118840781D01*
X158317684Y-118755707D01*
X158229615Y-118686985D01*
X158130616Y-118636082D01*
X158022993Y-118604465D01*
X157909054Y-118593600D01*
X157812267Y-118593600D01*
X157812267Y-116973247D01*
X157812280Y-116762103D01*
X157812313Y-116627686D01*
X158421867Y-116627686D01*
X158484966Y-116589689D01*
X158510005Y-116575007D01*
X158537586Y-116560469D01*
X158565700Y-116548373D01*
X158596551Y-116538468D01*
X158632344Y-116530506D01*
X158675283Y-116524239D01*
X158727574Y-116519418D01*
X158791419Y-116515794D01*
X158869025Y-116513119D01*
X158962594Y-116511143D01*
X159074333Y-116509618D01*
X159206445Y-116508296D01*
X159326434Y-116507387D01*
X159443063Y-116506980D01*
X159538531Y-116507233D01*
X159612556Y-116508143D01*
X159664855Y-116509707D01*
X159695149Y-116511921D01*
X159703156Y-116514780D01*
X159699858Y-116517839D01*
X159678408Y-116535994D01*
X159641889Y-116565725D01*
X159592442Y-116605361D01*
X159532207Y-116653229D01*
X159463327Y-116707657D01*
X159387943Y-116766973D01*
X159308196Y-116829505D01*
X159226228Y-116893579D01*
X159144180Y-116957525D01*
X159064194Y-117019669D01*
X158988411Y-117078339D01*
X158918973Y-117131863D01*
X158858021Y-117178570D01*
X158807696Y-117216786D01*
X158770140Y-117244839D01*
X158747495Y-117261057D01*
X158675212Y-117306365D01*
X158595463Y-117346339D01*
X158527188Y-117367870D01*
X158469844Y-117371173D01*
X158421867Y-117365884D01*
X158422117Y-118497644D01*
X158452722Y-118458133D01*
X158460089Y-118448752D01*
X158514438Y-118385817D01*
X158582259Y-118317003D01*
X158665516Y-118240404D01*
X158766178Y-118154112D01*
X158786847Y-118136948D01*
X158836409Y-118096167D01*
X158897326Y-118046412D01*
X158967898Y-117989045D01*
X159046424Y-117925431D01*
X159131204Y-117856931D01*
X159220537Y-117784910D01*
X159312722Y-117710730D01*
X159331702Y-117695483D01*
X159406060Y-117635754D01*
X159498848Y-117561347D01*
X159589388Y-117488869D01*
X159675978Y-117419686D01*
X159756918Y-117355159D01*
X159830506Y-117296653D01*
X159895044Y-117245530D01*
X159948829Y-117203153D01*
X159990162Y-117170885D01*
X160017342Y-117150090D01*
X160028668Y-117142131D01*
X160032771Y-117143889D01*
X160053334Y-117156770D01*
X160089561Y-117181115D01*
X160139824Y-117215753D01*
X160202492Y-117259514D01*
X160275936Y-117311225D01*
X160358527Y-117369716D01*
X160448636Y-117433816D01*
X160544631Y-117502354D01*
X160644885Y-117574157D01*
X160747768Y-117648056D01*
X160851650Y-117722879D01*
X160954901Y-117797455D01*
X161055892Y-117870613D01*
X161152994Y-117941181D01*
X161244577Y-118007989D01*
X161329011Y-118069865D01*
X161404667Y-118125639D01*
X161469916Y-118174138D01*
X161523128Y-118214193D01*
X161562673Y-118244631D01*
X161588026Y-118265056D01*
X161642295Y-118311101D01*
X161698775Y-118361388D01*
X161748669Y-118408185D01*
X161842400Y-118499349D01*
X161842400Y-117344910D01*
X161766200Y-117345544D01*
X161724160Y-117344426D01*
X161688334Y-117338696D01*
X161650772Y-117326110D01*
X161602577Y-117304432D01*
X161595897Y-117301211D01*
X161546359Y-117275812D01*
X161498369Y-117249004D01*
X161461466Y-117226083D01*
X161454834Y-117221515D01*
X161423593Y-117199484D01*
X161378654Y-117167307D01*
X161322147Y-117126543D01*
X161256204Y-117078755D01*
X161182957Y-117025502D01*
X161104536Y-116968345D01*
X161023072Y-116908845D01*
X160940698Y-116848563D01*
X160859544Y-116789060D01*
X160781742Y-116731895D01*
X160709423Y-116678630D01*
X160644718Y-116630826D01*
X160589759Y-116590043D01*
X160546676Y-116557842D01*
X160517602Y-116535784D01*
X160504667Y-116525429D01*
X160500351Y-116520956D01*
X160498312Y-116516764D01*
X160500926Y-116513357D01*
X160509986Y-116510675D01*
X160527285Y-116508659D01*
X160554614Y-116507252D01*
X160593765Y-116506395D01*
X160646533Y-116506030D01*
X160714707Y-116506097D01*
X160800082Y-116506540D01*
X160904449Y-116507298D01*
X161029600Y-116508315D01*
X161074300Y-116508692D01*
X161195395Y-116509831D01*
X161296688Y-116511028D01*
X161380262Y-116512364D01*
X161448204Y-116513923D01*
X161502599Y-116515785D01*
X161545532Y-116518034D01*
X161579089Y-116520752D01*
X161605355Y-116524021D01*
X161626416Y-116527922D01*
X161644357Y-116532539D01*
X161670770Y-116540808D01*
X161732772Y-116564417D01*
X161785573Y-116590315D01*
X161822645Y-116615465D01*
X161824075Y-116616661D01*
X161828424Y-116618832D01*
X161832026Y-116616672D01*
X161834951Y-116608356D01*
X161837269Y-116592060D01*
X161839051Y-116565959D01*
X161840367Y-116528229D01*
X161841286Y-116477044D01*
X161841878Y-116410580D01*
X161842215Y-116327013D01*
X161842365Y-116224517D01*
X161842400Y-116101268D01*
X161842400Y-115569704D01*
X161784783Y-115608477D01*
X161775893Y-115614568D01*
X161761069Y-115625024D01*
X161747422Y-115634421D01*
X161733765Y-115642817D01*
X161718911Y-115650267D01*
X161701670Y-115656827D01*
X161680855Y-115662554D01*
X161655280Y-115667505D01*
X161623755Y-115671734D01*
X161585093Y-115675299D01*
X161538107Y-115678256D01*
X161481608Y-115680660D01*
X161414409Y-115682569D01*
X161335322Y-115684038D01*
X161243160Y-115685124D01*
X161136734Y-115685882D01*
X161014857Y-115686370D01*
X160876341Y-115686642D01*
X160719999Y-115686757D01*
X160544642Y-115686769D01*
X160349082Y-115686735D01*
X160132133Y-115686711D01*
X160009513Y-115686720D01*
X159804447Y-115686757D01*
X159620116Y-115686773D01*
X159455334Y-115686712D01*
X159308916Y-115686516D01*
X159179674Y-115686130D01*
X159066422Y-115685495D01*
X158967975Y-115684556D01*
X158883144Y-115683255D01*
X158810744Y-115681536D01*
X158749589Y-115679341D01*
X158698492Y-115676615D01*
X158656267Y-115673299D01*
X158621727Y-115669338D01*
X158593686Y-115664675D01*
X158570958Y-115659253D01*
X158552356Y-115653014D01*
X158536693Y-115645903D01*
X158522784Y-115637862D01*
X158509441Y-115628834D01*
X158495479Y-115618764D01*
X158479711Y-115607593D01*
X158421867Y-115567803D01*
X158421867Y-116627686D01*
X157812313Y-116627686D01*
X157812330Y-116557980D01*
X157812430Y-116374314D01*
X157812592Y-116210009D01*
X157812829Y-116063971D01*
X157813153Y-115935106D01*
X157813575Y-115822317D01*
X157814109Y-115724512D01*
X157814767Y-115640596D01*
X157815561Y-115569473D01*
X157816504Y-115510050D01*
X157817608Y-115461232D01*
X157818884Y-115421923D01*
X157820347Y-115391031D01*
X157822007Y-115367459D01*
X157823878Y-115350114D01*
X157825972Y-115337901D01*
X157828300Y-115329725D01*
X157830876Y-115324492D01*
X157834445Y-115318496D01*
X157837978Y-115311721D01*
X157841488Y-115305522D01*
X157845918Y-115299874D01*
X157852208Y-115294753D01*
X157861301Y-115290131D01*
X157874139Y-115285985D01*
X157891662Y-115282287D01*
X157914813Y-115279013D01*
X157944534Y-115276137D01*
X157981765Y-115273633D01*
X158027449Y-115271476D01*
X158082527Y-115269640D01*
X158147941Y-115268100D01*
X158224633Y-115266830D01*
X158313544Y-115265805D01*
X158415617Y-115264999D01*
X158421867Y-115264966D01*
X158531792Y-115264386D01*
X158663011Y-115263941D01*
X158810216Y-115263638D01*
X158974349Y-115263452D01*
X159156352Y-115263358D01*
X159357165Y-115263329D01*
X159577732Y-115263339D01*
X159818992Y-115263364D01*
X160081889Y-115263378D01*
X160124040Y-115263378D01*
X160384668Y-115263354D01*
X160623796Y-115263315D01*
X160842360Y-115263292D01*
X161041295Y-115263313D01*
G37*
%TD*%
M02*
