%TF.GenerationSoftware,KiCad,Pcbnew,9.0.4*%
%TF.CreationDate,2025-10-15T15:11:25+01:00*%
%TF.ProjectId,breadboardPowerSupply,62726561-6462-46f6-9172-64506f776572,rev?*%
%TF.SameCoordinates,Original*%
%TF.FileFunction,Legend,Top*%
%TF.FilePolarity,Positive*%
%FSLAX46Y46*%
G04 Gerber Fmt 4.6, Leading zero omitted, Abs format (unit mm)*
G04 Created by KiCad (PCBNEW 9.0.4) date 2025-10-15 15:11:25*
%MOMM*%
%LPD*%
G01*
G04 APERTURE LIST*
%ADD10C,0.100000*%
%ADD11C,0.150000*%
%ADD12C,0.120000*%
G04 APERTURE END LIST*
D10*
X161494360Y-99172419D02*
X161684836Y-99172419D01*
X161684836Y-99172419D02*
X161780074Y-99220038D01*
X161780074Y-99220038D02*
X161875312Y-99315276D01*
X161875312Y-99315276D02*
X161922931Y-99505752D01*
X161922931Y-99505752D02*
X161922931Y-99839085D01*
X161922931Y-99839085D02*
X161875312Y-100029561D01*
X161875312Y-100029561D02*
X161780074Y-100124800D01*
X161780074Y-100124800D02*
X161684836Y-100172419D01*
X161684836Y-100172419D02*
X161494360Y-100172419D01*
X161494360Y-100172419D02*
X161399122Y-100124800D01*
X161399122Y-100124800D02*
X161303884Y-100029561D01*
X161303884Y-100029561D02*
X161256265Y-99839085D01*
X161256265Y-99839085D02*
X161256265Y-99505752D01*
X161256265Y-99505752D02*
X161303884Y-99315276D01*
X161303884Y-99315276D02*
X161399122Y-99220038D01*
X161399122Y-99220038D02*
X161494360Y-99172419D01*
X162351503Y-100172419D02*
X162351503Y-99172419D01*
X162351503Y-99172419D02*
X162922931Y-100172419D01*
X162922931Y-100172419D02*
X162922931Y-99172419D01*
X156294360Y-99272419D02*
X156484836Y-99272419D01*
X156484836Y-99272419D02*
X156580074Y-99320038D01*
X156580074Y-99320038D02*
X156675312Y-99415276D01*
X156675312Y-99415276D02*
X156722931Y-99605752D01*
X156722931Y-99605752D02*
X156722931Y-99939085D01*
X156722931Y-99939085D02*
X156675312Y-100129561D01*
X156675312Y-100129561D02*
X156580074Y-100224800D01*
X156580074Y-100224800D02*
X156484836Y-100272419D01*
X156484836Y-100272419D02*
X156294360Y-100272419D01*
X156294360Y-100272419D02*
X156199122Y-100224800D01*
X156199122Y-100224800D02*
X156103884Y-100129561D01*
X156103884Y-100129561D02*
X156056265Y-99939085D01*
X156056265Y-99939085D02*
X156056265Y-99605752D01*
X156056265Y-99605752D02*
X156103884Y-99415276D01*
X156103884Y-99415276D02*
X156199122Y-99320038D01*
X156199122Y-99320038D02*
X156294360Y-99272419D01*
X157484836Y-99748609D02*
X157151503Y-99748609D01*
X157151503Y-100272419D02*
X157151503Y-99272419D01*
X157151503Y-99272419D02*
X157627693Y-99272419D01*
X158341979Y-99748609D02*
X158008646Y-99748609D01*
X158008646Y-100272419D02*
X158008646Y-99272419D01*
X158008646Y-99272419D02*
X158484836Y-99272419D01*
X159203884Y-115891466D02*
X159965789Y-115891466D01*
X159303884Y-107691466D02*
X160065789Y-107691466D01*
X159684836Y-108072419D02*
X159684836Y-107310514D01*
X144308646Y-132072419D02*
X144927693Y-132072419D01*
X144927693Y-132072419D02*
X144594360Y-132453371D01*
X144594360Y-132453371D02*
X144737217Y-132453371D01*
X144737217Y-132453371D02*
X144832455Y-132500990D01*
X144832455Y-132500990D02*
X144880074Y-132548609D01*
X144880074Y-132548609D02*
X144927693Y-132643847D01*
X144927693Y-132643847D02*
X144927693Y-132881942D01*
X144927693Y-132881942D02*
X144880074Y-132977180D01*
X144880074Y-132977180D02*
X144832455Y-133024800D01*
X144832455Y-133024800D02*
X144737217Y-133072419D01*
X144737217Y-133072419D02*
X144451503Y-133072419D01*
X144451503Y-133072419D02*
X144356265Y-133024800D01*
X144356265Y-133024800D02*
X144308646Y-132977180D01*
X145356265Y-132977180D02*
X145403884Y-133024800D01*
X145403884Y-133024800D02*
X145356265Y-133072419D01*
X145356265Y-133072419D02*
X145308646Y-133024800D01*
X145308646Y-133024800D02*
X145356265Y-132977180D01*
X145356265Y-132977180D02*
X145356265Y-133072419D01*
X145737217Y-132072419D02*
X146356264Y-132072419D01*
X146356264Y-132072419D02*
X146022931Y-132453371D01*
X146022931Y-132453371D02*
X146165788Y-132453371D01*
X146165788Y-132453371D02*
X146261026Y-132500990D01*
X146261026Y-132500990D02*
X146308645Y-132548609D01*
X146308645Y-132548609D02*
X146356264Y-132643847D01*
X146356264Y-132643847D02*
X146356264Y-132881942D01*
X146356264Y-132881942D02*
X146308645Y-132977180D01*
X146308645Y-132977180D02*
X146261026Y-133024800D01*
X146261026Y-133024800D02*
X146165788Y-133072419D01*
X146165788Y-133072419D02*
X145880074Y-133072419D01*
X145880074Y-133072419D02*
X145784836Y-133024800D01*
X145784836Y-133024800D02*
X145737217Y-132977180D01*
X146641979Y-132072419D02*
X146975312Y-133072419D01*
X146975312Y-133072419D02*
X147308645Y-132072419D01*
X144108646Y-86172419D02*
X144727693Y-86172419D01*
X144727693Y-86172419D02*
X144394360Y-86553371D01*
X144394360Y-86553371D02*
X144537217Y-86553371D01*
X144537217Y-86553371D02*
X144632455Y-86600990D01*
X144632455Y-86600990D02*
X144680074Y-86648609D01*
X144680074Y-86648609D02*
X144727693Y-86743847D01*
X144727693Y-86743847D02*
X144727693Y-86981942D01*
X144727693Y-86981942D02*
X144680074Y-87077180D01*
X144680074Y-87077180D02*
X144632455Y-87124800D01*
X144632455Y-87124800D02*
X144537217Y-87172419D01*
X144537217Y-87172419D02*
X144251503Y-87172419D01*
X144251503Y-87172419D02*
X144156265Y-87124800D01*
X144156265Y-87124800D02*
X144108646Y-87077180D01*
X145156265Y-87077180D02*
X145203884Y-87124800D01*
X145203884Y-87124800D02*
X145156265Y-87172419D01*
X145156265Y-87172419D02*
X145108646Y-87124800D01*
X145108646Y-87124800D02*
X145156265Y-87077180D01*
X145156265Y-87077180D02*
X145156265Y-87172419D01*
X145537217Y-86172419D02*
X146156264Y-86172419D01*
X146156264Y-86172419D02*
X145822931Y-86553371D01*
X145822931Y-86553371D02*
X145965788Y-86553371D01*
X145965788Y-86553371D02*
X146061026Y-86600990D01*
X146061026Y-86600990D02*
X146108645Y-86648609D01*
X146108645Y-86648609D02*
X146156264Y-86743847D01*
X146156264Y-86743847D02*
X146156264Y-86981942D01*
X146156264Y-86981942D02*
X146108645Y-87077180D01*
X146108645Y-87077180D02*
X146061026Y-87124800D01*
X146061026Y-87124800D02*
X145965788Y-87172419D01*
X145965788Y-87172419D02*
X145680074Y-87172419D01*
X145680074Y-87172419D02*
X145584836Y-87124800D01*
X145584836Y-87124800D02*
X145537217Y-87077180D01*
X146441979Y-86172419D02*
X146775312Y-87172419D01*
X146775312Y-87172419D02*
X147108645Y-86172419D01*
X150780074Y-86072419D02*
X150303884Y-86072419D01*
X150303884Y-86072419D02*
X150256265Y-86548609D01*
X150256265Y-86548609D02*
X150303884Y-86500990D01*
X150303884Y-86500990D02*
X150399122Y-86453371D01*
X150399122Y-86453371D02*
X150637217Y-86453371D01*
X150637217Y-86453371D02*
X150732455Y-86500990D01*
X150732455Y-86500990D02*
X150780074Y-86548609D01*
X150780074Y-86548609D02*
X150827693Y-86643847D01*
X150827693Y-86643847D02*
X150827693Y-86881942D01*
X150827693Y-86881942D02*
X150780074Y-86977180D01*
X150780074Y-86977180D02*
X150732455Y-87024800D01*
X150732455Y-87024800D02*
X150637217Y-87072419D01*
X150637217Y-87072419D02*
X150399122Y-87072419D01*
X150399122Y-87072419D02*
X150303884Y-87024800D01*
X150303884Y-87024800D02*
X150256265Y-86977180D01*
X151113408Y-86072419D02*
X151446741Y-87072419D01*
X151446741Y-87072419D02*
X151780074Y-86072419D01*
X151380074Y-131972419D02*
X150903884Y-131972419D01*
X150903884Y-131972419D02*
X150856265Y-132448609D01*
X150856265Y-132448609D02*
X150903884Y-132400990D01*
X150903884Y-132400990D02*
X150999122Y-132353371D01*
X150999122Y-132353371D02*
X151237217Y-132353371D01*
X151237217Y-132353371D02*
X151332455Y-132400990D01*
X151332455Y-132400990D02*
X151380074Y-132448609D01*
X151380074Y-132448609D02*
X151427693Y-132543847D01*
X151427693Y-132543847D02*
X151427693Y-132781942D01*
X151427693Y-132781942D02*
X151380074Y-132877180D01*
X151380074Y-132877180D02*
X151332455Y-132924800D01*
X151332455Y-132924800D02*
X151237217Y-132972419D01*
X151237217Y-132972419D02*
X150999122Y-132972419D01*
X150999122Y-132972419D02*
X150903884Y-132924800D01*
X150903884Y-132924800D02*
X150856265Y-132877180D01*
X151713408Y-131972419D02*
X152046741Y-132972419D01*
X152046741Y-132972419D02*
X152380074Y-131972419D01*
X156727693Y-127820038D02*
X156632455Y-127772419D01*
X156632455Y-127772419D02*
X156489598Y-127772419D01*
X156489598Y-127772419D02*
X156346741Y-127820038D01*
X156346741Y-127820038D02*
X156251503Y-127915276D01*
X156251503Y-127915276D02*
X156203884Y-128010514D01*
X156203884Y-128010514D02*
X156156265Y-128200990D01*
X156156265Y-128200990D02*
X156156265Y-128343847D01*
X156156265Y-128343847D02*
X156203884Y-128534323D01*
X156203884Y-128534323D02*
X156251503Y-128629561D01*
X156251503Y-128629561D02*
X156346741Y-128724800D01*
X156346741Y-128724800D02*
X156489598Y-128772419D01*
X156489598Y-128772419D02*
X156584836Y-128772419D01*
X156584836Y-128772419D02*
X156727693Y-128724800D01*
X156727693Y-128724800D02*
X156775312Y-128677180D01*
X156775312Y-128677180D02*
X156775312Y-128343847D01*
X156775312Y-128343847D02*
X156584836Y-128343847D01*
X157203884Y-128772419D02*
X157203884Y-127772419D01*
X157203884Y-127772419D02*
X157775312Y-128772419D01*
X157775312Y-128772419D02*
X157775312Y-127772419D01*
X158251503Y-128772419D02*
X158251503Y-127772419D01*
X158251503Y-127772419D02*
X158489598Y-127772419D01*
X158489598Y-127772419D02*
X158632455Y-127820038D01*
X158632455Y-127820038D02*
X158727693Y-127915276D01*
X158727693Y-127915276D02*
X158775312Y-128010514D01*
X158775312Y-128010514D02*
X158822931Y-128200990D01*
X158822931Y-128200990D02*
X158822931Y-128343847D01*
X158822931Y-128343847D02*
X158775312Y-128534323D01*
X158775312Y-128534323D02*
X158727693Y-128629561D01*
X158727693Y-128629561D02*
X158632455Y-128724800D01*
X158632455Y-128724800D02*
X158489598Y-128772419D01*
X158489598Y-128772419D02*
X158251503Y-128772419D01*
X166820038Y-133672306D02*
X166772419Y-133767544D01*
X166772419Y-133767544D02*
X166772419Y-133910401D01*
X166772419Y-133910401D02*
X166820038Y-134053258D01*
X166820038Y-134053258D02*
X166915276Y-134148496D01*
X166915276Y-134148496D02*
X167010514Y-134196115D01*
X167010514Y-134196115D02*
X167200990Y-134243734D01*
X167200990Y-134243734D02*
X167343847Y-134243734D01*
X167343847Y-134243734D02*
X167534323Y-134196115D01*
X167534323Y-134196115D02*
X167629561Y-134148496D01*
X167629561Y-134148496D02*
X167724800Y-134053258D01*
X167724800Y-134053258D02*
X167772419Y-133910401D01*
X167772419Y-133910401D02*
X167772419Y-133815163D01*
X167772419Y-133815163D02*
X167724800Y-133672306D01*
X167724800Y-133672306D02*
X167677180Y-133624687D01*
X167677180Y-133624687D02*
X167343847Y-133624687D01*
X167343847Y-133624687D02*
X167343847Y-133815163D01*
X167772419Y-133196115D02*
X166772419Y-133196115D01*
X166772419Y-133196115D02*
X167772419Y-132624687D01*
X167772419Y-132624687D02*
X166772419Y-132624687D01*
X167772419Y-132148496D02*
X166772419Y-132148496D01*
X166772419Y-132148496D02*
X166772419Y-131910401D01*
X166772419Y-131910401D02*
X166820038Y-131767544D01*
X166820038Y-131767544D02*
X166915276Y-131672306D01*
X166915276Y-131672306D02*
X167010514Y-131624687D01*
X167010514Y-131624687D02*
X167200990Y-131577068D01*
X167200990Y-131577068D02*
X167343847Y-131577068D01*
X167343847Y-131577068D02*
X167534323Y-131624687D01*
X167534323Y-131624687D02*
X167629561Y-131672306D01*
X167629561Y-131672306D02*
X167724800Y-131767544D01*
X167724800Y-131767544D02*
X167772419Y-131910401D01*
X167772419Y-131910401D02*
X167772419Y-132148496D01*
X166920038Y-87772306D02*
X166872419Y-87867544D01*
X166872419Y-87867544D02*
X166872419Y-88010401D01*
X166872419Y-88010401D02*
X166920038Y-88153258D01*
X166920038Y-88153258D02*
X167015276Y-88248496D01*
X167015276Y-88248496D02*
X167110514Y-88296115D01*
X167110514Y-88296115D02*
X167300990Y-88343734D01*
X167300990Y-88343734D02*
X167443847Y-88343734D01*
X167443847Y-88343734D02*
X167634323Y-88296115D01*
X167634323Y-88296115D02*
X167729561Y-88248496D01*
X167729561Y-88248496D02*
X167824800Y-88153258D01*
X167824800Y-88153258D02*
X167872419Y-88010401D01*
X167872419Y-88010401D02*
X167872419Y-87915163D01*
X167872419Y-87915163D02*
X167824800Y-87772306D01*
X167824800Y-87772306D02*
X167777180Y-87724687D01*
X167777180Y-87724687D02*
X167443847Y-87724687D01*
X167443847Y-87724687D02*
X167443847Y-87915163D01*
X167872419Y-87296115D02*
X166872419Y-87296115D01*
X166872419Y-87296115D02*
X167872419Y-86724687D01*
X167872419Y-86724687D02*
X166872419Y-86724687D01*
X167872419Y-86248496D02*
X166872419Y-86248496D01*
X166872419Y-86248496D02*
X166872419Y-86010401D01*
X166872419Y-86010401D02*
X166920038Y-85867544D01*
X166920038Y-85867544D02*
X167015276Y-85772306D01*
X167015276Y-85772306D02*
X167110514Y-85724687D01*
X167110514Y-85724687D02*
X167300990Y-85677068D01*
X167300990Y-85677068D02*
X167443847Y-85677068D01*
X167443847Y-85677068D02*
X167634323Y-85724687D01*
X167634323Y-85724687D02*
X167729561Y-85772306D01*
X167729561Y-85772306D02*
X167824800Y-85867544D01*
X167824800Y-85867544D02*
X167872419Y-86010401D01*
X167872419Y-86010401D02*
X167872419Y-86248496D01*
X156827693Y-94720038D02*
X156732455Y-94672419D01*
X156732455Y-94672419D02*
X156589598Y-94672419D01*
X156589598Y-94672419D02*
X156446741Y-94720038D01*
X156446741Y-94720038D02*
X156351503Y-94815276D01*
X156351503Y-94815276D02*
X156303884Y-94910514D01*
X156303884Y-94910514D02*
X156256265Y-95100990D01*
X156256265Y-95100990D02*
X156256265Y-95243847D01*
X156256265Y-95243847D02*
X156303884Y-95434323D01*
X156303884Y-95434323D02*
X156351503Y-95529561D01*
X156351503Y-95529561D02*
X156446741Y-95624800D01*
X156446741Y-95624800D02*
X156589598Y-95672419D01*
X156589598Y-95672419D02*
X156684836Y-95672419D01*
X156684836Y-95672419D02*
X156827693Y-95624800D01*
X156827693Y-95624800D02*
X156875312Y-95577180D01*
X156875312Y-95577180D02*
X156875312Y-95243847D01*
X156875312Y-95243847D02*
X156684836Y-95243847D01*
X157303884Y-95672419D02*
X157303884Y-94672419D01*
X157303884Y-94672419D02*
X157875312Y-95672419D01*
X157875312Y-95672419D02*
X157875312Y-94672419D01*
X158351503Y-95672419D02*
X158351503Y-94672419D01*
X158351503Y-94672419D02*
X158589598Y-94672419D01*
X158589598Y-94672419D02*
X158732455Y-94720038D01*
X158732455Y-94720038D02*
X158827693Y-94815276D01*
X158827693Y-94815276D02*
X158875312Y-94910514D01*
X158875312Y-94910514D02*
X158922931Y-95100990D01*
X158922931Y-95100990D02*
X158922931Y-95243847D01*
X158922931Y-95243847D02*
X158875312Y-95434323D01*
X158875312Y-95434323D02*
X158827693Y-95529561D01*
X158827693Y-95529561D02*
X158732455Y-95624800D01*
X158732455Y-95624800D02*
X158589598Y-95672419D01*
X158589598Y-95672419D02*
X158351503Y-95672419D01*
D11*
X154366666Y-105462295D02*
X154366666Y-106033723D01*
X154366666Y-106033723D02*
X154333333Y-106148009D01*
X154333333Y-106148009D02*
X154266666Y-106224200D01*
X154266666Y-106224200D02*
X154166666Y-106262295D01*
X154166666Y-106262295D02*
X154100000Y-106262295D01*
X154999999Y-105462295D02*
X154866666Y-105462295D01*
X154866666Y-105462295D02*
X154799999Y-105500390D01*
X154799999Y-105500390D02*
X154766666Y-105538485D01*
X154766666Y-105538485D02*
X154699999Y-105652771D01*
X154699999Y-105652771D02*
X154666666Y-105805152D01*
X154666666Y-105805152D02*
X154666666Y-106109914D01*
X154666666Y-106109914D02*
X154699999Y-106186104D01*
X154699999Y-106186104D02*
X154733333Y-106224200D01*
X154733333Y-106224200D02*
X154799999Y-106262295D01*
X154799999Y-106262295D02*
X154933333Y-106262295D01*
X154933333Y-106262295D02*
X154999999Y-106224200D01*
X154999999Y-106224200D02*
X155033333Y-106186104D01*
X155033333Y-106186104D02*
X155066666Y-106109914D01*
X155066666Y-106109914D02*
X155066666Y-105919438D01*
X155066666Y-105919438D02*
X155033333Y-105843247D01*
X155033333Y-105843247D02*
X154999999Y-105805152D01*
X154999999Y-105805152D02*
X154933333Y-105767057D01*
X154933333Y-105767057D02*
X154799999Y-105767057D01*
X154799999Y-105767057D02*
X154733333Y-105805152D01*
X154733333Y-105805152D02*
X154699999Y-105843247D01*
X154699999Y-105843247D02*
X154666666Y-105919438D01*
X144133335Y-105725747D02*
X144233335Y-105763842D01*
X144233335Y-105763842D02*
X144266668Y-105801938D01*
X144266668Y-105801938D02*
X144300001Y-105878128D01*
X144300001Y-105878128D02*
X144300001Y-105992414D01*
X144300001Y-105992414D02*
X144266668Y-106068604D01*
X144266668Y-106068604D02*
X144233335Y-106106700D01*
X144233335Y-106106700D02*
X144166668Y-106144795D01*
X144166668Y-106144795D02*
X143900001Y-106144795D01*
X143900001Y-106144795D02*
X143900001Y-105344795D01*
X143900001Y-105344795D02*
X144133335Y-105344795D01*
X144133335Y-105344795D02*
X144200001Y-105382890D01*
X144200001Y-105382890D02*
X144233335Y-105420985D01*
X144233335Y-105420985D02*
X144266668Y-105497176D01*
X144266668Y-105497176D02*
X144266668Y-105573366D01*
X144266668Y-105573366D02*
X144233335Y-105649557D01*
X144233335Y-105649557D02*
X144200001Y-105687652D01*
X144200001Y-105687652D02*
X144133335Y-105725747D01*
X144133335Y-105725747D02*
X143900001Y-105725747D01*
X144900001Y-106144795D02*
X144900001Y-105725747D01*
X144900001Y-105725747D02*
X144866668Y-105649557D01*
X144866668Y-105649557D02*
X144800001Y-105611461D01*
X144800001Y-105611461D02*
X144666668Y-105611461D01*
X144666668Y-105611461D02*
X144600001Y-105649557D01*
X144900001Y-106106700D02*
X144833335Y-106144795D01*
X144833335Y-106144795D02*
X144666668Y-106144795D01*
X144666668Y-106144795D02*
X144600001Y-106106700D01*
X144600001Y-106106700D02*
X144566668Y-106030509D01*
X144566668Y-106030509D02*
X144566668Y-105954319D01*
X144566668Y-105954319D02*
X144600001Y-105878128D01*
X144600001Y-105878128D02*
X144666668Y-105840033D01*
X144666668Y-105840033D02*
X144833335Y-105840033D01*
X144833335Y-105840033D02*
X144900001Y-105801938D01*
X145233334Y-106144795D02*
X145233334Y-105611461D01*
X145233334Y-105763842D02*
X145266668Y-105687652D01*
X145266668Y-105687652D02*
X145300001Y-105649557D01*
X145300001Y-105649557D02*
X145366668Y-105611461D01*
X145366668Y-105611461D02*
X145433334Y-105611461D01*
X145666667Y-106144795D02*
X145666667Y-105611461D01*
X145666667Y-105763842D02*
X145700001Y-105687652D01*
X145700001Y-105687652D02*
X145733334Y-105649557D01*
X145733334Y-105649557D02*
X145800001Y-105611461D01*
X145800001Y-105611461D02*
X145866667Y-105611461D01*
X146366667Y-106106700D02*
X146300000Y-106144795D01*
X146300000Y-106144795D02*
X146166667Y-106144795D01*
X146166667Y-106144795D02*
X146100000Y-106106700D01*
X146100000Y-106106700D02*
X146066667Y-106030509D01*
X146066667Y-106030509D02*
X146066667Y-105725747D01*
X146066667Y-105725747D02*
X146100000Y-105649557D01*
X146100000Y-105649557D02*
X146166667Y-105611461D01*
X146166667Y-105611461D02*
X146300000Y-105611461D01*
X146300000Y-105611461D02*
X146366667Y-105649557D01*
X146366667Y-105649557D02*
X146400000Y-105725747D01*
X146400000Y-105725747D02*
X146400000Y-105801938D01*
X146400000Y-105801938D02*
X146066667Y-105878128D01*
X146800000Y-106144795D02*
X146733334Y-106106700D01*
X146733334Y-106106700D02*
X146700000Y-106030509D01*
X146700000Y-106030509D02*
X146700000Y-105344795D01*
X146900001Y-106220985D02*
X147433334Y-106220985D01*
X147800000Y-105344795D02*
X147800000Y-105916223D01*
X147800000Y-105916223D02*
X147766667Y-106030509D01*
X147766667Y-106030509D02*
X147700000Y-106106700D01*
X147700000Y-106106700D02*
X147600000Y-106144795D01*
X147600000Y-106144795D02*
X147533334Y-106144795D01*
X148433333Y-106144795D02*
X148433333Y-105725747D01*
X148433333Y-105725747D02*
X148400000Y-105649557D01*
X148400000Y-105649557D02*
X148333333Y-105611461D01*
X148333333Y-105611461D02*
X148200000Y-105611461D01*
X148200000Y-105611461D02*
X148133333Y-105649557D01*
X148433333Y-106106700D02*
X148366667Y-106144795D01*
X148366667Y-106144795D02*
X148200000Y-106144795D01*
X148200000Y-106144795D02*
X148133333Y-106106700D01*
X148133333Y-106106700D02*
X148100000Y-106030509D01*
X148100000Y-106030509D02*
X148100000Y-105954319D01*
X148100000Y-105954319D02*
X148133333Y-105878128D01*
X148133333Y-105878128D02*
X148200000Y-105840033D01*
X148200000Y-105840033D02*
X148366667Y-105840033D01*
X148366667Y-105840033D02*
X148433333Y-105801938D01*
X149066666Y-106106700D02*
X149000000Y-106144795D01*
X149000000Y-106144795D02*
X148866666Y-106144795D01*
X148866666Y-106144795D02*
X148800000Y-106106700D01*
X148800000Y-106106700D02*
X148766666Y-106068604D01*
X148766666Y-106068604D02*
X148733333Y-105992414D01*
X148733333Y-105992414D02*
X148733333Y-105763842D01*
X148733333Y-105763842D02*
X148766666Y-105687652D01*
X148766666Y-105687652D02*
X148800000Y-105649557D01*
X148800000Y-105649557D02*
X148866666Y-105611461D01*
X148866666Y-105611461D02*
X149000000Y-105611461D01*
X149000000Y-105611461D02*
X149066666Y-105649557D01*
X149366666Y-106144795D02*
X149366666Y-105344795D01*
X149433333Y-105840033D02*
X149633333Y-106144795D01*
X149633333Y-105611461D02*
X149366666Y-105916223D01*
X149766667Y-106220985D02*
X150300000Y-106220985D01*
X150433333Y-106106700D02*
X150533333Y-106144795D01*
X150533333Y-106144795D02*
X150700000Y-106144795D01*
X150700000Y-106144795D02*
X150766666Y-106106700D01*
X150766666Y-106106700D02*
X150800000Y-106068604D01*
X150800000Y-106068604D02*
X150833333Y-105992414D01*
X150833333Y-105992414D02*
X150833333Y-105916223D01*
X150833333Y-105916223D02*
X150800000Y-105840033D01*
X150800000Y-105840033D02*
X150766666Y-105801938D01*
X150766666Y-105801938D02*
X150700000Y-105763842D01*
X150700000Y-105763842D02*
X150566666Y-105725747D01*
X150566666Y-105725747D02*
X150500000Y-105687652D01*
X150500000Y-105687652D02*
X150466666Y-105649557D01*
X150466666Y-105649557D02*
X150433333Y-105573366D01*
X150433333Y-105573366D02*
X150433333Y-105497176D01*
X150433333Y-105497176D02*
X150466666Y-105420985D01*
X150466666Y-105420985D02*
X150500000Y-105382890D01*
X150500000Y-105382890D02*
X150566666Y-105344795D01*
X150566666Y-105344795D02*
X150733333Y-105344795D01*
X150733333Y-105344795D02*
X150833333Y-105382890D01*
X151066667Y-105611461D02*
X151200000Y-106144795D01*
X151200000Y-106144795D02*
X151333333Y-105763842D01*
X151333333Y-105763842D02*
X151466667Y-106144795D01*
X151466667Y-106144795D02*
X151600000Y-105611461D01*
X151866666Y-106144795D02*
X151866666Y-105611461D01*
X151866666Y-105344795D02*
X151833333Y-105382890D01*
X151833333Y-105382890D02*
X151866666Y-105420985D01*
X151866666Y-105420985D02*
X151900000Y-105382890D01*
X151900000Y-105382890D02*
X151866666Y-105344795D01*
X151866666Y-105344795D02*
X151866666Y-105420985D01*
X152099999Y-105611461D02*
X152366666Y-105611461D01*
X152199999Y-105344795D02*
X152199999Y-106030509D01*
X152199999Y-106030509D02*
X152233333Y-106106700D01*
X152233333Y-106106700D02*
X152299999Y-106144795D01*
X152299999Y-106144795D02*
X152366666Y-106144795D01*
X152899999Y-106106700D02*
X152833333Y-106144795D01*
X152833333Y-106144795D02*
X152699999Y-106144795D01*
X152699999Y-106144795D02*
X152633333Y-106106700D01*
X152633333Y-106106700D02*
X152599999Y-106068604D01*
X152599999Y-106068604D02*
X152566666Y-105992414D01*
X152566666Y-105992414D02*
X152566666Y-105763842D01*
X152566666Y-105763842D02*
X152599999Y-105687652D01*
X152599999Y-105687652D02*
X152633333Y-105649557D01*
X152633333Y-105649557D02*
X152699999Y-105611461D01*
X152699999Y-105611461D02*
X152833333Y-105611461D01*
X152833333Y-105611461D02*
X152899999Y-105649557D01*
X153199999Y-106144795D02*
X153199999Y-105344795D01*
X153499999Y-106144795D02*
X153499999Y-105725747D01*
X153499999Y-105725747D02*
X153466666Y-105649557D01*
X153466666Y-105649557D02*
X153399999Y-105611461D01*
X153399999Y-105611461D02*
X153299999Y-105611461D01*
X153299999Y-105611461D02*
X153233333Y-105649557D01*
X153233333Y-105649557D02*
X153199999Y-105687652D01*
X164466666Y-127962295D02*
X164466666Y-128533723D01*
X164466666Y-128533723D02*
X164433333Y-128648009D01*
X164433333Y-128648009D02*
X164366666Y-128724200D01*
X164366666Y-128724200D02*
X164266666Y-128762295D01*
X164266666Y-128762295D02*
X164200000Y-128762295D01*
X165133333Y-127962295D02*
X164799999Y-127962295D01*
X164799999Y-127962295D02*
X164766666Y-128343247D01*
X164766666Y-128343247D02*
X164799999Y-128305152D01*
X164799999Y-128305152D02*
X164866666Y-128267057D01*
X164866666Y-128267057D02*
X165033333Y-128267057D01*
X165033333Y-128267057D02*
X165099999Y-128305152D01*
X165099999Y-128305152D02*
X165133333Y-128343247D01*
X165133333Y-128343247D02*
X165166666Y-128419438D01*
X165166666Y-128419438D02*
X165166666Y-128609914D01*
X165166666Y-128609914D02*
X165133333Y-128686104D01*
X165133333Y-128686104D02*
X165099999Y-128724200D01*
X165099999Y-128724200D02*
X165033333Y-128762295D01*
X165033333Y-128762295D02*
X164866666Y-128762295D01*
X164866666Y-128762295D02*
X164799999Y-128724200D01*
X164799999Y-128724200D02*
X164766666Y-128686104D01*
X164083333Y-124162295D02*
X163850000Y-123781342D01*
X163683333Y-124162295D02*
X163683333Y-123362295D01*
X163683333Y-123362295D02*
X163950000Y-123362295D01*
X163950000Y-123362295D02*
X164016667Y-123400390D01*
X164016667Y-123400390D02*
X164050000Y-123438485D01*
X164050000Y-123438485D02*
X164083333Y-123514676D01*
X164083333Y-123514676D02*
X164083333Y-123628961D01*
X164083333Y-123628961D02*
X164050000Y-123705152D01*
X164050000Y-123705152D02*
X164016667Y-123743247D01*
X164016667Y-123743247D02*
X163950000Y-123781342D01*
X163950000Y-123781342D02*
X163683333Y-123781342D01*
X164316667Y-123362295D02*
X164750000Y-123362295D01*
X164750000Y-123362295D02*
X164516667Y-123667057D01*
X164516667Y-123667057D02*
X164616667Y-123667057D01*
X164616667Y-123667057D02*
X164683333Y-123705152D01*
X164683333Y-123705152D02*
X164716667Y-123743247D01*
X164716667Y-123743247D02*
X164750000Y-123819438D01*
X164750000Y-123819438D02*
X164750000Y-124009914D01*
X164750000Y-124009914D02*
X164716667Y-124086104D01*
X164716667Y-124086104D02*
X164683333Y-124124200D01*
X164683333Y-124124200D02*
X164616667Y-124162295D01*
X164616667Y-124162295D02*
X164416667Y-124162295D01*
X164416667Y-124162295D02*
X164350000Y-124124200D01*
X164350000Y-124124200D02*
X164316667Y-124086104D01*
X156200000Y-123562295D02*
X155866666Y-123562295D01*
X155866666Y-123562295D02*
X155833333Y-123943247D01*
X155833333Y-123943247D02*
X155866666Y-123905152D01*
X155866666Y-123905152D02*
X155933333Y-123867057D01*
X155933333Y-123867057D02*
X156100000Y-123867057D01*
X156100000Y-123867057D02*
X156166666Y-123905152D01*
X156166666Y-123905152D02*
X156200000Y-123943247D01*
X156200000Y-123943247D02*
X156233333Y-124019438D01*
X156233333Y-124019438D02*
X156233333Y-124209914D01*
X156233333Y-124209914D02*
X156200000Y-124286104D01*
X156200000Y-124286104D02*
X156166666Y-124324200D01*
X156166666Y-124324200D02*
X156100000Y-124362295D01*
X156100000Y-124362295D02*
X155933333Y-124362295D01*
X155933333Y-124362295D02*
X155866666Y-124324200D01*
X155866666Y-124324200D02*
X155833333Y-124286104D01*
X156833333Y-123562295D02*
X156700000Y-123562295D01*
X156700000Y-123562295D02*
X156633333Y-123600390D01*
X156633333Y-123600390D02*
X156600000Y-123638485D01*
X156600000Y-123638485D02*
X156533333Y-123752771D01*
X156533333Y-123752771D02*
X156500000Y-123905152D01*
X156500000Y-123905152D02*
X156500000Y-124209914D01*
X156500000Y-124209914D02*
X156533333Y-124286104D01*
X156533333Y-124286104D02*
X156566667Y-124324200D01*
X156566667Y-124324200D02*
X156633333Y-124362295D01*
X156633333Y-124362295D02*
X156766667Y-124362295D01*
X156766667Y-124362295D02*
X156833333Y-124324200D01*
X156833333Y-124324200D02*
X156866667Y-124286104D01*
X156866667Y-124286104D02*
X156900000Y-124209914D01*
X156900000Y-124209914D02*
X156900000Y-124019438D01*
X156900000Y-124019438D02*
X156866667Y-123943247D01*
X156866667Y-123943247D02*
X156833333Y-123905152D01*
X156833333Y-123905152D02*
X156766667Y-123867057D01*
X156766667Y-123867057D02*
X156633333Y-123867057D01*
X156633333Y-123867057D02*
X156566667Y-123905152D01*
X156566667Y-123905152D02*
X156533333Y-123943247D01*
X156533333Y-123943247D02*
X156500000Y-124019438D01*
X157333334Y-123562295D02*
X157400000Y-123562295D01*
X157400000Y-123562295D02*
X157466667Y-123600390D01*
X157466667Y-123600390D02*
X157500000Y-123638485D01*
X157500000Y-123638485D02*
X157533334Y-123714676D01*
X157533334Y-123714676D02*
X157566667Y-123867057D01*
X157566667Y-123867057D02*
X157566667Y-124057533D01*
X157566667Y-124057533D02*
X157533334Y-124209914D01*
X157533334Y-124209914D02*
X157500000Y-124286104D01*
X157500000Y-124286104D02*
X157466667Y-124324200D01*
X157466667Y-124324200D02*
X157400000Y-124362295D01*
X157400000Y-124362295D02*
X157333334Y-124362295D01*
X157333334Y-124362295D02*
X157266667Y-124324200D01*
X157266667Y-124324200D02*
X157233334Y-124286104D01*
X157233334Y-124286104D02*
X157200000Y-124209914D01*
X157200000Y-124209914D02*
X157166667Y-124057533D01*
X157166667Y-124057533D02*
X157166667Y-123867057D01*
X157166667Y-123867057D02*
X157200000Y-123714676D01*
X157200000Y-123714676D02*
X157233334Y-123638485D01*
X157233334Y-123638485D02*
X157266667Y-123600390D01*
X157266667Y-123600390D02*
X157333334Y-123562295D01*
X163166666Y-95724200D02*
X163266666Y-95762295D01*
X163266666Y-95762295D02*
X163433333Y-95762295D01*
X163433333Y-95762295D02*
X163499999Y-95724200D01*
X163499999Y-95724200D02*
X163533333Y-95686104D01*
X163533333Y-95686104D02*
X163566666Y-95609914D01*
X163566666Y-95609914D02*
X163566666Y-95533723D01*
X163566666Y-95533723D02*
X163533333Y-95457533D01*
X163533333Y-95457533D02*
X163499999Y-95419438D01*
X163499999Y-95419438D02*
X163433333Y-95381342D01*
X163433333Y-95381342D02*
X163299999Y-95343247D01*
X163299999Y-95343247D02*
X163233333Y-95305152D01*
X163233333Y-95305152D02*
X163199999Y-95267057D01*
X163199999Y-95267057D02*
X163166666Y-95190866D01*
X163166666Y-95190866D02*
X163166666Y-95114676D01*
X163166666Y-95114676D02*
X163199999Y-95038485D01*
X163199999Y-95038485D02*
X163233333Y-95000390D01*
X163233333Y-95000390D02*
X163299999Y-94962295D01*
X163299999Y-94962295D02*
X163466666Y-94962295D01*
X163466666Y-94962295D02*
X163566666Y-95000390D01*
X163800000Y-94962295D02*
X163966666Y-95762295D01*
X163966666Y-95762295D02*
X164100000Y-95190866D01*
X164100000Y-95190866D02*
X164233333Y-95762295D01*
X164233333Y-95762295D02*
X164400000Y-94962295D01*
X165033333Y-95762295D02*
X164633333Y-95762295D01*
X164833333Y-95762295D02*
X164833333Y-94962295D01*
X164833333Y-94962295D02*
X164766666Y-95076580D01*
X164766666Y-95076580D02*
X164700000Y-95152771D01*
X164700000Y-95152771D02*
X164633333Y-95190866D01*
X166966666Y-90162295D02*
X166966666Y-90733723D01*
X166966666Y-90733723D02*
X166933333Y-90848009D01*
X166933333Y-90848009D02*
X166866666Y-90924200D01*
X166866666Y-90924200D02*
X166766666Y-90962295D01*
X166766666Y-90962295D02*
X166700000Y-90962295D01*
X167666666Y-90962295D02*
X167266666Y-90962295D01*
X167466666Y-90962295D02*
X167466666Y-90162295D01*
X167466666Y-90162295D02*
X167399999Y-90276580D01*
X167399999Y-90276580D02*
X167333333Y-90352771D01*
X167333333Y-90352771D02*
X167266666Y-90390866D01*
X148466666Y-132362295D02*
X148466666Y-132933723D01*
X148466666Y-132933723D02*
X148433333Y-133048009D01*
X148433333Y-133048009D02*
X148366666Y-133124200D01*
X148366666Y-133124200D02*
X148266666Y-133162295D01*
X148266666Y-133162295D02*
X148200000Y-133162295D01*
X149099999Y-132628961D02*
X149099999Y-133162295D01*
X148933333Y-132324200D02*
X148766666Y-132895628D01*
X148766666Y-132895628D02*
X149199999Y-132895628D01*
X152393333Y-93086104D02*
X152360000Y-93124200D01*
X152360000Y-93124200D02*
X152260000Y-93162295D01*
X152260000Y-93162295D02*
X152193333Y-93162295D01*
X152193333Y-93162295D02*
X152093333Y-93124200D01*
X152093333Y-93124200D02*
X152026667Y-93048009D01*
X152026667Y-93048009D02*
X151993333Y-92971819D01*
X151993333Y-92971819D02*
X151960000Y-92819438D01*
X151960000Y-92819438D02*
X151960000Y-92705152D01*
X151960000Y-92705152D02*
X151993333Y-92552771D01*
X151993333Y-92552771D02*
X152026667Y-92476580D01*
X152026667Y-92476580D02*
X152093333Y-92400390D01*
X152093333Y-92400390D02*
X152193333Y-92362295D01*
X152193333Y-92362295D02*
X152260000Y-92362295D01*
X152260000Y-92362295D02*
X152360000Y-92400390D01*
X152360000Y-92400390D02*
X152393333Y-92438485D01*
X153060000Y-93162295D02*
X152660000Y-93162295D01*
X152860000Y-93162295D02*
X152860000Y-92362295D01*
X152860000Y-92362295D02*
X152793333Y-92476580D01*
X152793333Y-92476580D02*
X152726667Y-92552771D01*
X152726667Y-92552771D02*
X152660000Y-92590866D01*
X149050000Y-93062295D02*
X148650000Y-93062295D01*
X148850000Y-93062295D02*
X148850000Y-92262295D01*
X148850000Y-92262295D02*
X148783333Y-92376580D01*
X148783333Y-92376580D02*
X148716667Y-92452771D01*
X148716667Y-92452771D02*
X148650000Y-92490866D01*
X149483334Y-92262295D02*
X149550000Y-92262295D01*
X149550000Y-92262295D02*
X149616667Y-92300390D01*
X149616667Y-92300390D02*
X149650000Y-92338485D01*
X149650000Y-92338485D02*
X149683334Y-92414676D01*
X149683334Y-92414676D02*
X149716667Y-92567057D01*
X149716667Y-92567057D02*
X149716667Y-92757533D01*
X149716667Y-92757533D02*
X149683334Y-92909914D01*
X149683334Y-92909914D02*
X149650000Y-92986104D01*
X149650000Y-92986104D02*
X149616667Y-93024200D01*
X149616667Y-93024200D02*
X149550000Y-93062295D01*
X149550000Y-93062295D02*
X149483334Y-93062295D01*
X149483334Y-93062295D02*
X149416667Y-93024200D01*
X149416667Y-93024200D02*
X149383334Y-92986104D01*
X149383334Y-92986104D02*
X149350000Y-92909914D01*
X149350000Y-92909914D02*
X149316667Y-92757533D01*
X149316667Y-92757533D02*
X149316667Y-92567057D01*
X149316667Y-92567057D02*
X149350000Y-92414676D01*
X149350000Y-92414676D02*
X149383334Y-92338485D01*
X149383334Y-92338485D02*
X149416667Y-92300390D01*
X149416667Y-92300390D02*
X149483334Y-92262295D01*
X150316667Y-92528961D02*
X150316667Y-93062295D01*
X150016667Y-92528961D02*
X150016667Y-92948009D01*
X150016667Y-92948009D02*
X150050001Y-93024200D01*
X150050001Y-93024200D02*
X150116667Y-93062295D01*
X150116667Y-93062295D02*
X150216667Y-93062295D01*
X150216667Y-93062295D02*
X150283334Y-93024200D01*
X150283334Y-93024200D02*
X150316667Y-92986104D01*
X142766666Y-88772295D02*
X142766666Y-89343723D01*
X142766666Y-89343723D02*
X142733333Y-89458009D01*
X142733333Y-89458009D02*
X142666666Y-89534200D01*
X142666666Y-89534200D02*
X142566666Y-89572295D01*
X142566666Y-89572295D02*
X142500000Y-89572295D01*
X143033333Y-88772295D02*
X143466666Y-88772295D01*
X143466666Y-88772295D02*
X143233333Y-89077057D01*
X143233333Y-89077057D02*
X143333333Y-89077057D01*
X143333333Y-89077057D02*
X143399999Y-89115152D01*
X143399999Y-89115152D02*
X143433333Y-89153247D01*
X143433333Y-89153247D02*
X143466666Y-89229438D01*
X143466666Y-89229438D02*
X143466666Y-89419914D01*
X143466666Y-89419914D02*
X143433333Y-89496104D01*
X143433333Y-89496104D02*
X143399999Y-89534200D01*
X143399999Y-89534200D02*
X143333333Y-89572295D01*
X143333333Y-89572295D02*
X143133333Y-89572295D01*
X143133333Y-89572295D02*
X143066666Y-89534200D01*
X143066666Y-89534200D02*
X143033333Y-89496104D01*
X153566666Y-89362295D02*
X153566666Y-89933723D01*
X153566666Y-89933723D02*
X153533333Y-90048009D01*
X153533333Y-90048009D02*
X153466666Y-90124200D01*
X153466666Y-90124200D02*
X153366666Y-90162295D01*
X153366666Y-90162295D02*
X153300000Y-90162295D01*
X153833333Y-89362295D02*
X154299999Y-89362295D01*
X154299999Y-89362295D02*
X153999999Y-90162295D01*
X166966666Y-135562295D02*
X166966666Y-136133723D01*
X166966666Y-136133723D02*
X166933333Y-136248009D01*
X166933333Y-136248009D02*
X166866666Y-136324200D01*
X166866666Y-136324200D02*
X166766666Y-136362295D01*
X166766666Y-136362295D02*
X166700000Y-136362295D01*
X167266666Y-135638485D02*
X167299999Y-135600390D01*
X167299999Y-135600390D02*
X167366666Y-135562295D01*
X167366666Y-135562295D02*
X167533333Y-135562295D01*
X167533333Y-135562295D02*
X167599999Y-135600390D01*
X167599999Y-135600390D02*
X167633333Y-135638485D01*
X167633333Y-135638485D02*
X167666666Y-135714676D01*
X167666666Y-135714676D02*
X167666666Y-135790866D01*
X167666666Y-135790866D02*
X167633333Y-135905152D01*
X167633333Y-135905152D02*
X167233333Y-136362295D01*
X167233333Y-136362295D02*
X167666666Y-136362295D01*
X149583333Y-129286104D02*
X149550000Y-129324200D01*
X149550000Y-129324200D02*
X149450000Y-129362295D01*
X149450000Y-129362295D02*
X149383333Y-129362295D01*
X149383333Y-129362295D02*
X149283333Y-129324200D01*
X149283333Y-129324200D02*
X149216667Y-129248009D01*
X149216667Y-129248009D02*
X149183333Y-129171819D01*
X149183333Y-129171819D02*
X149150000Y-129019438D01*
X149150000Y-129019438D02*
X149150000Y-128905152D01*
X149150000Y-128905152D02*
X149183333Y-128752771D01*
X149183333Y-128752771D02*
X149216667Y-128676580D01*
X149216667Y-128676580D02*
X149283333Y-128600390D01*
X149283333Y-128600390D02*
X149383333Y-128562295D01*
X149383333Y-128562295D02*
X149450000Y-128562295D01*
X149450000Y-128562295D02*
X149550000Y-128600390D01*
X149550000Y-128600390D02*
X149583333Y-128638485D01*
X149816667Y-128562295D02*
X150250000Y-128562295D01*
X150250000Y-128562295D02*
X150016667Y-128867057D01*
X150016667Y-128867057D02*
X150116667Y-128867057D01*
X150116667Y-128867057D02*
X150183333Y-128905152D01*
X150183333Y-128905152D02*
X150216667Y-128943247D01*
X150216667Y-128943247D02*
X150250000Y-129019438D01*
X150250000Y-129019438D02*
X150250000Y-129209914D01*
X150250000Y-129209914D02*
X150216667Y-129286104D01*
X150216667Y-129286104D02*
X150183333Y-129324200D01*
X150183333Y-129324200D02*
X150116667Y-129362295D01*
X150116667Y-129362295D02*
X149916667Y-129362295D01*
X149916667Y-129362295D02*
X149850000Y-129324200D01*
X149850000Y-129324200D02*
X149816667Y-129286104D01*
X146463333Y-129162295D02*
X146063333Y-129162295D01*
X146263333Y-129162295D02*
X146263333Y-128362295D01*
X146263333Y-128362295D02*
X146196666Y-128476580D01*
X146196666Y-128476580D02*
X146130000Y-128552771D01*
X146130000Y-128552771D02*
X146063333Y-128590866D01*
X147063333Y-128628961D02*
X147063333Y-129162295D01*
X146763333Y-128628961D02*
X146763333Y-129048009D01*
X146763333Y-129048009D02*
X146796667Y-129124200D01*
X146796667Y-129124200D02*
X146863333Y-129162295D01*
X146863333Y-129162295D02*
X146963333Y-129162295D01*
X146963333Y-129162295D02*
X147030000Y-129124200D01*
X147030000Y-129124200D02*
X147063333Y-129086104D01*
X164183333Y-119662295D02*
X163950000Y-119281342D01*
X163783333Y-119662295D02*
X163783333Y-118862295D01*
X163783333Y-118862295D02*
X164050000Y-118862295D01*
X164050000Y-118862295D02*
X164116667Y-118900390D01*
X164116667Y-118900390D02*
X164150000Y-118938485D01*
X164150000Y-118938485D02*
X164183333Y-119014676D01*
X164183333Y-119014676D02*
X164183333Y-119128961D01*
X164183333Y-119128961D02*
X164150000Y-119205152D01*
X164150000Y-119205152D02*
X164116667Y-119243247D01*
X164116667Y-119243247D02*
X164050000Y-119281342D01*
X164050000Y-119281342D02*
X163783333Y-119281342D01*
X164850000Y-119662295D02*
X164450000Y-119662295D01*
X164650000Y-119662295D02*
X164650000Y-118862295D01*
X164650000Y-118862295D02*
X164583333Y-118976580D01*
X164583333Y-118976580D02*
X164516667Y-119052771D01*
X164516667Y-119052771D02*
X164450000Y-119090866D01*
X156000000Y-118962295D02*
X156433333Y-118962295D01*
X156433333Y-118962295D02*
X156200000Y-119267057D01*
X156200000Y-119267057D02*
X156300000Y-119267057D01*
X156300000Y-119267057D02*
X156366666Y-119305152D01*
X156366666Y-119305152D02*
X156400000Y-119343247D01*
X156400000Y-119343247D02*
X156433333Y-119419438D01*
X156433333Y-119419438D02*
X156433333Y-119609914D01*
X156433333Y-119609914D02*
X156400000Y-119686104D01*
X156400000Y-119686104D02*
X156366666Y-119724200D01*
X156366666Y-119724200D02*
X156300000Y-119762295D01*
X156300000Y-119762295D02*
X156100000Y-119762295D01*
X156100000Y-119762295D02*
X156033333Y-119724200D01*
X156033333Y-119724200D02*
X156000000Y-119686104D01*
X156666667Y-118962295D02*
X157100000Y-118962295D01*
X157100000Y-118962295D02*
X156866667Y-119267057D01*
X156866667Y-119267057D02*
X156966667Y-119267057D01*
X156966667Y-119267057D02*
X157033333Y-119305152D01*
X157033333Y-119305152D02*
X157066667Y-119343247D01*
X157066667Y-119343247D02*
X157100000Y-119419438D01*
X157100000Y-119419438D02*
X157100000Y-119609914D01*
X157100000Y-119609914D02*
X157066667Y-119686104D01*
X157066667Y-119686104D02*
X157033333Y-119724200D01*
X157033333Y-119724200D02*
X156966667Y-119762295D01*
X156966667Y-119762295D02*
X156766667Y-119762295D01*
X156766667Y-119762295D02*
X156700000Y-119724200D01*
X156700000Y-119724200D02*
X156666667Y-119686104D01*
X157533334Y-118962295D02*
X157600000Y-118962295D01*
X157600000Y-118962295D02*
X157666667Y-119000390D01*
X157666667Y-119000390D02*
X157700000Y-119038485D01*
X157700000Y-119038485D02*
X157733334Y-119114676D01*
X157733334Y-119114676D02*
X157766667Y-119267057D01*
X157766667Y-119267057D02*
X157766667Y-119457533D01*
X157766667Y-119457533D02*
X157733334Y-119609914D01*
X157733334Y-119609914D02*
X157700000Y-119686104D01*
X157700000Y-119686104D02*
X157666667Y-119724200D01*
X157666667Y-119724200D02*
X157600000Y-119762295D01*
X157600000Y-119762295D02*
X157533334Y-119762295D01*
X157533334Y-119762295D02*
X157466667Y-119724200D01*
X157466667Y-119724200D02*
X157433334Y-119686104D01*
X157433334Y-119686104D02*
X157400000Y-119609914D01*
X157400000Y-119609914D02*
X157366667Y-119457533D01*
X157366667Y-119457533D02*
X157366667Y-119267057D01*
X157366667Y-119267057D02*
X157400000Y-119114676D01*
X157400000Y-119114676D02*
X157433334Y-119038485D01*
X157433334Y-119038485D02*
X157466667Y-119000390D01*
X157466667Y-119000390D02*
X157533334Y-118962295D01*
X147183333Y-92886104D02*
X147150000Y-92924200D01*
X147150000Y-92924200D02*
X147050000Y-92962295D01*
X147050000Y-92962295D02*
X146983333Y-92962295D01*
X146983333Y-92962295D02*
X146883333Y-92924200D01*
X146883333Y-92924200D02*
X146816667Y-92848009D01*
X146816667Y-92848009D02*
X146783333Y-92771819D01*
X146783333Y-92771819D02*
X146750000Y-92619438D01*
X146750000Y-92619438D02*
X146750000Y-92505152D01*
X146750000Y-92505152D02*
X146783333Y-92352771D01*
X146783333Y-92352771D02*
X146816667Y-92276580D01*
X146816667Y-92276580D02*
X146883333Y-92200390D01*
X146883333Y-92200390D02*
X146983333Y-92162295D01*
X146983333Y-92162295D02*
X147050000Y-92162295D01*
X147050000Y-92162295D02*
X147150000Y-92200390D01*
X147150000Y-92200390D02*
X147183333Y-92238485D01*
X147450000Y-92238485D02*
X147483333Y-92200390D01*
X147483333Y-92200390D02*
X147550000Y-92162295D01*
X147550000Y-92162295D02*
X147716667Y-92162295D01*
X147716667Y-92162295D02*
X147783333Y-92200390D01*
X147783333Y-92200390D02*
X147816667Y-92238485D01*
X147816667Y-92238485D02*
X147850000Y-92314676D01*
X147850000Y-92314676D02*
X147850000Y-92390866D01*
X147850000Y-92390866D02*
X147816667Y-92505152D01*
X147816667Y-92505152D02*
X147416667Y-92962295D01*
X147416667Y-92962295D02*
X147850000Y-92962295D01*
X143550000Y-92162295D02*
X143616666Y-92162295D01*
X143616666Y-92162295D02*
X143683333Y-92200390D01*
X143683333Y-92200390D02*
X143716666Y-92238485D01*
X143716666Y-92238485D02*
X143750000Y-92314676D01*
X143750000Y-92314676D02*
X143783333Y-92467057D01*
X143783333Y-92467057D02*
X143783333Y-92657533D01*
X143783333Y-92657533D02*
X143750000Y-92809914D01*
X143750000Y-92809914D02*
X143716666Y-92886104D01*
X143716666Y-92886104D02*
X143683333Y-92924200D01*
X143683333Y-92924200D02*
X143616666Y-92962295D01*
X143616666Y-92962295D02*
X143550000Y-92962295D01*
X143550000Y-92962295D02*
X143483333Y-92924200D01*
X143483333Y-92924200D02*
X143450000Y-92886104D01*
X143450000Y-92886104D02*
X143416666Y-92809914D01*
X143416666Y-92809914D02*
X143383333Y-92657533D01*
X143383333Y-92657533D02*
X143383333Y-92467057D01*
X143383333Y-92467057D02*
X143416666Y-92314676D01*
X143416666Y-92314676D02*
X143450000Y-92238485D01*
X143450000Y-92238485D02*
X143483333Y-92200390D01*
X143483333Y-92200390D02*
X143550000Y-92162295D01*
X144083333Y-92886104D02*
X144116667Y-92924200D01*
X144116667Y-92924200D02*
X144083333Y-92962295D01*
X144083333Y-92962295D02*
X144050000Y-92924200D01*
X144050000Y-92924200D02*
X144083333Y-92886104D01*
X144083333Y-92886104D02*
X144083333Y-92962295D01*
X144783333Y-92962295D02*
X144383333Y-92962295D01*
X144583333Y-92962295D02*
X144583333Y-92162295D01*
X144583333Y-92162295D02*
X144516666Y-92276580D01*
X144516666Y-92276580D02*
X144450000Y-92352771D01*
X144450000Y-92352771D02*
X144383333Y-92390866D01*
X145383333Y-92428961D02*
X145383333Y-92962295D01*
X145083333Y-92428961D02*
X145083333Y-92848009D01*
X145083333Y-92848009D02*
X145116667Y-92924200D01*
X145116667Y-92924200D02*
X145183333Y-92962295D01*
X145183333Y-92962295D02*
X145283333Y-92962295D01*
X145283333Y-92962295D02*
X145350000Y-92924200D01*
X145350000Y-92924200D02*
X145383333Y-92886104D01*
X162783333Y-108362295D02*
X162783333Y-107562295D01*
X162783333Y-107562295D02*
X162950000Y-107562295D01*
X162950000Y-107562295D02*
X163050000Y-107600390D01*
X163050000Y-107600390D02*
X163116667Y-107676580D01*
X163116667Y-107676580D02*
X163150000Y-107752771D01*
X163150000Y-107752771D02*
X163183333Y-107905152D01*
X163183333Y-107905152D02*
X163183333Y-108019438D01*
X163183333Y-108019438D02*
X163150000Y-108171819D01*
X163150000Y-108171819D02*
X163116667Y-108248009D01*
X163116667Y-108248009D02*
X163050000Y-108324200D01*
X163050000Y-108324200D02*
X162950000Y-108362295D01*
X162950000Y-108362295D02*
X162783333Y-108362295D01*
X163850000Y-108362295D02*
X163450000Y-108362295D01*
X163650000Y-108362295D02*
X163650000Y-107562295D01*
X163650000Y-107562295D02*
X163583333Y-107676580D01*
X163583333Y-107676580D02*
X163516667Y-107752771D01*
X163516667Y-107752771D02*
X163450000Y-107790866D01*
X161550000Y-116162295D02*
X161216666Y-116162295D01*
X161216666Y-116162295D02*
X161216666Y-115362295D01*
X161783333Y-115743247D02*
X162016667Y-115743247D01*
X162116667Y-116162295D02*
X161783333Y-116162295D01*
X161783333Y-116162295D02*
X161783333Y-115362295D01*
X161783333Y-115362295D02*
X162116667Y-115362295D01*
X162416666Y-116162295D02*
X162416666Y-115362295D01*
X162416666Y-115362295D02*
X162583333Y-115362295D01*
X162583333Y-115362295D02*
X162683333Y-115400390D01*
X162683333Y-115400390D02*
X162750000Y-115476580D01*
X162750000Y-115476580D02*
X162783333Y-115552771D01*
X162783333Y-115552771D02*
X162816666Y-115705152D01*
X162816666Y-115705152D02*
X162816666Y-115819438D01*
X162816666Y-115819438D02*
X162783333Y-115971819D01*
X162783333Y-115971819D02*
X162750000Y-116048009D01*
X162750000Y-116048009D02*
X162683333Y-116124200D01*
X162683333Y-116124200D02*
X162583333Y-116162295D01*
X162583333Y-116162295D02*
X162416666Y-116162295D01*
X145766666Y-119412295D02*
X145766666Y-120059914D01*
X145766666Y-120059914D02*
X145800000Y-120136104D01*
X145800000Y-120136104D02*
X145833333Y-120174200D01*
X145833333Y-120174200D02*
X145900000Y-120212295D01*
X145900000Y-120212295D02*
X146033333Y-120212295D01*
X146033333Y-120212295D02*
X146100000Y-120174200D01*
X146100000Y-120174200D02*
X146133333Y-120136104D01*
X146133333Y-120136104D02*
X146166666Y-120059914D01*
X146166666Y-120059914D02*
X146166666Y-119412295D01*
X146466666Y-119488485D02*
X146499999Y-119450390D01*
X146499999Y-119450390D02*
X146566666Y-119412295D01*
X146566666Y-119412295D02*
X146733333Y-119412295D01*
X146733333Y-119412295D02*
X146799999Y-119450390D01*
X146799999Y-119450390D02*
X146833333Y-119488485D01*
X146833333Y-119488485D02*
X146866666Y-119564676D01*
X146866666Y-119564676D02*
X146866666Y-119640866D01*
X146866666Y-119640866D02*
X146833333Y-119755152D01*
X146833333Y-119755152D02*
X146433333Y-120212295D01*
X146433333Y-120212295D02*
X146866666Y-120212295D01*
D10*
X144023333Y-126514895D02*
X143689999Y-126514895D01*
X143689999Y-126514895D02*
X143689999Y-125714895D01*
X144256666Y-126514895D02*
X144256666Y-125714895D01*
X144256666Y-125714895D02*
X144490000Y-126286323D01*
X144490000Y-126286323D02*
X144723333Y-125714895D01*
X144723333Y-125714895D02*
X144723333Y-126514895D01*
X144990000Y-125714895D02*
X145423333Y-125714895D01*
X145423333Y-125714895D02*
X145190000Y-126019657D01*
X145190000Y-126019657D02*
X145290000Y-126019657D01*
X145290000Y-126019657D02*
X145356666Y-126057752D01*
X145356666Y-126057752D02*
X145390000Y-126095847D01*
X145390000Y-126095847D02*
X145423333Y-126172038D01*
X145423333Y-126172038D02*
X145423333Y-126362514D01*
X145423333Y-126362514D02*
X145390000Y-126438704D01*
X145390000Y-126438704D02*
X145356666Y-126476800D01*
X145356666Y-126476800D02*
X145290000Y-126514895D01*
X145290000Y-126514895D02*
X145090000Y-126514895D01*
X145090000Y-126514895D02*
X145023333Y-126476800D01*
X145023333Y-126476800D02*
X144990000Y-126438704D01*
X146090000Y-126514895D02*
X145690000Y-126514895D01*
X145890000Y-126514895D02*
X145890000Y-125714895D01*
X145890000Y-125714895D02*
X145823333Y-125829180D01*
X145823333Y-125829180D02*
X145756667Y-125905371D01*
X145756667Y-125905371D02*
X145690000Y-125943466D01*
X146323334Y-125714895D02*
X146790000Y-125714895D01*
X146790000Y-125714895D02*
X146490000Y-126514895D01*
X146890001Y-126591085D02*
X147423334Y-126591085D01*
X147490000Y-125714895D02*
X147890000Y-125714895D01*
X147690000Y-126514895D02*
X147690000Y-125714895D01*
X148256667Y-125714895D02*
X148390000Y-125714895D01*
X148390000Y-125714895D02*
X148456667Y-125752990D01*
X148456667Y-125752990D02*
X148523333Y-125829180D01*
X148523333Y-125829180D02*
X148556667Y-125981561D01*
X148556667Y-125981561D02*
X148556667Y-126248228D01*
X148556667Y-126248228D02*
X148523333Y-126400609D01*
X148523333Y-126400609D02*
X148456667Y-126476800D01*
X148456667Y-126476800D02*
X148390000Y-126514895D01*
X148390000Y-126514895D02*
X148256667Y-126514895D01*
X148256667Y-126514895D02*
X148190000Y-126476800D01*
X148190000Y-126476800D02*
X148123333Y-126400609D01*
X148123333Y-126400609D02*
X148090000Y-126248228D01*
X148090000Y-126248228D02*
X148090000Y-125981561D01*
X148090000Y-125981561D02*
X148123333Y-125829180D01*
X148123333Y-125829180D02*
X148190000Y-125752990D01*
X148190000Y-125752990D02*
X148256667Y-125714895D01*
X148856666Y-126210133D02*
X149390000Y-126210133D01*
X149690000Y-125791085D02*
X149723333Y-125752990D01*
X149723333Y-125752990D02*
X149790000Y-125714895D01*
X149790000Y-125714895D02*
X149956667Y-125714895D01*
X149956667Y-125714895D02*
X150023333Y-125752990D01*
X150023333Y-125752990D02*
X150056667Y-125791085D01*
X150056667Y-125791085D02*
X150090000Y-125867276D01*
X150090000Y-125867276D02*
X150090000Y-125943466D01*
X150090000Y-125943466D02*
X150056667Y-126057752D01*
X150056667Y-126057752D02*
X149656667Y-126514895D01*
X149656667Y-126514895D02*
X150090000Y-126514895D01*
X150356667Y-125791085D02*
X150390000Y-125752990D01*
X150390000Y-125752990D02*
X150456667Y-125714895D01*
X150456667Y-125714895D02*
X150623334Y-125714895D01*
X150623334Y-125714895D02*
X150690000Y-125752990D01*
X150690000Y-125752990D02*
X150723334Y-125791085D01*
X150723334Y-125791085D02*
X150756667Y-125867276D01*
X150756667Y-125867276D02*
X150756667Y-125943466D01*
X150756667Y-125943466D02*
X150723334Y-126057752D01*
X150723334Y-126057752D02*
X150323334Y-126514895D01*
X150323334Y-126514895D02*
X150756667Y-126514895D01*
X151190001Y-125714895D02*
X151256667Y-125714895D01*
X151256667Y-125714895D02*
X151323334Y-125752990D01*
X151323334Y-125752990D02*
X151356667Y-125791085D01*
X151356667Y-125791085D02*
X151390001Y-125867276D01*
X151390001Y-125867276D02*
X151423334Y-126019657D01*
X151423334Y-126019657D02*
X151423334Y-126210133D01*
X151423334Y-126210133D02*
X151390001Y-126362514D01*
X151390001Y-126362514D02*
X151356667Y-126438704D01*
X151356667Y-126438704D02*
X151323334Y-126476800D01*
X151323334Y-126476800D02*
X151256667Y-126514895D01*
X151256667Y-126514895D02*
X151190001Y-126514895D01*
X151190001Y-126514895D02*
X151123334Y-126476800D01*
X151123334Y-126476800D02*
X151090001Y-126438704D01*
X151090001Y-126438704D02*
X151056667Y-126362514D01*
X151056667Y-126362514D02*
X151023334Y-126210133D01*
X151023334Y-126210133D02*
X151023334Y-126019657D01*
X151023334Y-126019657D02*
X151056667Y-125867276D01*
X151056667Y-125867276D02*
X151090001Y-125791085D01*
X151090001Y-125791085D02*
X151123334Y-125752990D01*
X151123334Y-125752990D02*
X151190001Y-125714895D01*
D11*
X164083333Y-104862295D02*
X163850000Y-104481342D01*
X163683333Y-104862295D02*
X163683333Y-104062295D01*
X163683333Y-104062295D02*
X163950000Y-104062295D01*
X163950000Y-104062295D02*
X164016667Y-104100390D01*
X164016667Y-104100390D02*
X164050000Y-104138485D01*
X164050000Y-104138485D02*
X164083333Y-104214676D01*
X164083333Y-104214676D02*
X164083333Y-104328961D01*
X164083333Y-104328961D02*
X164050000Y-104405152D01*
X164050000Y-104405152D02*
X164016667Y-104443247D01*
X164016667Y-104443247D02*
X163950000Y-104481342D01*
X163950000Y-104481342D02*
X163683333Y-104481342D01*
X164350000Y-104138485D02*
X164383333Y-104100390D01*
X164383333Y-104100390D02*
X164450000Y-104062295D01*
X164450000Y-104062295D02*
X164616667Y-104062295D01*
X164616667Y-104062295D02*
X164683333Y-104100390D01*
X164683333Y-104100390D02*
X164716667Y-104138485D01*
X164716667Y-104138485D02*
X164750000Y-104214676D01*
X164750000Y-104214676D02*
X164750000Y-104290866D01*
X164750000Y-104290866D02*
X164716667Y-104405152D01*
X164716667Y-104405152D02*
X164316667Y-104862295D01*
X164316667Y-104862295D02*
X164750000Y-104862295D01*
X155800000Y-103962295D02*
X156233333Y-103962295D01*
X156233333Y-103962295D02*
X156000000Y-104267057D01*
X156000000Y-104267057D02*
X156100000Y-104267057D01*
X156100000Y-104267057D02*
X156166666Y-104305152D01*
X156166666Y-104305152D02*
X156200000Y-104343247D01*
X156200000Y-104343247D02*
X156233333Y-104419438D01*
X156233333Y-104419438D02*
X156233333Y-104609914D01*
X156233333Y-104609914D02*
X156200000Y-104686104D01*
X156200000Y-104686104D02*
X156166666Y-104724200D01*
X156166666Y-104724200D02*
X156100000Y-104762295D01*
X156100000Y-104762295D02*
X155900000Y-104762295D01*
X155900000Y-104762295D02*
X155833333Y-104724200D01*
X155833333Y-104724200D02*
X155800000Y-104686104D01*
X156466667Y-103962295D02*
X156900000Y-103962295D01*
X156900000Y-103962295D02*
X156666667Y-104267057D01*
X156666667Y-104267057D02*
X156766667Y-104267057D01*
X156766667Y-104267057D02*
X156833333Y-104305152D01*
X156833333Y-104305152D02*
X156866667Y-104343247D01*
X156866667Y-104343247D02*
X156900000Y-104419438D01*
X156900000Y-104419438D02*
X156900000Y-104609914D01*
X156900000Y-104609914D02*
X156866667Y-104686104D01*
X156866667Y-104686104D02*
X156833333Y-104724200D01*
X156833333Y-104724200D02*
X156766667Y-104762295D01*
X156766667Y-104762295D02*
X156566667Y-104762295D01*
X156566667Y-104762295D02*
X156500000Y-104724200D01*
X156500000Y-104724200D02*
X156466667Y-104686104D01*
X157333334Y-103962295D02*
X157400000Y-103962295D01*
X157400000Y-103962295D02*
X157466667Y-104000390D01*
X157466667Y-104000390D02*
X157500000Y-104038485D01*
X157500000Y-104038485D02*
X157533334Y-104114676D01*
X157533334Y-104114676D02*
X157566667Y-104267057D01*
X157566667Y-104267057D02*
X157566667Y-104457533D01*
X157566667Y-104457533D02*
X157533334Y-104609914D01*
X157533334Y-104609914D02*
X157500000Y-104686104D01*
X157500000Y-104686104D02*
X157466667Y-104724200D01*
X157466667Y-104724200D02*
X157400000Y-104762295D01*
X157400000Y-104762295D02*
X157333334Y-104762295D01*
X157333334Y-104762295D02*
X157266667Y-104724200D01*
X157266667Y-104724200D02*
X157233334Y-104686104D01*
X157233334Y-104686104D02*
X157200000Y-104609914D01*
X157200000Y-104609914D02*
X157166667Y-104457533D01*
X157166667Y-104457533D02*
X157166667Y-104267057D01*
X157166667Y-104267057D02*
X157200000Y-104114676D01*
X157200000Y-104114676D02*
X157233334Y-104038485D01*
X157233334Y-104038485D02*
X157266667Y-104000390D01*
X157266667Y-104000390D02*
X157333334Y-103962295D01*
X147986666Y-103182295D02*
X147986666Y-103829914D01*
X147986666Y-103829914D02*
X148020000Y-103906104D01*
X148020000Y-103906104D02*
X148053333Y-103944200D01*
X148053333Y-103944200D02*
X148120000Y-103982295D01*
X148120000Y-103982295D02*
X148253333Y-103982295D01*
X148253333Y-103982295D02*
X148320000Y-103944200D01*
X148320000Y-103944200D02*
X148353333Y-103906104D01*
X148353333Y-103906104D02*
X148386666Y-103829914D01*
X148386666Y-103829914D02*
X148386666Y-103182295D01*
X149086666Y-103982295D02*
X148686666Y-103982295D01*
X148886666Y-103982295D02*
X148886666Y-103182295D01*
X148886666Y-103182295D02*
X148819999Y-103296580D01*
X148819999Y-103296580D02*
X148753333Y-103372771D01*
X148753333Y-103372771D02*
X148686666Y-103410866D01*
X144983333Y-97762295D02*
X144649999Y-97762295D01*
X144649999Y-97762295D02*
X144649999Y-96962295D01*
X145216666Y-97762295D02*
X145216666Y-96962295D01*
X145216666Y-96962295D02*
X145450000Y-97533723D01*
X145450000Y-97533723D02*
X145683333Y-96962295D01*
X145683333Y-96962295D02*
X145683333Y-97762295D01*
X145950000Y-96962295D02*
X146416666Y-96962295D01*
X146416666Y-96962295D02*
X146116666Y-97762295D01*
X146783333Y-97305152D02*
X146716667Y-97267057D01*
X146716667Y-97267057D02*
X146683333Y-97228961D01*
X146683333Y-97228961D02*
X146650000Y-97152771D01*
X146650000Y-97152771D02*
X146650000Y-97114676D01*
X146650000Y-97114676D02*
X146683333Y-97038485D01*
X146683333Y-97038485D02*
X146716667Y-97000390D01*
X146716667Y-97000390D02*
X146783333Y-96962295D01*
X146783333Y-96962295D02*
X146916667Y-96962295D01*
X146916667Y-96962295D02*
X146983333Y-97000390D01*
X146983333Y-97000390D02*
X147016667Y-97038485D01*
X147016667Y-97038485D02*
X147050000Y-97114676D01*
X147050000Y-97114676D02*
X147050000Y-97152771D01*
X147050000Y-97152771D02*
X147016667Y-97228961D01*
X147016667Y-97228961D02*
X146983333Y-97267057D01*
X146983333Y-97267057D02*
X146916667Y-97305152D01*
X146916667Y-97305152D02*
X146783333Y-97305152D01*
X146783333Y-97305152D02*
X146716667Y-97343247D01*
X146716667Y-97343247D02*
X146683333Y-97381342D01*
X146683333Y-97381342D02*
X146650000Y-97457533D01*
X146650000Y-97457533D02*
X146650000Y-97609914D01*
X146650000Y-97609914D02*
X146683333Y-97686104D01*
X146683333Y-97686104D02*
X146716667Y-97724200D01*
X146716667Y-97724200D02*
X146783333Y-97762295D01*
X146783333Y-97762295D02*
X146916667Y-97762295D01*
X146916667Y-97762295D02*
X146983333Y-97724200D01*
X146983333Y-97724200D02*
X147016667Y-97686104D01*
X147016667Y-97686104D02*
X147050000Y-97609914D01*
X147050000Y-97609914D02*
X147050000Y-97457533D01*
X147050000Y-97457533D02*
X147016667Y-97381342D01*
X147016667Y-97381342D02*
X146983333Y-97343247D01*
X146983333Y-97343247D02*
X146916667Y-97305152D01*
X147483334Y-96962295D02*
X147550000Y-96962295D01*
X147550000Y-96962295D02*
X147616667Y-97000390D01*
X147616667Y-97000390D02*
X147650000Y-97038485D01*
X147650000Y-97038485D02*
X147683334Y-97114676D01*
X147683334Y-97114676D02*
X147716667Y-97267057D01*
X147716667Y-97267057D02*
X147716667Y-97457533D01*
X147716667Y-97457533D02*
X147683334Y-97609914D01*
X147683334Y-97609914D02*
X147650000Y-97686104D01*
X147650000Y-97686104D02*
X147616667Y-97724200D01*
X147616667Y-97724200D02*
X147550000Y-97762295D01*
X147550000Y-97762295D02*
X147483334Y-97762295D01*
X147483334Y-97762295D02*
X147416667Y-97724200D01*
X147416667Y-97724200D02*
X147383334Y-97686104D01*
X147383334Y-97686104D02*
X147350000Y-97609914D01*
X147350000Y-97609914D02*
X147316667Y-97457533D01*
X147316667Y-97457533D02*
X147316667Y-97267057D01*
X147316667Y-97267057D02*
X147350000Y-97114676D01*
X147350000Y-97114676D02*
X147383334Y-97038485D01*
X147383334Y-97038485D02*
X147416667Y-97000390D01*
X147416667Y-97000390D02*
X147483334Y-96962295D01*
X148350001Y-96962295D02*
X148016667Y-96962295D01*
X148016667Y-96962295D02*
X147983334Y-97343247D01*
X147983334Y-97343247D02*
X148016667Y-97305152D01*
X148016667Y-97305152D02*
X148083334Y-97267057D01*
X148083334Y-97267057D02*
X148250001Y-97267057D01*
X148250001Y-97267057D02*
X148316667Y-97305152D01*
X148316667Y-97305152D02*
X148350001Y-97343247D01*
X148350001Y-97343247D02*
X148383334Y-97419438D01*
X148383334Y-97419438D02*
X148383334Y-97609914D01*
X148383334Y-97609914D02*
X148350001Y-97686104D01*
X148350001Y-97686104D02*
X148316667Y-97724200D01*
X148316667Y-97724200D02*
X148250001Y-97762295D01*
X148250001Y-97762295D02*
X148083334Y-97762295D01*
X148083334Y-97762295D02*
X148016667Y-97724200D01*
X148016667Y-97724200D02*
X147983334Y-97686104D01*
X148516668Y-97838485D02*
X149050001Y-97838485D01*
X149116667Y-96962295D02*
X149516667Y-96962295D01*
X149316667Y-97762295D02*
X149316667Y-96962295D01*
X149883334Y-96962295D02*
X150016667Y-96962295D01*
X150016667Y-96962295D02*
X150083334Y-97000390D01*
X150083334Y-97000390D02*
X150150000Y-97076580D01*
X150150000Y-97076580D02*
X150183334Y-97228961D01*
X150183334Y-97228961D02*
X150183334Y-97495628D01*
X150183334Y-97495628D02*
X150150000Y-97648009D01*
X150150000Y-97648009D02*
X150083334Y-97724200D01*
X150083334Y-97724200D02*
X150016667Y-97762295D01*
X150016667Y-97762295D02*
X149883334Y-97762295D01*
X149883334Y-97762295D02*
X149816667Y-97724200D01*
X149816667Y-97724200D02*
X149750000Y-97648009D01*
X149750000Y-97648009D02*
X149716667Y-97495628D01*
X149716667Y-97495628D02*
X149716667Y-97228961D01*
X149716667Y-97228961D02*
X149750000Y-97076580D01*
X149750000Y-97076580D02*
X149816667Y-97000390D01*
X149816667Y-97000390D02*
X149883334Y-96962295D01*
X150450000Y-97038485D02*
X150483333Y-97000390D01*
X150483333Y-97000390D02*
X150550000Y-96962295D01*
X150550000Y-96962295D02*
X150716667Y-96962295D01*
X150716667Y-96962295D02*
X150783333Y-97000390D01*
X150783333Y-97000390D02*
X150816667Y-97038485D01*
X150816667Y-97038485D02*
X150850000Y-97114676D01*
X150850000Y-97114676D02*
X150850000Y-97190866D01*
X150850000Y-97190866D02*
X150816667Y-97305152D01*
X150816667Y-97305152D02*
X150416667Y-97762295D01*
X150416667Y-97762295D02*
X150850000Y-97762295D01*
X151116667Y-97038485D02*
X151150000Y-97000390D01*
X151150000Y-97000390D02*
X151216667Y-96962295D01*
X151216667Y-96962295D02*
X151383334Y-96962295D01*
X151383334Y-96962295D02*
X151450000Y-97000390D01*
X151450000Y-97000390D02*
X151483334Y-97038485D01*
X151483334Y-97038485D02*
X151516667Y-97114676D01*
X151516667Y-97114676D02*
X151516667Y-97190866D01*
X151516667Y-97190866D02*
X151483334Y-97305152D01*
X151483334Y-97305152D02*
X151083334Y-97762295D01*
X151083334Y-97762295D02*
X151516667Y-97762295D01*
X151950001Y-96962295D02*
X152016667Y-96962295D01*
X152016667Y-96962295D02*
X152083334Y-97000390D01*
X152083334Y-97000390D02*
X152116667Y-97038485D01*
X152116667Y-97038485D02*
X152150001Y-97114676D01*
X152150001Y-97114676D02*
X152183334Y-97267057D01*
X152183334Y-97267057D02*
X152183334Y-97457533D01*
X152183334Y-97457533D02*
X152150001Y-97609914D01*
X152150001Y-97609914D02*
X152116667Y-97686104D01*
X152116667Y-97686104D02*
X152083334Y-97724200D01*
X152083334Y-97724200D02*
X152016667Y-97762295D01*
X152016667Y-97762295D02*
X151950001Y-97762295D01*
X151950001Y-97762295D02*
X151883334Y-97724200D01*
X151883334Y-97724200D02*
X151850001Y-97686104D01*
X151850001Y-97686104D02*
X151816667Y-97609914D01*
X151816667Y-97609914D02*
X151783334Y-97457533D01*
X151783334Y-97457533D02*
X151783334Y-97267057D01*
X151783334Y-97267057D02*
X151816667Y-97114676D01*
X151816667Y-97114676D02*
X151850001Y-97038485D01*
X151850001Y-97038485D02*
X151883334Y-97000390D01*
X151883334Y-97000390D02*
X151950001Y-96962295D01*
D12*
%TO.C,J6*%
X157190000Y-107532500D02*
X157190000Y-106482500D01*
X156990000Y-115882500D02*
X155090000Y-115882500D01*
X156990000Y-113182500D02*
X156990000Y-115882500D01*
X156990000Y-106682500D02*
X156990000Y-109282500D01*
X156140000Y-106482500D02*
X157190000Y-106482500D01*
X151090000Y-115882500D02*
X142290000Y-115882500D01*
X142290000Y-115882500D02*
X142290000Y-106682500D01*
X142290000Y-106682500D02*
X156990000Y-106682500D01*
%TO.C,J5*%
X155060000Y-129200000D02*
X155060000Y-136820000D01*
X155060000Y-136820000D02*
X165220000Y-136820000D01*
X165220000Y-129200000D02*
X155060000Y-129200000D01*
X165220000Y-135550000D02*
X155060000Y-135550000D01*
X165220000Y-136820000D02*
X165220000Y-129200000D01*
%TO.C,R3*%
X157580000Y-125620000D02*
X158530000Y-125620000D01*
X163320000Y-125620000D02*
X162370000Y-125620000D01*
X158530000Y-124700000D02*
X162370000Y-124700000D01*
X162370000Y-126540000D01*
X158530000Y-126540000D01*
X158530000Y-124700000D01*
%TO.C,SW1*%
X154830000Y-96080000D02*
X165050000Y-96080000D01*
X165050000Y-98800000D01*
X154830000Y-98800000D01*
X154830000Y-96080000D01*
%TO.C,J1*%
X168620000Y-86080000D02*
X168620000Y-91380000D01*
X168730000Y-86080000D02*
X168620000Y-86080000D01*
X168730000Y-86080000D02*
X168730000Y-88730000D01*
X168730000Y-88730000D02*
X171380000Y-88730000D01*
X170000000Y-86080000D02*
X171380000Y-86080000D01*
X171380000Y-86080000D02*
X171380000Y-87460000D01*
X171380000Y-88730000D02*
X171380000Y-91380000D01*
X171380000Y-91380000D02*
X168620000Y-91380000D01*
%TO.C,J4*%
X144510000Y-136470000D02*
X144510000Y-135090000D01*
X145890000Y-136470000D02*
X144510000Y-136470000D01*
X147160000Y-133710000D02*
X152350000Y-133710000D01*
X147160000Y-136470000D02*
X147160000Y-133710000D01*
X147160000Y-136470000D02*
X152350000Y-136470000D01*
X152350000Y-136470000D02*
X152350000Y-133710000D01*
%TO.C,C1*%
X150245000Y-93480000D02*
X151775000Y-93480000D01*
X151775000Y-95320000D02*
X150245000Y-95320000D01*
%TO.C,J3*%
X144240000Y-90590000D02*
X144240000Y-89210000D01*
X145620000Y-90590000D02*
X144240000Y-90590000D01*
X146890000Y-87830000D02*
X152080000Y-87830000D01*
X146890000Y-90590000D02*
X146890000Y-87830000D01*
X146890000Y-90590000D02*
X152080000Y-90590000D01*
X152080000Y-90590000D02*
X152080000Y-87830000D01*
%TO.C,J7*%
X154980000Y-85960000D02*
X154980000Y-93580000D01*
X154980000Y-93580000D02*
X165140000Y-93580000D01*
X165140000Y-85960000D02*
X154980000Y-85960000D01*
X165140000Y-92310000D02*
X154980000Y-92310000D01*
X165140000Y-93580000D02*
X165140000Y-85960000D01*
%TO.C,J2*%
X168600000Y-131900000D02*
X168600000Y-137200000D01*
X168710000Y-131900000D02*
X168600000Y-131900000D01*
X168710000Y-131900000D02*
X168710000Y-134550000D01*
X168710000Y-134550000D02*
X171360000Y-134550000D01*
X169980000Y-131900000D02*
X171360000Y-131900000D01*
X171360000Y-131900000D02*
X171360000Y-133280000D01*
X171360000Y-134550000D02*
X171360000Y-137200000D01*
X171360000Y-137200000D02*
X168600000Y-137200000D01*
%TO.C,C3*%
X147315000Y-129630000D02*
X148845000Y-129630000D01*
X148845000Y-131470000D02*
X147315000Y-131470000D01*
%TO.C,R1*%
X157580000Y-121150000D02*
X158530000Y-121150000D01*
X163320000Y-121150000D02*
X162370000Y-121150000D01*
X162370000Y-122070000D02*
X158530000Y-122070000D01*
X158530000Y-120230000D01*
X162370000Y-120230000D01*
X162370000Y-122070000D01*
%TO.C,C2*%
X145055000Y-93380000D02*
X146585000Y-93380000D01*
X146585000Y-95220000D02*
X145055000Y-95220000D01*
%TO.C,D1*%
X160455000Y-114415000D02*
X163545000Y-114415000D01*
X160455170Y-114415000D02*
G75*
G02*
X162000000Y-108865000I1544830J2560000D01*
G01*
X162000000Y-108865000D02*
G75*
G02*
X163544830Y-114415000I0J-2990000D01*
G01*
X164500000Y-111855000D02*
G75*
G02*
X159500000Y-111855000I-2500000J0D01*
G01*
X159500000Y-111855000D02*
G75*
G02*
X164500000Y-111855000I2500000J0D01*
G01*
%TO.C,U2*%
X142430000Y-120690000D02*
X152650000Y-120690000D01*
X142430000Y-122070000D02*
X152650000Y-122070000D01*
X142430000Y-125310000D02*
X142430000Y-120690000D01*
X145690000Y-120690000D02*
X145690000Y-122070000D01*
X149390000Y-120690000D02*
X149390000Y-122070000D01*
X152650000Y-120690000D02*
X152650000Y-125310000D01*
X152650000Y-125310000D02*
X142430000Y-125310000D01*
%TO.C,R2*%
X157560000Y-102640000D02*
X158510000Y-102640000D01*
X163300000Y-102640000D02*
X162350000Y-102640000D01*
X158510000Y-101720000D02*
X162350000Y-101720000D01*
X162350000Y-103560000D01*
X158510000Y-103560000D01*
X158510000Y-101720000D01*
%TO.C,U1*%
X143410000Y-98160000D02*
X153630000Y-98160000D01*
X143410000Y-102780000D02*
X143410000Y-98160000D01*
X146670000Y-102780000D02*
X146670000Y-101400000D01*
X150370000Y-102780000D02*
X150370000Y-101400000D01*
X153630000Y-98160000D02*
X153630000Y-102780000D01*
X153630000Y-101400000D02*
X143410000Y-101400000D01*
X153630000Y-102780000D02*
X143410000Y-102780000D01*
%TD*%
M02*
