M48
; DRILL file {KiCad 9.0.4} date 2025-10-15T15:11:57+0100
; FORMAT={-:-/ absolute / metric / decimal}
; #@! TF.CreationDate,2025-10-15T15:11:57+01:00
; #@! TF.GenerationSoftware,Kicad,Pcbnew,9.0.4
; #@! TF.FileFunction,Plated,1,2,PTH
FMAT,2
METRIC
; #@! TA.AperFunction,Plated,PTH,ViaDrill
T1C0.500
; #@! TA.AperFunction,Plated,PTH,ComponentDrill
T2C0.700
; #@! TA.AperFunction,Plated,PTH,ComponentDrill
T3C0.800
; #@! TA.AperFunction,Plated,PTH,ComponentDrill
T4C0.900
; #@! TA.AperFunction,Plated,PTH,ComponentDrill
T5C1.000
; #@! TA.AperFunction,Plated,PTH,ComponentDrill
T6C1.100
; #@! TA.AperFunction,Plated,PTH,ComponentDrill
T7C1.520
%
G90
G05
T1
X154.925Y-122.9
T2
X156.62Y-102.64
X156.64Y-121.15
X156.64Y-125.62
X164.24Y-102.64
X164.26Y-121.15
X164.26Y-125.62
T3
X144.57Y-94.3
X146.83Y-130.55
X147.07Y-94.3
X149.33Y-130.55
X149.76Y-94.4
X152.26Y-94.4
X157.4Y-97.44
X159.94Y-97.44
X162.48Y-97.44
T4
X162.0Y-110.585
X162.0Y-113.125
T5
X145.62Y-89.21
X145.89Y-135.09
X148.16Y-89.21
X148.43Y-135.09
X150.7Y-89.21
X150.97Y-135.09
X169.98Y-133.28
X169.98Y-135.82
X170.0Y-87.46
X170.0Y-90.0
T6
X145.0Y-123.95
X145.98Y-99.52
X147.54Y-123.95
X148.52Y-99.52
X150.08Y-123.95
X151.06Y-99.52
T7
X157.52Y-89.77
X157.6Y-133.01
X162.6Y-89.77
X162.68Y-133.01
T5
G00X150.09Y-110.282
M15
G01X150.09Y-112.282
M16
G05
G00X152.09Y-115.983
M15
G01X154.09Y-115.983
M16
G05
G00X156.09Y-110.282
M15
G01X156.09Y-112.282
M16
G05
M30
