%TF.GenerationSoftware,KiCad,Pcbnew,9.0.4*%
%TF.CreationDate,2025-10-15T15:11:25+01:00*%
%TF.ProjectId,breadboardPowerSupply,62726561-6462-46f6-9172-64506f776572,rev?*%
%TF.SameCoordinates,Original*%
%TF.FileFunction,Soldermask,Bot*%
%TF.FilePolarity,Negative*%
%FSLAX46Y46*%
G04 Gerber Fmt 4.6, Leading zero omitted, Abs format (unit mm)*
G04 Created by KiCad (PCBNEW 9.0.4) date 2025-10-15 15:11:25*
%MOMM*%
%LPD*%
G01*
G04 APERTURE LIST*
G04 Aperture macros list*
%AMRoundRect*
0 Rectangle with rounded corners*
0 $1 Rounding radius*
0 $2 $3 $4 $5 $6 $7 $8 $9 X,Y pos of 4 corners*
0 Add a 4 corners polygon primitive as box body*
4,1,4,$2,$3,$4,$5,$6,$7,$8,$9,$2,$3,0*
0 Add four circle primitives for the rounded corners*
1,1,$1+$1,$2,$3*
1,1,$1+$1,$4,$5*
1,1,$1+$1,$6,$7*
1,1,$1+$1,$8,$9*
0 Add four rect primitives between the rounded corners*
20,1,$1+$1,$2,$3,$4,$5,0*
20,1,$1+$1,$4,$5,$6,$7,0*
20,1,$1+$1,$6,$7,$8,$9,0*
20,1,$1+$1,$8,$9,$2,$3,0*%
G04 Aperture macros list end*
%ADD10RoundRect,0.875000X-0.875000X-0.875000X0.875000X-0.875000X0.875000X0.875000X-0.875000X0.875000X0*%
%ADD11RoundRect,0.750000X-0.750000X-1.000000X0.750000X-1.000000X0.750000X1.000000X-0.750000X1.000000X0*%
%ADD12R,3.500000X3.500000*%
%ADD13R,3.000000X3.000000*%
%ADD14C,3.000000*%
%ADD15C,1.400000*%
%ADD16R,1.500000X1.500000*%
%ADD17C,1.600000*%
%ADD18R,1.700000X1.700000*%
%ADD19C,1.700000*%
%ADD20R,1.800000X1.800000*%
%ADD21C,1.800000*%
%ADD22R,1.905000X2.000000*%
%ADD23O,1.905000X2.000000*%
G04 APERTURE END LIST*
D10*
%TO.C,J6*%
X153090000Y-115982500D03*
D11*
X150090000Y-111282500D03*
D12*
X156090000Y-111282500D03*
%TD*%
D13*
%TO.C,J5*%
X157600000Y-133010000D03*
D14*
X162680000Y-133010000D03*
%TD*%
D15*
%TO.C,R3*%
X156640000Y-125620000D03*
X164260000Y-125620000D03*
%TD*%
D16*
%TO.C,SW1*%
X159940000Y-97440000D03*
D17*
X157400000Y-97440000D03*
X162480000Y-97440000D03*
%TD*%
D18*
%TO.C,J1*%
X170000000Y-87460000D03*
D19*
X170000000Y-90000000D03*
%TD*%
D18*
%TO.C,J4*%
X145890000Y-135090000D03*
D19*
X148430000Y-135090000D03*
X150970000Y-135090000D03*
%TD*%
D17*
%TO.C,C1*%
X149760000Y-94400000D03*
X152260000Y-94400000D03*
%TD*%
D18*
%TO.C,J3*%
X145620000Y-89210000D03*
D19*
X148160000Y-89210000D03*
X150700000Y-89210000D03*
%TD*%
D13*
%TO.C,J7*%
X157520000Y-89770000D03*
D14*
X162600000Y-89770000D03*
%TD*%
D18*
%TO.C,J2*%
X169980000Y-133280000D03*
D19*
X169980000Y-135820000D03*
%TD*%
D17*
%TO.C,C3*%
X146830000Y-130550000D03*
X149330000Y-130550000D03*
%TD*%
D15*
%TO.C,R1*%
X164260000Y-121150000D03*
X156640000Y-121150000D03*
%TD*%
D17*
%TO.C,C2*%
X147070000Y-94300000D03*
X144570000Y-94300000D03*
%TD*%
D20*
%TO.C,D1*%
X162000000Y-113125000D03*
D21*
X162000000Y-110585000D03*
%TD*%
D22*
%TO.C,U2*%
X145000000Y-123950000D03*
D23*
X147540000Y-123950000D03*
X150080000Y-123950000D03*
%TD*%
D15*
%TO.C,R2*%
X156620000Y-102640000D03*
X164240000Y-102640000D03*
%TD*%
D22*
%TO.C,U1*%
X151060000Y-99520000D03*
D23*
X148520000Y-99520000D03*
X145980000Y-99520000D03*
%TD*%
M02*
