%TF.GenerationSoftware,KiCad,Pcbnew,9.0.4*%
%TF.CreationDate,2025-10-16T10:52:12+01:00*%
%TF.ProjectId,tinySolarSupply,74696e79-536f-46c6-9172-537570706c79,rev?*%
%TF.SameCoordinates,Original*%
%TF.FileFunction,Legend,Top*%
%TF.FilePolarity,Positive*%
%FSLAX46Y46*%
G04 Gerber Fmt 4.6, Leading zero omitted, Abs format (unit mm)*
G04 Created by KiCad (PCBNEW 9.0.4) date 2025-10-16 10:52:12*
%MOMM*%
%LPD*%
G01*
G04 APERTURE LIST*
%ADD10C,0.100000*%
%ADD11C,0.150000*%
%ADD12C,0.152400*%
%ADD13C,0.120000*%
G04 APERTURE END LIST*
D10*
X116303884Y-136491466D02*
X117065789Y-136491466D01*
X116684836Y-136872419D02*
X116684836Y-136110514D01*
X106803884Y-136491466D02*
X107565789Y-136491466D01*
X107184836Y-136872419D02*
X107184836Y-136110514D01*
X121290476Y-140664895D02*
X121290476Y-141312514D01*
X121290476Y-141312514D02*
X121328571Y-141388704D01*
X121328571Y-141388704D02*
X121366666Y-141426800D01*
X121366666Y-141426800D02*
X121442857Y-141464895D01*
X121442857Y-141464895D02*
X121595238Y-141464895D01*
X121595238Y-141464895D02*
X121671428Y-141426800D01*
X121671428Y-141426800D02*
X121709523Y-141388704D01*
X121709523Y-141388704D02*
X121747619Y-141312514D01*
X121747619Y-141312514D02*
X121747619Y-140664895D01*
X122547618Y-141464895D02*
X122090475Y-141464895D01*
X122319047Y-141464895D02*
X122319047Y-140664895D01*
X122319047Y-140664895D02*
X122242856Y-140779180D01*
X122242856Y-140779180D02*
X122166666Y-140855371D01*
X122166666Y-140855371D02*
X122090475Y-140893466D01*
D11*
X121724901Y-146145178D02*
X121724901Y-145907083D01*
X121962996Y-146002321D02*
X121724901Y-145907083D01*
X121724901Y-145907083D02*
X121486806Y-146002321D01*
X121867758Y-145716607D02*
X121724901Y-145907083D01*
X121724901Y-145907083D02*
X121582044Y-145716607D01*
X123478901Y-145655818D02*
X123478901Y-145893913D01*
X123240806Y-145798675D02*
X123478901Y-145893913D01*
X123478901Y-145893913D02*
X123716996Y-145798675D01*
X123336044Y-146084389D02*
X123478901Y-145893913D01*
X123478901Y-145893913D02*
X123621758Y-146084389D01*
D10*
X129366666Y-135564895D02*
X128985714Y-135564895D01*
X128985714Y-135564895D02*
X128985714Y-134764895D01*
X130052380Y-135564895D02*
X129595237Y-135564895D01*
X129823809Y-135564895D02*
X129823809Y-134764895D01*
X129823809Y-134764895D02*
X129747618Y-134879180D01*
X129747618Y-134879180D02*
X129671428Y-134955371D01*
X129671428Y-134955371D02*
X129595237Y-134993466D01*
X115266667Y-147464895D02*
X115000000Y-147083942D01*
X114809524Y-147464895D02*
X114809524Y-146664895D01*
X114809524Y-146664895D02*
X115114286Y-146664895D01*
X115114286Y-146664895D02*
X115190476Y-146702990D01*
X115190476Y-146702990D02*
X115228571Y-146741085D01*
X115228571Y-146741085D02*
X115266667Y-146817276D01*
X115266667Y-146817276D02*
X115266667Y-146931561D01*
X115266667Y-146931561D02*
X115228571Y-147007752D01*
X115228571Y-147007752D02*
X115190476Y-147045847D01*
X115190476Y-147045847D02*
X115114286Y-147083942D01*
X115114286Y-147083942D02*
X114809524Y-147083942D01*
X115533333Y-146664895D02*
X116028571Y-146664895D01*
X116028571Y-146664895D02*
X115761905Y-146969657D01*
X115761905Y-146969657D02*
X115876190Y-146969657D01*
X115876190Y-146969657D02*
X115952381Y-147007752D01*
X115952381Y-147007752D02*
X115990476Y-147045847D01*
X115990476Y-147045847D02*
X116028571Y-147122038D01*
X116028571Y-147122038D02*
X116028571Y-147312514D01*
X116028571Y-147312514D02*
X115990476Y-147388704D01*
X115990476Y-147388704D02*
X115952381Y-147426800D01*
X115952381Y-147426800D02*
X115876190Y-147464895D01*
X115876190Y-147464895D02*
X115647619Y-147464895D01*
X115647619Y-147464895D02*
X115571428Y-147426800D01*
X115571428Y-147426800D02*
X115533333Y-147388704D01*
X108358333Y-140264895D02*
X108358333Y-140836323D01*
X108358333Y-140836323D02*
X108320238Y-140950609D01*
X108320238Y-140950609D02*
X108244047Y-141026800D01*
X108244047Y-141026800D02*
X108129762Y-141064895D01*
X108129762Y-141064895D02*
X108053571Y-141064895D01*
X108663095Y-140264895D02*
X109158333Y-140264895D01*
X109158333Y-140264895D02*
X108891667Y-140569657D01*
X108891667Y-140569657D02*
X109005952Y-140569657D01*
X109005952Y-140569657D02*
X109082143Y-140607752D01*
X109082143Y-140607752D02*
X109120238Y-140645847D01*
X109120238Y-140645847D02*
X109158333Y-140722038D01*
X109158333Y-140722038D02*
X109158333Y-140912514D01*
X109158333Y-140912514D02*
X109120238Y-140988704D01*
X109120238Y-140988704D02*
X109082143Y-141026800D01*
X109082143Y-141026800D02*
X109005952Y-141064895D01*
X109005952Y-141064895D02*
X108777381Y-141064895D01*
X108777381Y-141064895D02*
X108701190Y-141026800D01*
X108701190Y-141026800D02*
X108663095Y-140988704D01*
X135233333Y-143664895D02*
X135233333Y-144236323D01*
X135233333Y-144236323D02*
X135195238Y-144350609D01*
X135195238Y-144350609D02*
X135119047Y-144426800D01*
X135119047Y-144426800D02*
X135004762Y-144464895D01*
X135004762Y-144464895D02*
X134928571Y-144464895D01*
X136033333Y-144464895D02*
X135576190Y-144464895D01*
X135804762Y-144464895D02*
X135804762Y-143664895D01*
X135804762Y-143664895D02*
X135728571Y-143779180D01*
X135728571Y-143779180D02*
X135652381Y-143855371D01*
X135652381Y-143855371D02*
X135576190Y-143893466D01*
X105133333Y-145364895D02*
X105133333Y-145936323D01*
X105133333Y-145936323D02*
X105095238Y-146050609D01*
X105095238Y-146050609D02*
X105019047Y-146126800D01*
X105019047Y-146126800D02*
X104904762Y-146164895D01*
X104904762Y-146164895D02*
X104828571Y-146164895D01*
X105476190Y-145441085D02*
X105514286Y-145402990D01*
X105514286Y-145402990D02*
X105590476Y-145364895D01*
X105590476Y-145364895D02*
X105780952Y-145364895D01*
X105780952Y-145364895D02*
X105857143Y-145402990D01*
X105857143Y-145402990D02*
X105895238Y-145441085D01*
X105895238Y-145441085D02*
X105933333Y-145517276D01*
X105933333Y-145517276D02*
X105933333Y-145593466D01*
X105933333Y-145593466D02*
X105895238Y-145707752D01*
X105895238Y-145707752D02*
X105438095Y-146164895D01*
X105438095Y-146164895D02*
X105933333Y-146164895D01*
X129466667Y-147288704D02*
X129428571Y-147326800D01*
X129428571Y-147326800D02*
X129314286Y-147364895D01*
X129314286Y-147364895D02*
X129238095Y-147364895D01*
X129238095Y-147364895D02*
X129123809Y-147326800D01*
X129123809Y-147326800D02*
X129047619Y-147250609D01*
X129047619Y-147250609D02*
X129009524Y-147174419D01*
X129009524Y-147174419D02*
X128971428Y-147022038D01*
X128971428Y-147022038D02*
X128971428Y-146907752D01*
X128971428Y-146907752D02*
X129009524Y-146755371D01*
X129009524Y-146755371D02*
X129047619Y-146679180D01*
X129047619Y-146679180D02*
X129123809Y-146602990D01*
X129123809Y-146602990D02*
X129238095Y-146564895D01*
X129238095Y-146564895D02*
X129314286Y-146564895D01*
X129314286Y-146564895D02*
X129428571Y-146602990D01*
X129428571Y-146602990D02*
X129466667Y-146641085D01*
X130228571Y-147364895D02*
X129771428Y-147364895D01*
X130000000Y-147364895D02*
X130000000Y-146564895D01*
X130000000Y-146564895D02*
X129923809Y-146679180D01*
X129923809Y-146679180D02*
X129847619Y-146755371D01*
X129847619Y-146755371D02*
X129771428Y-146793466D01*
X120409524Y-135464895D02*
X120409524Y-134664895D01*
X120409524Y-134664895D02*
X120600000Y-134664895D01*
X120600000Y-134664895D02*
X120714286Y-134702990D01*
X120714286Y-134702990D02*
X120790476Y-134779180D01*
X120790476Y-134779180D02*
X120828571Y-134855371D01*
X120828571Y-134855371D02*
X120866667Y-135007752D01*
X120866667Y-135007752D02*
X120866667Y-135122038D01*
X120866667Y-135122038D02*
X120828571Y-135274419D01*
X120828571Y-135274419D02*
X120790476Y-135350609D01*
X120790476Y-135350609D02*
X120714286Y-135426800D01*
X120714286Y-135426800D02*
X120600000Y-135464895D01*
X120600000Y-135464895D02*
X120409524Y-135464895D01*
X121628571Y-135464895D02*
X121171428Y-135464895D01*
X121400000Y-135464895D02*
X121400000Y-134664895D01*
X121400000Y-134664895D02*
X121323809Y-134779180D01*
X121323809Y-134779180D02*
X121247619Y-134855371D01*
X121247619Y-134855371D02*
X121171428Y-134893466D01*
X119466667Y-150964895D02*
X119200000Y-150583942D01*
X119009524Y-150964895D02*
X119009524Y-150164895D01*
X119009524Y-150164895D02*
X119314286Y-150164895D01*
X119314286Y-150164895D02*
X119390476Y-150202990D01*
X119390476Y-150202990D02*
X119428571Y-150241085D01*
X119428571Y-150241085D02*
X119466667Y-150317276D01*
X119466667Y-150317276D02*
X119466667Y-150431561D01*
X119466667Y-150431561D02*
X119428571Y-150507752D01*
X119428571Y-150507752D02*
X119390476Y-150545847D01*
X119390476Y-150545847D02*
X119314286Y-150583942D01*
X119314286Y-150583942D02*
X119009524Y-150583942D01*
X120152381Y-150431561D02*
X120152381Y-150964895D01*
X119961905Y-150126800D02*
X119771428Y-150698228D01*
X119771428Y-150698228D02*
X120266667Y-150698228D01*
X119466667Y-147364895D02*
X119200000Y-146983942D01*
X119009524Y-147364895D02*
X119009524Y-146564895D01*
X119009524Y-146564895D02*
X119314286Y-146564895D01*
X119314286Y-146564895D02*
X119390476Y-146602990D01*
X119390476Y-146602990D02*
X119428571Y-146641085D01*
X119428571Y-146641085D02*
X119466667Y-146717276D01*
X119466667Y-146717276D02*
X119466667Y-146831561D01*
X119466667Y-146831561D02*
X119428571Y-146907752D01*
X119428571Y-146907752D02*
X119390476Y-146945847D01*
X119390476Y-146945847D02*
X119314286Y-146983942D01*
X119314286Y-146983942D02*
X119009524Y-146983942D01*
X119771428Y-146641085D02*
X119809524Y-146602990D01*
X119809524Y-146602990D02*
X119885714Y-146564895D01*
X119885714Y-146564895D02*
X120076190Y-146564895D01*
X120076190Y-146564895D02*
X120152381Y-146602990D01*
X120152381Y-146602990D02*
X120190476Y-146641085D01*
X120190476Y-146641085D02*
X120228571Y-146717276D01*
X120228571Y-146717276D02*
X120228571Y-146793466D01*
X120228571Y-146793466D02*
X120190476Y-146907752D01*
X120190476Y-146907752D02*
X119733333Y-147364895D01*
X119733333Y-147364895D02*
X120228571Y-147364895D01*
X124566667Y-147389895D02*
X124300000Y-147008942D01*
X124109524Y-147389895D02*
X124109524Y-146589895D01*
X124109524Y-146589895D02*
X124414286Y-146589895D01*
X124414286Y-146589895D02*
X124490476Y-146627990D01*
X124490476Y-146627990D02*
X124528571Y-146666085D01*
X124528571Y-146666085D02*
X124566667Y-146742276D01*
X124566667Y-146742276D02*
X124566667Y-146856561D01*
X124566667Y-146856561D02*
X124528571Y-146932752D01*
X124528571Y-146932752D02*
X124490476Y-146970847D01*
X124490476Y-146970847D02*
X124414286Y-147008942D01*
X124414286Y-147008942D02*
X124109524Y-147008942D01*
X125328571Y-147389895D02*
X124871428Y-147389895D01*
X125100000Y-147389895D02*
X125100000Y-146589895D01*
X125100000Y-146589895D02*
X125023809Y-146704180D01*
X125023809Y-146704180D02*
X124947619Y-146780371D01*
X124947619Y-146780371D02*
X124871428Y-146818466D01*
X109823809Y-148741085D02*
X109747619Y-148702990D01*
X109747619Y-148702990D02*
X109671428Y-148626800D01*
X109671428Y-148626800D02*
X109557142Y-148512514D01*
X109557142Y-148512514D02*
X109480952Y-148474419D01*
X109480952Y-148474419D02*
X109404761Y-148474419D01*
X109442857Y-148664895D02*
X109366666Y-148626800D01*
X109366666Y-148626800D02*
X109290476Y-148550609D01*
X109290476Y-148550609D02*
X109252380Y-148398228D01*
X109252380Y-148398228D02*
X109252380Y-148131561D01*
X109252380Y-148131561D02*
X109290476Y-147979180D01*
X109290476Y-147979180D02*
X109366666Y-147902990D01*
X109366666Y-147902990D02*
X109442857Y-147864895D01*
X109442857Y-147864895D02*
X109595238Y-147864895D01*
X109595238Y-147864895D02*
X109671428Y-147902990D01*
X109671428Y-147902990D02*
X109747619Y-147979180D01*
X109747619Y-147979180D02*
X109785714Y-148131561D01*
X109785714Y-148131561D02*
X109785714Y-148398228D01*
X109785714Y-148398228D02*
X109747619Y-148550609D01*
X109747619Y-148550609D02*
X109671428Y-148626800D01*
X109671428Y-148626800D02*
X109595238Y-148664895D01*
X109595238Y-148664895D02*
X109442857Y-148664895D01*
X110547618Y-148664895D02*
X110090475Y-148664895D01*
X110319047Y-148664895D02*
X110319047Y-147864895D01*
X110319047Y-147864895D02*
X110242856Y-147979180D01*
X110242856Y-147979180D02*
X110166666Y-148055371D01*
X110166666Y-148055371D02*
X110090475Y-148093466D01*
X110909524Y-135464895D02*
X110909524Y-134664895D01*
X110909524Y-134664895D02*
X111100000Y-134664895D01*
X111100000Y-134664895D02*
X111214286Y-134702990D01*
X111214286Y-134702990D02*
X111290476Y-134779180D01*
X111290476Y-134779180D02*
X111328571Y-134855371D01*
X111328571Y-134855371D02*
X111366667Y-135007752D01*
X111366667Y-135007752D02*
X111366667Y-135122038D01*
X111366667Y-135122038D02*
X111328571Y-135274419D01*
X111328571Y-135274419D02*
X111290476Y-135350609D01*
X111290476Y-135350609D02*
X111214286Y-135426800D01*
X111214286Y-135426800D02*
X111100000Y-135464895D01*
X111100000Y-135464895D02*
X110909524Y-135464895D01*
X111671428Y-134741085D02*
X111709524Y-134702990D01*
X111709524Y-134702990D02*
X111785714Y-134664895D01*
X111785714Y-134664895D02*
X111976190Y-134664895D01*
X111976190Y-134664895D02*
X112052381Y-134702990D01*
X112052381Y-134702990D02*
X112090476Y-134741085D01*
X112090476Y-134741085D02*
X112128571Y-134817276D01*
X112128571Y-134817276D02*
X112128571Y-134893466D01*
X112128571Y-134893466D02*
X112090476Y-135007752D01*
X112090476Y-135007752D02*
X111633333Y-135464895D01*
X111633333Y-135464895D02*
X112128571Y-135464895D01*
X129466667Y-150788704D02*
X129428571Y-150826800D01*
X129428571Y-150826800D02*
X129314286Y-150864895D01*
X129314286Y-150864895D02*
X129238095Y-150864895D01*
X129238095Y-150864895D02*
X129123809Y-150826800D01*
X129123809Y-150826800D02*
X129047619Y-150750609D01*
X129047619Y-150750609D02*
X129009524Y-150674419D01*
X129009524Y-150674419D02*
X128971428Y-150522038D01*
X128971428Y-150522038D02*
X128971428Y-150407752D01*
X128971428Y-150407752D02*
X129009524Y-150255371D01*
X129009524Y-150255371D02*
X129047619Y-150179180D01*
X129047619Y-150179180D02*
X129123809Y-150102990D01*
X129123809Y-150102990D02*
X129238095Y-150064895D01*
X129238095Y-150064895D02*
X129314286Y-150064895D01*
X129314286Y-150064895D02*
X129428571Y-150102990D01*
X129428571Y-150102990D02*
X129466667Y-150141085D01*
X129733333Y-150064895D02*
X130228571Y-150064895D01*
X130228571Y-150064895D02*
X129961905Y-150369657D01*
X129961905Y-150369657D02*
X130076190Y-150369657D01*
X130076190Y-150369657D02*
X130152381Y-150407752D01*
X130152381Y-150407752D02*
X130190476Y-150445847D01*
X130190476Y-150445847D02*
X130228571Y-150522038D01*
X130228571Y-150522038D02*
X130228571Y-150712514D01*
X130228571Y-150712514D02*
X130190476Y-150788704D01*
X130190476Y-150788704D02*
X130152381Y-150826800D01*
X130152381Y-150826800D02*
X130076190Y-150864895D01*
X130076190Y-150864895D02*
X129847619Y-150864895D01*
X129847619Y-150864895D02*
X129771428Y-150826800D01*
X129771428Y-150826800D02*
X129733333Y-150788704D01*
X124566667Y-150688704D02*
X124528571Y-150726800D01*
X124528571Y-150726800D02*
X124414286Y-150764895D01*
X124414286Y-150764895D02*
X124338095Y-150764895D01*
X124338095Y-150764895D02*
X124223809Y-150726800D01*
X124223809Y-150726800D02*
X124147619Y-150650609D01*
X124147619Y-150650609D02*
X124109524Y-150574419D01*
X124109524Y-150574419D02*
X124071428Y-150422038D01*
X124071428Y-150422038D02*
X124071428Y-150307752D01*
X124071428Y-150307752D02*
X124109524Y-150155371D01*
X124109524Y-150155371D02*
X124147619Y-150079180D01*
X124147619Y-150079180D02*
X124223809Y-150002990D01*
X124223809Y-150002990D02*
X124338095Y-149964895D01*
X124338095Y-149964895D02*
X124414286Y-149964895D01*
X124414286Y-149964895D02*
X124528571Y-150002990D01*
X124528571Y-150002990D02*
X124566667Y-150041085D01*
X124871428Y-150041085D02*
X124909524Y-150002990D01*
X124909524Y-150002990D02*
X124985714Y-149964895D01*
X124985714Y-149964895D02*
X125176190Y-149964895D01*
X125176190Y-149964895D02*
X125252381Y-150002990D01*
X125252381Y-150002990D02*
X125290476Y-150041085D01*
X125290476Y-150041085D02*
X125328571Y-150117276D01*
X125328571Y-150117276D02*
X125328571Y-150193466D01*
X125328571Y-150193466D02*
X125290476Y-150307752D01*
X125290476Y-150307752D02*
X124833333Y-150764895D01*
X124833333Y-150764895D02*
X125328571Y-150764895D01*
X104733333Y-137464895D02*
X104733333Y-138036323D01*
X104733333Y-138036323D02*
X104695238Y-138150609D01*
X104695238Y-138150609D02*
X104619047Y-138226800D01*
X104619047Y-138226800D02*
X104504762Y-138264895D01*
X104504762Y-138264895D02*
X104428571Y-138264895D01*
X105457143Y-137731561D02*
X105457143Y-138264895D01*
X105266667Y-137426800D02*
X105076190Y-137998228D01*
X105076190Y-137998228D02*
X105571429Y-137998228D01*
D12*
%TO.C,U1*%
X120960751Y-145124799D02*
X122764151Y-145124799D01*
X120960751Y-143211738D02*
X120960751Y-143888260D01*
X122764151Y-141975199D02*
X120960751Y-141975199D01*
D13*
%TO.C,L1*%
X132900000Y-136430000D02*
X131400000Y-136430000D01*
X126100000Y-136430000D02*
X127600000Y-136430000D01*
X126100000Y-136430000D02*
X126100000Y-143830000D01*
X132900000Y-143830000D02*
X132900000Y-136430000D01*
X132900000Y-143830000D02*
X131400000Y-143830000D01*
X126100000Y-143830000D02*
X127600000Y-143830000D01*
%TO.C,R3*%
X115639564Y-149235000D02*
X115185436Y-149235000D01*
X115639564Y-147765000D02*
X115185436Y-147765000D01*
%TO.C,J3*%
X118380000Y-146660000D02*
X118380000Y-145277000D01*
X118380000Y-146660000D02*
X116997000Y-146660000D01*
X118140000Y-146420000D02*
X118140000Y-141580000D01*
X118140000Y-146420000D02*
X108240000Y-146420000D01*
X118140000Y-141580000D02*
X108240000Y-141580000D01*
X113866667Y-144635000D02*
X113866667Y-143365000D01*
X108240000Y-146420000D02*
X108240000Y-141580000D01*
X115220000Y-144635000D02*
X113866667Y-144635000D01*
X113866667Y-143365000D01*
X115220000Y-143365000D01*
X115220000Y-144635000D01*
G36*
X115220000Y-144635000D02*
G01*
X113866667Y-144635000D01*
X113866667Y-143365000D01*
X115220000Y-143365000D01*
X115220000Y-144635000D01*
G37*
X115220000Y-144635000D02*
X111160000Y-144635000D01*
X111160000Y-143365000D01*
X115220000Y-143365000D01*
X115220000Y-144635000D01*
%TO.C,J1*%
X134230000Y-144955000D02*
X135500000Y-144955000D01*
X134230000Y-146225000D02*
X134230000Y-144955000D01*
X136577358Y-148335000D02*
X136890000Y-148335000D01*
X136577358Y-149195000D02*
X136890000Y-149195000D01*
X136660000Y-145795000D02*
X136890000Y-145795000D01*
X136660000Y-146655000D02*
X136890000Y-146655000D01*
X136890000Y-144845000D02*
X136890000Y-150145000D01*
X136890000Y-147495000D02*
X139650000Y-147495000D01*
X136890000Y-150145000D02*
X139650000Y-150145000D01*
X139650000Y-144845000D02*
X136890000Y-144845000D01*
X139650000Y-148335000D02*
X145650000Y-148335000D01*
X139650000Y-150145000D02*
X139650000Y-144845000D01*
X145650000Y-148335000D02*
X145650000Y-149195000D01*
X145650000Y-149195000D02*
X139650000Y-149195000D01*
X139650000Y-145795000D02*
X145650000Y-145795000D01*
X145650000Y-146655000D01*
X139650000Y-146655000D01*
X139650000Y-145795000D01*
G36*
X139650000Y-145795000D02*
G01*
X145650000Y-145795000D01*
X145650000Y-146655000D01*
X139650000Y-146655000D01*
X139650000Y-145795000D01*
G37*
%TO.C,J2*%
X106605000Y-151485000D02*
X105335000Y-151485000D01*
X106605000Y-150215000D02*
X106605000Y-151485000D01*
X104257642Y-148105000D02*
X103945000Y-148105000D01*
X104257642Y-147245000D02*
X103945000Y-147245000D01*
X104175000Y-150645000D02*
X103945000Y-150645000D01*
X104175000Y-149785000D02*
X103945000Y-149785000D01*
X103945000Y-151595000D02*
X103945000Y-146295000D01*
X103945000Y-148945000D02*
X101185000Y-148945000D01*
X103945000Y-146295000D02*
X101185000Y-146295000D01*
X101185000Y-151595000D02*
X103945000Y-151595000D01*
X101185000Y-148105000D02*
X95185000Y-148105000D01*
X101185000Y-146295000D02*
X101185000Y-151595000D01*
X95185000Y-148105000D02*
X95185000Y-147245000D01*
X95185000Y-147245000D02*
X101185000Y-147245000D01*
X101185000Y-150645000D02*
X95185000Y-150645000D01*
X95185000Y-149785000D01*
X101185000Y-149785000D01*
X101185000Y-150645000D01*
G36*
X101185000Y-150645000D02*
G01*
X95185000Y-150645000D01*
X95185000Y-149785000D01*
X101185000Y-149785000D01*
X101185000Y-150645000D01*
G37*
%TO.C,C1*%
X129886252Y-147765000D02*
X129363748Y-147765000D01*
X129886252Y-149235000D02*
X129363748Y-149235000D01*
%TO.C,D1*%
X124510000Y-135780000D02*
X119000000Y-135780000D01*
X124510000Y-139080000D02*
X119000000Y-139080000D01*
X124510000Y-139080000D02*
X124510000Y-135780000D01*
%TO.C,R4*%
X119360436Y-152735000D02*
X119814564Y-152735000D01*
X119360436Y-151265000D02*
X119814564Y-151265000D01*
%TO.C,R2*%
X119814564Y-149235000D02*
X119360436Y-149235000D01*
X119814564Y-147765000D02*
X119360436Y-147765000D01*
%TO.C,R1*%
X124927064Y-149235000D02*
X124472936Y-149235000D01*
X124927064Y-147765000D02*
X124472936Y-147765000D01*
%TO.C,Q1*%
X109937500Y-149115000D02*
X109287500Y-149115000D01*
X109937500Y-149115000D02*
X110587500Y-149115000D01*
X109937500Y-152235000D02*
X109287500Y-152235000D01*
X109937500Y-152235000D02*
X110587500Y-152235000D01*
X108775000Y-149165000D02*
X108535000Y-148835000D01*
X109015000Y-148835000D01*
X108775000Y-149165000D01*
G36*
X108775000Y-149165000D02*
G01*
X108535000Y-148835000D01*
X109015000Y-148835000D01*
X108775000Y-149165000D01*
G37*
%TO.C,D2*%
X115010000Y-139080000D02*
X115010000Y-135780000D01*
X115010000Y-139080000D02*
X109500000Y-139080000D01*
X115010000Y-135780000D02*
X109500000Y-135780000D01*
%TO.C,C3*%
X129363748Y-151295000D02*
X129886252Y-151295000D01*
X129363748Y-152765000D02*
X129886252Y-152765000D01*
%TO.C,C2*%
X125411252Y-153110000D02*
X123988748Y-153110000D01*
X125411252Y-151290000D02*
X123988748Y-151290000D01*
%TO.C,J4*%
X106270000Y-143270000D02*
X105000000Y-143270000D01*
X106270000Y-142000000D02*
X106270000Y-143270000D01*
X103922642Y-139890000D02*
X103610000Y-139890000D01*
X103922642Y-139030000D02*
X103610000Y-139030000D01*
X103840000Y-142430000D02*
X103610000Y-142430000D01*
X103840000Y-141570000D02*
X103610000Y-141570000D01*
X103610000Y-143380000D02*
X103610000Y-138080000D01*
X103610000Y-140730000D02*
X100850000Y-140730000D01*
X103610000Y-138080000D02*
X100850000Y-138080000D01*
X100850000Y-143380000D02*
X103610000Y-143380000D01*
X100850000Y-139890000D02*
X94850000Y-139890000D01*
X100850000Y-138080000D02*
X100850000Y-143380000D01*
X94850000Y-139890000D02*
X94850000Y-139030000D01*
X94850000Y-139030000D02*
X100850000Y-139030000D01*
X100850000Y-142430000D02*
X94850000Y-142430000D01*
X94850000Y-141570000D01*
X100850000Y-141570000D01*
X100850000Y-142430000D01*
G36*
X100850000Y-142430000D02*
G01*
X94850000Y-142430000D01*
X94850000Y-141570000D01*
X100850000Y-141570000D01*
X100850000Y-142430000D01*
G37*
%TD*%
M02*
