%TF.GenerationSoftware,KiCad,Pcbnew,9.0.4*%
%TF.CreationDate,2025-10-16T10:52:11+01:00*%
%TF.ProjectId,tinySolarSupply,74696e79-536f-46c6-9172-537570706c79,rev?*%
%TF.SameCoordinates,Original*%
%TF.FileFunction,Copper,L2,Bot*%
%TF.FilePolarity,Positive*%
%FSLAX46Y46*%
G04 Gerber Fmt 4.6, Leading zero omitted, Abs format (unit mm)*
G04 Created by KiCad (PCBNEW 9.0.4) date 2025-10-16 10:52:11*
%MOMM*%
%LPD*%
G01*
G04 APERTURE LIST*
G04 Aperture macros list*
%AMRoundRect*
0 Rectangle with rounded corners*
0 $1 Rounding radius*
0 $2 $3 $4 $5 $6 $7 $8 $9 X,Y pos of 4 corners*
0 Add a 4 corners polygon primitive as box body*
4,1,4,$2,$3,$4,$5,$6,$7,$8,$9,$2,$3,0*
0 Add four circle primitives for the rounded corners*
1,1,$1+$1,$2,$3*
1,1,$1+$1,$4,$5*
1,1,$1+$1,$6,$7*
1,1,$1+$1,$8,$9*
0 Add four rect primitives between the rounded corners*
20,1,$1+$1,$2,$3,$4,$5,0*
20,1,$1+$1,$4,$5,$6,$7,0*
20,1,$1+$1,$6,$7,$8,$9,0*
20,1,$1+$1,$8,$9,$2,$3,0*%
G04 Aperture macros list end*
%TA.AperFunction,ComponentPad*%
%ADD10RoundRect,0.250000X0.550000X0.550000X-0.550000X0.550000X-0.550000X-0.550000X0.550000X-0.550000X0*%
%TD*%
%TA.AperFunction,ComponentPad*%
%ADD11C,1.600000*%
%TD*%
%TA.AperFunction,ComponentPad*%
%ADD12R,1.700000X1.700000*%
%TD*%
%TA.AperFunction,ComponentPad*%
%ADD13C,1.700000*%
%TD*%
%TA.AperFunction,ViaPad*%
%ADD14C,0.600000*%
%TD*%
%TA.AperFunction,Conductor*%
%ADD15C,0.200000*%
%TD*%
G04 APERTURE END LIST*
D10*
%TO.P,J3,1,Pin_1*%
%TO.N,Net-(J3-Pin_1)*%
X117000000Y-144000000D03*
D11*
%TO.P,J3,2,Pin_2*%
%TO.N,/BAT_P*%
X109380000Y-144000000D03*
%TD*%
D12*
%TO.P,J1,1,Pin_1*%
%TO.N,GNDD*%
X135500000Y-146225000D03*
D13*
%TO.P,J1,2,Pin_2*%
%TO.N,/OUT_P*%
X135500000Y-148765000D03*
%TD*%
D12*
%TO.P,J2,1,Pin_1*%
%TO.N,/BAT_P*%
X105335000Y-150215000D03*
D13*
%TO.P,J2,2,Pin_2*%
%TO.N,GNDD*%
X105335000Y-147675000D03*
%TD*%
D12*
%TO.P,J4,1,Pin_1*%
%TO.N,/SOLAR_P*%
X105000000Y-142000000D03*
D13*
%TO.P,J4,2,Pin_2*%
%TO.N,GNDD*%
X105000000Y-139460000D03*
%TD*%
D14*
%TO.N,GNDD*%
X118675000Y-150000000D03*
X122518015Y-150618015D03*
X124500000Y-145500000D03*
%TO.N,Net-(J3-Pin_1)*%
X121500000Y-146500000D03*
X126500000Y-146500000D03*
%TD*%
D15*
%TO.N,Net-(J3-Pin_1)*%
X126500000Y-146500000D02*
X121500000Y-146500000D01*
%TD*%
%TA.AperFunction,Conductor*%
%TO.N,GNDD*%
G36*
X134015677Y-135019685D02*
G01*
X134036319Y-135036319D01*
X135562435Y-136562435D01*
X135594529Y-136618022D01*
X135601601Y-136644417D01*
X135701954Y-136886690D01*
X135701958Y-136886700D01*
X135833075Y-137113803D01*
X135992718Y-137321851D01*
X135992726Y-137321860D01*
X136178140Y-137507274D01*
X136178148Y-137507281D01*
X136178149Y-137507282D01*
X136386197Y-137666924D01*
X136438000Y-137696832D01*
X136486215Y-137747398D01*
X136500000Y-137804219D01*
X136500000Y-144751000D01*
X136480315Y-144818039D01*
X136427511Y-144863794D01*
X136376000Y-144875000D01*
X135750000Y-144875000D01*
X135750000Y-145791988D01*
X135692993Y-145759075D01*
X135565826Y-145725000D01*
X135434174Y-145725000D01*
X135307007Y-145759075D01*
X135250000Y-145791988D01*
X135250000Y-144875000D01*
X134602155Y-144875000D01*
X134542627Y-144881401D01*
X134542620Y-144881403D01*
X134407913Y-144931645D01*
X134407906Y-144931649D01*
X134292812Y-145017809D01*
X134292809Y-145017812D01*
X134206649Y-145132906D01*
X134206645Y-145132913D01*
X134156403Y-145267620D01*
X134156401Y-145267627D01*
X134150000Y-145327155D01*
X134150000Y-145975000D01*
X135066988Y-145975000D01*
X135034075Y-146032007D01*
X135000000Y-146159174D01*
X135000000Y-146290826D01*
X135034075Y-146417993D01*
X135066988Y-146475000D01*
X134150000Y-146475000D01*
X134150000Y-147122844D01*
X134156401Y-147182372D01*
X134156403Y-147182379D01*
X134206645Y-147317086D01*
X134206649Y-147317093D01*
X134292809Y-147432187D01*
X134292812Y-147432190D01*
X134407906Y-147518350D01*
X134407913Y-147518354D01*
X134539470Y-147567422D01*
X134595404Y-147609293D01*
X134619821Y-147674758D01*
X134604969Y-147743031D01*
X134583819Y-147771285D01*
X134469889Y-147885215D01*
X134344951Y-148057179D01*
X134248444Y-148246585D01*
X134248443Y-148246587D01*
X134248443Y-148246588D01*
X134237304Y-148280870D01*
X134182753Y-148448760D01*
X134149500Y-148658713D01*
X134149500Y-148871286D01*
X134180332Y-149065955D01*
X134182754Y-149081243D01*
X134240029Y-149257517D01*
X134248444Y-149283414D01*
X134344951Y-149472820D01*
X134469890Y-149644786D01*
X134620213Y-149795109D01*
X134792179Y-149920048D01*
X134792181Y-149920049D01*
X134792184Y-149920051D01*
X134981588Y-150016557D01*
X135183757Y-150082246D01*
X135393713Y-150115500D01*
X135393714Y-150115500D01*
X135606286Y-150115500D01*
X135606287Y-150115500D01*
X135816243Y-150082246D01*
X136018412Y-150016557D01*
X136207816Y-149920051D01*
X136303115Y-149850813D01*
X136368921Y-149827333D01*
X136436975Y-149843159D01*
X136485670Y-149893264D01*
X136500000Y-149951131D01*
X136500000Y-151948638D01*
X136480315Y-152015677D01*
X136463681Y-152036319D01*
X135036319Y-153463681D01*
X134974996Y-153497166D01*
X134948638Y-153500000D01*
X106051362Y-153500000D01*
X105984323Y-153480315D01*
X105963681Y-153463681D01*
X104269275Y-151769275D01*
X104258750Y-151750000D01*
X107523974Y-151750000D01*
X108250000Y-151750000D01*
X109248000Y-151750000D01*
X110750000Y-151750000D01*
X111748000Y-151750000D01*
X113250000Y-151750000D01*
X114248000Y-151750000D01*
X115750000Y-151750000D01*
X116748000Y-151750000D01*
X118250000Y-151750000D01*
X118250000Y-151201471D01*
X118195236Y-151183678D01*
X118177258Y-151176232D01*
X118101998Y-151137885D01*
X119248000Y-151137885D01*
X119248000Y-151750000D01*
X120750000Y-151750000D01*
X124248000Y-151750000D01*
X125750000Y-151750000D01*
X126748000Y-151750000D01*
X128250000Y-151750000D01*
X129248000Y-151750000D01*
X130750000Y-151750000D01*
X131748000Y-151750000D01*
X133250000Y-151750000D01*
X134248000Y-151750000D01*
X135160424Y-151750000D01*
X135376000Y-151534424D01*
X135376000Y-151113500D01*
X135374103Y-151113500D01*
X135369231Y-151113404D01*
X135339779Y-151112246D01*
X135334914Y-151111959D01*
X135295835Y-151108881D01*
X135290997Y-151108404D01*
X135261764Y-151104944D01*
X135256941Y-151104277D01*
X135008272Y-151064892D01*
X135003477Y-151064036D01*
X134974577Y-151058287D01*
X134969817Y-151057242D01*
X134931700Y-151048089D01*
X134926995Y-151046862D01*
X134898653Y-151038869D01*
X134893993Y-151037455D01*
X134654560Y-150959658D01*
X134649963Y-150958064D01*
X134622353Y-150947879D01*
X134617825Y-150946107D01*
X134581608Y-150931109D01*
X134577139Y-150929154D01*
X134550364Y-150916811D01*
X134545981Y-150914686D01*
X134321639Y-150800378D01*
X134317346Y-150798083D01*
X134291650Y-150783693D01*
X134287450Y-150781231D01*
X134254027Y-150760750D01*
X134249927Y-150758126D01*
X134248000Y-150756838D01*
X134248000Y-151750000D01*
X133250000Y-151750000D01*
X133250000Y-150248000D01*
X131748000Y-150248000D01*
X131748000Y-151750000D01*
X130750000Y-151750000D01*
X130750000Y-150248000D01*
X129248000Y-150248000D01*
X129248000Y-151750000D01*
X128250000Y-151750000D01*
X128250000Y-150248000D01*
X126748000Y-150248000D01*
X126748000Y-151750000D01*
X125750000Y-151750000D01*
X125750000Y-150248000D01*
X124248000Y-150248000D01*
X124248000Y-151750000D01*
X120750000Y-151750000D01*
X120750000Y-150248000D01*
X119925601Y-150248000D01*
X119919156Y-150288690D01*
X119914614Y-150307610D01*
X119858678Y-150479765D01*
X119851232Y-150497742D01*
X119769053Y-150659026D01*
X119758886Y-150675616D01*
X119652489Y-150822060D01*
X119639852Y-150836856D01*
X119511856Y-150964852D01*
X119497060Y-150977489D01*
X119350616Y-151083886D01*
X119334026Y-151094053D01*
X119248000Y-151137885D01*
X118101998Y-151137885D01*
X118015974Y-151094053D01*
X117999384Y-151083886D01*
X117852940Y-150977489D01*
X117838144Y-150964852D01*
X117710148Y-150836856D01*
X117697511Y-150822060D01*
X117591114Y-150675616D01*
X117580947Y-150659026D01*
X117498768Y-150497742D01*
X117491322Y-150479765D01*
X117435386Y-150307610D01*
X117430844Y-150288690D01*
X117424399Y-150248000D01*
X116748000Y-150248000D01*
X116748000Y-151750000D01*
X115750000Y-151750000D01*
X115750000Y-150248000D01*
X114248000Y-150248000D01*
X114248000Y-151750000D01*
X113250000Y-151750000D01*
X113250000Y-150248000D01*
X111748000Y-150248000D01*
X111748000Y-151750000D01*
X110750000Y-151750000D01*
X110750000Y-150248000D01*
X109248000Y-150248000D01*
X109248000Y-151750000D01*
X108250000Y-151750000D01*
X108250000Y-150248000D01*
X107683499Y-150248000D01*
X107683500Y-151126248D01*
X107683455Y-151129572D01*
X107682916Y-151149673D01*
X107682783Y-151152993D01*
X107681351Y-151179680D01*
X107681129Y-151182989D01*
X107679519Y-151202982D01*
X107679208Y-151206285D01*
X107668038Y-151310175D01*
X107666971Y-151317843D01*
X107659064Y-151364029D01*
X107657519Y-151371619D01*
X107643174Y-151432330D01*
X107641158Y-151439809D01*
X107627550Y-151484672D01*
X107625071Y-151492012D01*
X107551413Y-151689502D01*
X107548025Y-151697682D01*
X107525767Y-151746419D01*
X107523974Y-151750000D01*
X104258750Y-151750000D01*
X104235790Y-151707952D01*
X104240774Y-151638260D01*
X104282646Y-151582327D01*
X104348110Y-151557910D01*
X104370213Y-151558305D01*
X104377514Y-151559089D01*
X104377517Y-151559091D01*
X104437127Y-151565500D01*
X106232872Y-151565499D01*
X106292483Y-151559091D01*
X106427331Y-151508796D01*
X106542546Y-151422546D01*
X106628796Y-151307331D01*
X106679091Y-151172483D01*
X106685500Y-151112873D01*
X106685499Y-149317128D01*
X106679091Y-149257517D01*
X106676287Y-149250000D01*
X106628797Y-149122671D01*
X106628793Y-149122664D01*
X106542547Y-149007455D01*
X106542544Y-149007452D01*
X106427335Y-148921206D01*
X106427328Y-148921202D01*
X106292482Y-148870908D01*
X106292483Y-148870908D01*
X106232883Y-148864501D01*
X106232881Y-148864500D01*
X106232873Y-148864500D01*
X106232865Y-148864500D01*
X106222309Y-148864500D01*
X106155270Y-148844815D01*
X106134628Y-148828181D01*
X105923457Y-148617010D01*
X107489775Y-148617010D01*
X107521805Y-148675667D01*
X107525767Y-148683581D01*
X107548025Y-148732318D01*
X107551413Y-148740498D01*
X107625069Y-148937982D01*
X107627548Y-148945321D01*
X107641153Y-148990172D01*
X107643168Y-148997648D01*
X107657516Y-149058363D01*
X107659061Y-149065955D01*
X107666972Y-149112160D01*
X107668041Y-149119833D01*
X107679212Y-149223755D01*
X107679523Y-149227064D01*
X107681135Y-149247101D01*
X107681329Y-149250000D01*
X108250000Y-149250000D01*
X109248000Y-149250000D01*
X110750000Y-149250000D01*
X111748000Y-149250000D01*
X113250000Y-149250000D01*
X114248000Y-149250000D01*
X115750000Y-149250000D01*
X116748000Y-149250000D01*
X117645157Y-149250000D01*
X117697511Y-149177940D01*
X117710148Y-149163144D01*
X117838144Y-149035148D01*
X117852940Y-149022511D01*
X117999384Y-148916114D01*
X118015974Y-148905947D01*
X118102000Y-148862114D01*
X119248000Y-148862114D01*
X119334026Y-148905948D01*
X119350616Y-148916114D01*
X119497060Y-149022511D01*
X119511856Y-149035148D01*
X119639852Y-149163144D01*
X119652489Y-149177940D01*
X119704843Y-149250000D01*
X120750000Y-149250000D01*
X120750000Y-148284365D01*
X121748000Y-148284365D01*
X121748000Y-149250000D01*
X123250000Y-149250000D01*
X124248000Y-149250000D01*
X125750000Y-149250000D01*
X125750000Y-148284365D01*
X126748000Y-148284365D01*
X126748000Y-149250000D01*
X128250000Y-149250000D01*
X129248000Y-149250000D01*
X130750000Y-149250000D01*
X131748000Y-149250000D01*
X133199042Y-149250000D01*
X133160723Y-149008059D01*
X133160056Y-149003236D01*
X133156596Y-148974003D01*
X133156119Y-148969165D01*
X133153041Y-148930086D01*
X133152754Y-148925221D01*
X133151596Y-148895769D01*
X133151500Y-148890897D01*
X133151500Y-148639103D01*
X133151596Y-148634231D01*
X133152754Y-148604779D01*
X133153041Y-148599914D01*
X133156119Y-148560835D01*
X133156596Y-148555997D01*
X133160056Y-148526764D01*
X133160723Y-148521941D01*
X133200108Y-148273272D01*
X133200964Y-148268477D01*
X133206713Y-148239577D01*
X133207758Y-148234817D01*
X133216911Y-148196700D01*
X133218138Y-148191995D01*
X133226131Y-148163653D01*
X133227545Y-148158993D01*
X133250000Y-148089883D01*
X133250000Y-147748000D01*
X131748000Y-147748000D01*
X131748000Y-149250000D01*
X130750000Y-149250000D01*
X130750000Y-147748000D01*
X129248000Y-147748000D01*
X129248000Y-149250000D01*
X128250000Y-149250000D01*
X128250000Y-147748000D01*
X127795463Y-147748000D01*
X127698654Y-147844809D01*
X127694245Y-147849007D01*
X127666958Y-147873738D01*
X127662351Y-147877712D01*
X127624469Y-147908801D01*
X127619671Y-147912545D01*
X127590098Y-147934478D01*
X127585122Y-147937983D01*
X127413263Y-148052816D01*
X127408118Y-148056074D01*
X127376525Y-148075009D01*
X127371230Y-148078008D01*
X127328009Y-148101109D01*
X127322574Y-148103845D01*
X127289292Y-148119586D01*
X127283728Y-148122052D01*
X127092778Y-148201145D01*
X127087101Y-148203335D01*
X127052440Y-148215737D01*
X127046662Y-148217646D01*
X126999767Y-148231872D01*
X126993903Y-148233495D01*
X126958177Y-148242445D01*
X126952235Y-148243779D01*
X126749508Y-148284104D01*
X126748000Y-148284365D01*
X125750000Y-148284365D01*
X125750000Y-148136022D01*
X125716272Y-148122052D01*
X125710708Y-148119586D01*
X125677426Y-148103845D01*
X125671991Y-148101109D01*
X125667110Y-148098500D01*
X124248000Y-148098500D01*
X124248000Y-149250000D01*
X123250000Y-149250000D01*
X123250000Y-148098500D01*
X122332890Y-148098500D01*
X122328009Y-148101109D01*
X122322574Y-148103845D01*
X122289292Y-148119586D01*
X122283728Y-148122052D01*
X122092778Y-148201145D01*
X122087101Y-148203335D01*
X122052440Y-148215737D01*
X122046662Y-148217646D01*
X121999767Y-148231872D01*
X121993903Y-148233495D01*
X121958177Y-148242445D01*
X121952235Y-148243779D01*
X121749508Y-148284104D01*
X121748000Y-148284365D01*
X120750000Y-148284365D01*
X120750000Y-148136022D01*
X120716272Y-148122052D01*
X120710708Y-148119586D01*
X120677426Y-148103845D01*
X120671991Y-148101109D01*
X120628770Y-148078008D01*
X120623475Y-148075009D01*
X120591882Y-148056074D01*
X120586737Y-148052816D01*
X120414878Y-147937983D01*
X120409902Y-147934478D01*
X120380329Y-147912545D01*
X120375531Y-147908801D01*
X120337649Y-147877712D01*
X120333042Y-147873738D01*
X120305755Y-147849007D01*
X120301346Y-147844809D01*
X120204537Y-147748000D01*
X119248000Y-147748000D01*
X119248000Y-148862114D01*
X118102000Y-148862114D01*
X118177258Y-148823768D01*
X118195235Y-148816322D01*
X118250000Y-148798527D01*
X118250000Y-147748000D01*
X116748000Y-147748000D01*
X116748000Y-149250000D01*
X115750000Y-149250000D01*
X115750000Y-147748000D01*
X114248000Y-147748000D01*
X114248000Y-149250000D01*
X113250000Y-149250000D01*
X113250000Y-147748000D01*
X111748000Y-147748000D01*
X111748000Y-149250000D01*
X110750000Y-149250000D01*
X110750000Y-147748000D01*
X109248000Y-147748000D01*
X109248000Y-149250000D01*
X108250000Y-149250000D01*
X108250000Y-147748000D01*
X107683000Y-147748000D01*
X107683000Y-147800857D01*
X107682904Y-147805729D01*
X107681746Y-147835181D01*
X107681459Y-147840046D01*
X107678381Y-147879125D01*
X107677905Y-147883962D01*
X107674445Y-147913196D01*
X107673777Y-147918020D01*
X107634406Y-148166593D01*
X107633551Y-148171381D01*
X107627811Y-148200244D01*
X107626769Y-148204996D01*
X107617621Y-148243113D01*
X107616391Y-148247829D01*
X107608389Y-148276206D01*
X107606974Y-148280870D01*
X107529191Y-148520263D01*
X107527595Y-148524864D01*
X107517396Y-148552509D01*
X107515621Y-148557045D01*
X107500619Y-148593261D01*
X107498669Y-148597719D01*
X107489775Y-148617010D01*
X105923457Y-148617010D01*
X105464408Y-148157962D01*
X105527993Y-148140925D01*
X105642007Y-148075099D01*
X105735099Y-147982007D01*
X105800925Y-147867993D01*
X105817962Y-147804409D01*
X106450270Y-148436717D01*
X106450270Y-148436716D01*
X106489622Y-148382554D01*
X106586095Y-148193217D01*
X106651757Y-147991130D01*
X106651757Y-147991127D01*
X106685000Y-147781246D01*
X106685000Y-147568753D01*
X106651757Y-147358872D01*
X106651757Y-147358869D01*
X106586095Y-147156782D01*
X106489624Y-146967449D01*
X106450270Y-146913282D01*
X106450269Y-146913282D01*
X105817962Y-147545590D01*
X105800925Y-147482007D01*
X105735099Y-147367993D01*
X105642007Y-147274901D01*
X105527993Y-147209075D01*
X105464409Y-147192037D01*
X106096716Y-146559728D01*
X106042550Y-146520375D01*
X105853217Y-146423904D01*
X105651129Y-146358242D01*
X105441246Y-146325000D01*
X105228754Y-146325000D01*
X105018872Y-146358242D01*
X105018869Y-146358242D01*
X104816782Y-146423904D01*
X104627439Y-146520380D01*
X104573282Y-146559727D01*
X104573282Y-146559728D01*
X105205591Y-147192037D01*
X105142007Y-147209075D01*
X105027993Y-147274901D01*
X104934901Y-147367993D01*
X104869075Y-147482007D01*
X104852037Y-147545591D01*
X104219728Y-146913282D01*
X104215714Y-146913598D01*
X104168989Y-146949629D01*
X104099376Y-146955608D01*
X104037580Y-146923003D01*
X104003223Y-146862164D01*
X104000000Y-146834078D01*
X104000000Y-145799315D01*
X106748000Y-145799315D01*
X106862697Y-145882647D01*
X106898001Y-145922376D01*
X106966072Y-146043924D01*
X107087622Y-146111997D01*
X107127351Y-146147301D01*
X107308541Y-146396691D01*
X107311322Y-146400682D01*
X107327678Y-146425159D01*
X107330303Y-146429260D01*
X107350785Y-146462681D01*
X107353248Y-146466883D01*
X107367648Y-146492595D01*
X107369944Y-146496890D01*
X107484214Y-146721154D01*
X107486340Y-146725537D01*
X107497617Y-146750000D01*
X108250000Y-146750000D01*
X108250000Y-146298200D01*
X109248000Y-146298200D01*
X109248000Y-146750000D01*
X110750000Y-146750000D01*
X111748000Y-146750000D01*
X113250000Y-146750000D01*
X114248000Y-146750000D01*
X115750000Y-146750000D01*
X115750000Y-146298499D01*
X116748000Y-146298499D01*
X116748000Y-146750000D01*
X118250000Y-146750000D01*
X119248000Y-146750000D01*
X119715994Y-146750000D01*
X119715896Y-146749508D01*
X119714855Y-146743511D01*
X119709451Y-146707080D01*
X119708706Y-146701039D01*
X119703903Y-146652267D01*
X119703455Y-146646197D01*
X119701649Y-146609425D01*
X119701500Y-146603342D01*
X119701500Y-146421153D01*
X120699500Y-146421153D01*
X120699500Y-146578846D01*
X120730261Y-146733489D01*
X120730264Y-146733501D01*
X120790602Y-146879172D01*
X120790609Y-146879185D01*
X120878210Y-147010288D01*
X120878213Y-147010292D01*
X120989707Y-147121786D01*
X120989711Y-147121789D01*
X121120814Y-147209390D01*
X121120827Y-147209397D01*
X121266498Y-147269735D01*
X121266503Y-147269737D01*
X121421153Y-147300499D01*
X121421156Y-147300500D01*
X121421158Y-147300500D01*
X121578844Y-147300500D01*
X121578845Y-147300499D01*
X121733497Y-147269737D01*
X121879179Y-147209394D01*
X121919620Y-147182372D01*
X122010875Y-147121398D01*
X122077553Y-147100520D01*
X122079766Y-147100500D01*
X125920234Y-147100500D01*
X125987273Y-147120185D01*
X125989125Y-147121398D01*
X126120814Y-147209390D01*
X126120827Y-147209397D01*
X126266498Y-147269735D01*
X126266503Y-147269737D01*
X126421153Y-147300499D01*
X126421156Y-147300500D01*
X126421158Y-147300500D01*
X126578844Y-147300500D01*
X126578845Y-147300499D01*
X126733497Y-147269737D01*
X126879179Y-147209394D01*
X127010289Y-147121789D01*
X127121789Y-147010289D01*
X127209394Y-146879179D01*
X127262901Y-146750000D01*
X129248000Y-146750000D01*
X130750000Y-146750000D01*
X131748000Y-146750000D01*
X133152000Y-146750000D01*
X133152000Y-146274454D01*
X133161439Y-146227002D01*
X133162268Y-146225000D01*
X133161439Y-146222998D01*
X133152000Y-146175546D01*
X133152000Y-145313823D01*
X133152044Y-145310509D01*
X133152580Y-145290461D01*
X133152713Y-145287145D01*
X133154142Y-145260458D01*
X133154364Y-145257144D01*
X133155100Y-145248000D01*
X131748000Y-145248000D01*
X131748000Y-146750000D01*
X130750000Y-146750000D01*
X130750000Y-145248000D01*
X129248000Y-145248000D01*
X129248000Y-146750000D01*
X127262901Y-146750000D01*
X127269737Y-146733497D01*
X127300500Y-146578842D01*
X127300500Y-146421158D01*
X127300500Y-146421155D01*
X127300499Y-146421153D01*
X127287102Y-146353803D01*
X127269737Y-146266503D01*
X127251717Y-146222998D01*
X127209397Y-146120827D01*
X127209390Y-146120814D01*
X127121789Y-145989711D01*
X127121786Y-145989707D01*
X127010292Y-145878213D01*
X127010288Y-145878210D01*
X126879185Y-145790609D01*
X126879172Y-145790602D01*
X126733501Y-145730264D01*
X126733489Y-145730261D01*
X126578845Y-145699500D01*
X126578842Y-145699500D01*
X126421158Y-145699500D01*
X126421155Y-145699500D01*
X126266510Y-145730261D01*
X126266498Y-145730264D01*
X126120827Y-145790602D01*
X126120814Y-145790609D01*
X125989125Y-145878602D01*
X125922447Y-145899480D01*
X125920234Y-145899500D01*
X122079766Y-145899500D01*
X122012727Y-145879815D01*
X122010875Y-145878602D01*
X121879185Y-145790609D01*
X121879172Y-145790602D01*
X121733501Y-145730264D01*
X121733489Y-145730261D01*
X121578845Y-145699500D01*
X121578842Y-145699500D01*
X121421158Y-145699500D01*
X121421155Y-145699500D01*
X121266510Y-145730261D01*
X121266498Y-145730264D01*
X121120827Y-145790602D01*
X121120814Y-145790609D01*
X120989711Y-145878210D01*
X120989707Y-145878213D01*
X120878213Y-145989707D01*
X120878210Y-145989711D01*
X120790609Y-146120814D01*
X120790602Y-146120827D01*
X120730264Y-146266498D01*
X120730261Y-146266510D01*
X120699500Y-146421153D01*
X119701500Y-146421153D01*
X119701500Y-146396658D01*
X119701649Y-146390575D01*
X119703455Y-146353803D01*
X119703903Y-146347733D01*
X119708706Y-146298961D01*
X119709451Y-146292920D01*
X119714855Y-146256489D01*
X119715896Y-146250492D01*
X119756221Y-146047765D01*
X119757555Y-146041823D01*
X119766505Y-146006097D01*
X119768128Y-146000233D01*
X119782354Y-145953338D01*
X119784263Y-145947560D01*
X119796665Y-145912899D01*
X119798855Y-145907222D01*
X119877948Y-145716272D01*
X119880414Y-145710708D01*
X119896155Y-145677426D01*
X119898891Y-145671991D01*
X119921992Y-145628770D01*
X119924991Y-145623475D01*
X119943926Y-145591882D01*
X119947184Y-145586737D01*
X120062017Y-145414878D01*
X120065522Y-145409902D01*
X120087455Y-145380329D01*
X120091199Y-145375531D01*
X120122288Y-145337649D01*
X120126262Y-145333042D01*
X120150993Y-145305755D01*
X120155191Y-145301346D01*
X120208537Y-145248000D01*
X119248000Y-145248000D01*
X119248000Y-146750000D01*
X118250000Y-146750000D01*
X118250000Y-146157683D01*
X118217596Y-146170556D01*
X118210820Y-146173022D01*
X117990863Y-146245909D01*
X117984386Y-146247861D01*
X117944884Y-146258599D01*
X117938309Y-146260195D01*
X117885055Y-146271593D01*
X117878411Y-146272827D01*
X117838006Y-146279196D01*
X117831299Y-146280066D01*
X117688787Y-146294624D01*
X117685639Y-146294905D01*
X117666595Y-146296361D01*
X117663449Y-146296562D01*
X117638080Y-146297854D01*
X117634926Y-146297974D01*
X117615856Y-146298459D01*
X117612703Y-146298499D01*
X116748000Y-146298499D01*
X115750000Y-146298499D01*
X115750000Y-146157682D01*
X115741853Y-146154446D01*
X115735234Y-146151591D01*
X115682588Y-146127044D01*
X115676140Y-146123806D01*
X115637715Y-146103088D01*
X115631468Y-146099481D01*
X115432697Y-145976879D01*
X115426667Y-145972913D01*
X115390907Y-145947872D01*
X115385123Y-145943566D01*
X115339556Y-145907536D01*
X115334029Y-145902898D01*
X115301431Y-145873887D01*
X115296187Y-145868939D01*
X115131061Y-145703813D01*
X115126113Y-145698569D01*
X115097102Y-145665971D01*
X115092464Y-145660444D01*
X115056434Y-145614877D01*
X115052128Y-145609093D01*
X115027087Y-145573333D01*
X115023121Y-145567303D01*
X114900519Y-145368532D01*
X114896912Y-145362285D01*
X114876194Y-145323860D01*
X114872956Y-145317413D01*
X114848409Y-145264768D01*
X114845553Y-145258146D01*
X114841522Y-145248000D01*
X114248000Y-145248000D01*
X114248000Y-146750000D01*
X113250000Y-146750000D01*
X113250000Y-145248000D01*
X111748000Y-145248000D01*
X111748000Y-146750000D01*
X110750000Y-146750000D01*
X110750000Y-145845738D01*
X110632358Y-145931210D01*
X110628363Y-145933995D01*
X110603869Y-145950361D01*
X110599767Y-145952986D01*
X110566344Y-145973467D01*
X110562144Y-145975929D01*
X110536448Y-145990319D01*
X110532155Y-145992614D01*
X110314827Y-146103349D01*
X110310443Y-146105475D01*
X110283667Y-146117818D01*
X110279200Y-146119772D01*
X110242984Y-146134770D01*
X110238453Y-146136543D01*
X110210844Y-146146727D01*
X110206250Y-146148320D01*
X109974283Y-146223692D01*
X109969620Y-146225106D01*
X109941241Y-146233109D01*
X109936522Y-146234340D01*
X109898403Y-146243488D01*
X109893652Y-146244530D01*
X109864789Y-146250270D01*
X109860001Y-146251125D01*
X109619125Y-146289277D01*
X109614301Y-146289945D01*
X109585067Y-146293405D01*
X109580230Y-146293881D01*
X109541151Y-146296959D01*
X109536286Y-146297246D01*
X109506834Y-146298404D01*
X109501962Y-146298500D01*
X109258038Y-146298500D01*
X109253166Y-146298404D01*
X109248000Y-146298200D01*
X108250000Y-146298200D01*
X108250000Y-146003902D01*
X108227845Y-145992614D01*
X108223552Y-145990319D01*
X108197856Y-145975929D01*
X108193656Y-145973467D01*
X108160233Y-145952986D01*
X108156131Y-145950361D01*
X108131637Y-145933995D01*
X108127642Y-145931210D01*
X107930304Y-145787837D01*
X107926416Y-145784894D01*
X107903257Y-145766635D01*
X107899492Y-145763545D01*
X107869685Y-145738084D01*
X107866046Y-145734850D01*
X107844441Y-145714876D01*
X107840937Y-145711506D01*
X107668494Y-145539063D01*
X107665124Y-145535559D01*
X107645150Y-145513954D01*
X107641916Y-145510315D01*
X107616455Y-145480508D01*
X107613365Y-145476743D01*
X107595106Y-145453584D01*
X107592163Y-145449696D01*
X107448790Y-145252358D01*
X107446005Y-145248363D01*
X107445762Y-145248000D01*
X106748000Y-145248000D01*
X106748000Y-145799315D01*
X104000000Y-145799315D01*
X104000000Y-143897648D01*
X108079500Y-143897648D01*
X108079500Y-144102351D01*
X108111522Y-144304534D01*
X108174781Y-144499223D01*
X108267715Y-144681613D01*
X108388028Y-144847213D01*
X108532786Y-144991971D01*
X108687749Y-145104556D01*
X108698390Y-145112287D01*
X108814607Y-145171503D01*
X108880776Y-145205218D01*
X108880778Y-145205218D01*
X108880781Y-145205220D01*
X108971856Y-145234812D01*
X109075465Y-145268477D01*
X109176557Y-145284488D01*
X109277648Y-145300500D01*
X109277649Y-145300500D01*
X109482351Y-145300500D01*
X109482352Y-145300500D01*
X109684534Y-145268477D01*
X109879219Y-145205220D01*
X110061610Y-145112287D01*
X110190482Y-145018657D01*
X110227213Y-144991971D01*
X110227215Y-144991968D01*
X110227219Y-144991966D01*
X110371966Y-144847219D01*
X110371968Y-144847215D01*
X110371971Y-144847213D01*
X110424732Y-144774590D01*
X110492287Y-144681610D01*
X110585220Y-144499219D01*
X110648477Y-144304534D01*
X110657114Y-144250000D01*
X111748000Y-144250000D01*
X113250000Y-144250000D01*
X114248000Y-144250000D01*
X114701501Y-144250000D01*
X114701500Y-143399983D01*
X115699500Y-143399983D01*
X115699500Y-144600001D01*
X115699501Y-144600018D01*
X115710000Y-144702796D01*
X115710001Y-144702799D01*
X115748188Y-144818039D01*
X115765186Y-144869334D01*
X115857288Y-145018656D01*
X115981344Y-145142712D01*
X116130666Y-145234814D01*
X116297203Y-145289999D01*
X116399991Y-145300500D01*
X117600008Y-145300499D01*
X117702797Y-145289999D01*
X117869334Y-145234814D01*
X118018656Y-145142712D01*
X118142712Y-145018656D01*
X118234814Y-144869334D01*
X118289999Y-144702797D01*
X118300500Y-144600009D01*
X118300499Y-143399992D01*
X118291750Y-143314349D01*
X118289999Y-143297203D01*
X118289998Y-143297200D01*
X118260290Y-143207547D01*
X118234814Y-143130666D01*
X118164165Y-143016125D01*
X119248000Y-143016125D01*
X119258599Y-143055116D01*
X119260195Y-143061691D01*
X119271593Y-143114945D01*
X119272827Y-143121589D01*
X119279196Y-143161994D01*
X119280066Y-143168701D01*
X119294624Y-143311213D01*
X119294905Y-143314361D01*
X119296361Y-143333405D01*
X119296562Y-143336551D01*
X119297854Y-143361920D01*
X119297974Y-143365074D01*
X119298459Y-143384144D01*
X119298499Y-143387297D01*
X119298500Y-144250000D01*
X120750000Y-144250000D01*
X121748000Y-144250000D01*
X123250000Y-144250000D01*
X124248000Y-144250000D01*
X124248207Y-144250000D01*
X124390095Y-144227527D01*
X124409493Y-144226000D01*
X124590507Y-144226000D01*
X124609905Y-144227527D01*
X124751793Y-144250000D01*
X125750000Y-144250000D01*
X126748000Y-144250000D01*
X128250000Y-144250000D01*
X129248000Y-144250000D01*
X130750000Y-144250000D01*
X131748000Y-144250000D01*
X133250000Y-144250000D01*
X133250000Y-143927614D01*
X134248000Y-143927614D01*
X134275305Y-143919332D01*
X134282788Y-143917315D01*
X134343499Y-143902972D01*
X134351084Y-143901428D01*
X134397262Y-143893522D01*
X134404931Y-143892455D01*
X134508783Y-143881289D01*
X134512095Y-143880977D01*
X134532144Y-143879364D01*
X134535458Y-143879142D01*
X134562145Y-143877713D01*
X134565461Y-143877580D01*
X134585509Y-143877044D01*
X134588823Y-143877000D01*
X135376000Y-143877000D01*
X135376000Y-142748000D01*
X134248000Y-142748000D01*
X134248000Y-143927614D01*
X133250000Y-143927614D01*
X133250000Y-142748000D01*
X131748000Y-142748000D01*
X131748000Y-144250000D01*
X130750000Y-144250000D01*
X130750000Y-142748000D01*
X129248000Y-142748000D01*
X129248000Y-144250000D01*
X128250000Y-144250000D01*
X128250000Y-142748000D01*
X126748000Y-142748000D01*
X126748000Y-144250000D01*
X125750000Y-144250000D01*
X125750000Y-142748000D01*
X124248000Y-142748000D01*
X124248000Y-144250000D01*
X123250000Y-144250000D01*
X123250000Y-142748000D01*
X121748000Y-142748000D01*
X121748000Y-144250000D01*
X120750000Y-144250000D01*
X120750000Y-142748000D01*
X119248000Y-142748000D01*
X119248000Y-143016125D01*
X118164165Y-143016125D01*
X118142712Y-142981344D01*
X118018656Y-142857288D01*
X117869334Y-142765186D01*
X117702797Y-142710001D01*
X117702795Y-142710000D01*
X117600010Y-142699500D01*
X116399998Y-142699500D01*
X116399981Y-142699501D01*
X116297203Y-142710000D01*
X116297200Y-142710001D01*
X116130668Y-142765185D01*
X116130663Y-142765187D01*
X115981342Y-142857289D01*
X115857289Y-142981342D01*
X115765187Y-143130663D01*
X115765186Y-143130666D01*
X115710001Y-143297203D01*
X115710001Y-143297204D01*
X115710000Y-143297204D01*
X115699500Y-143399983D01*
X114701500Y-143399983D01*
X114701500Y-143387296D01*
X114701540Y-143384143D01*
X114702025Y-143365073D01*
X114702145Y-143361920D01*
X114703437Y-143336549D01*
X114703638Y-143333398D01*
X114705095Y-143314349D01*
X114705376Y-143311204D01*
X114719936Y-143168681D01*
X114720807Y-143161972D01*
X114727181Y-143121543D01*
X114728416Y-143114892D01*
X114739818Y-143061641D01*
X114741413Y-143055074D01*
X114752144Y-143015600D01*
X114754095Y-143009125D01*
X114826977Y-142789182D01*
X114829444Y-142782404D01*
X114843112Y-142748000D01*
X114248000Y-142748000D01*
X114248000Y-144250000D01*
X113250000Y-144250000D01*
X113250000Y-142748000D01*
X111748000Y-142748000D01*
X111748000Y-144250000D01*
X110657114Y-144250000D01*
X110680500Y-144102352D01*
X110680500Y-143897648D01*
X110679846Y-143893522D01*
X110648477Y-143695465D01*
X110585218Y-143500776D01*
X110551503Y-143434607D01*
X110492287Y-143318390D01*
X110474419Y-143293796D01*
X110371971Y-143152786D01*
X110227213Y-143008028D01*
X110061613Y-142887715D01*
X110061612Y-142887714D01*
X110061610Y-142887713D01*
X110001898Y-142857288D01*
X109879223Y-142794781D01*
X109684534Y-142731522D01*
X109509995Y-142703878D01*
X109482352Y-142699500D01*
X109277648Y-142699500D01*
X109253329Y-142703351D01*
X109075465Y-142731522D01*
X108880776Y-142794781D01*
X108698386Y-142887715D01*
X108532786Y-143008028D01*
X108388028Y-143152786D01*
X108267715Y-143318386D01*
X108174781Y-143500776D01*
X108111522Y-143695465D01*
X108079500Y-143897648D01*
X104000000Y-143897648D01*
X104000000Y-143474499D01*
X104019685Y-143407460D01*
X104072489Y-143361705D01*
X104123995Y-143350499D01*
X105897872Y-143350499D01*
X105957483Y-143344091D01*
X106092331Y-143293796D01*
X106207546Y-143207546D01*
X106293796Y-143092331D01*
X106344091Y-142957483D01*
X106350500Y-142897873D01*
X106350499Y-141102128D01*
X106344091Y-141042517D01*
X106341441Y-141035413D01*
X106293797Y-140907671D01*
X106293793Y-140907664D01*
X106207547Y-140792455D01*
X106207544Y-140792452D01*
X106092335Y-140706206D01*
X106092328Y-140706202D01*
X105957482Y-140655908D01*
X105957483Y-140655908D01*
X105897883Y-140649501D01*
X105897881Y-140649500D01*
X105897873Y-140649500D01*
X105897865Y-140649500D01*
X105887309Y-140649500D01*
X105820270Y-140629815D01*
X105799628Y-140613181D01*
X105588457Y-140402010D01*
X107154775Y-140402010D01*
X107186805Y-140460667D01*
X107190767Y-140468581D01*
X107213025Y-140517318D01*
X107216413Y-140525498D01*
X107290069Y-140722982D01*
X107292548Y-140730321D01*
X107306153Y-140775172D01*
X107308168Y-140782648D01*
X107322516Y-140843363D01*
X107324061Y-140850955D01*
X107331972Y-140897160D01*
X107333041Y-140904833D01*
X107344212Y-141008755D01*
X107344523Y-141012064D01*
X107346135Y-141032101D01*
X107346357Y-141035413D01*
X107347786Y-141062095D01*
X107347919Y-141065413D01*
X107348455Y-141085464D01*
X107348499Y-141088778D01*
X107348499Y-141750000D01*
X108250000Y-141750000D01*
X108250000Y-141701799D01*
X109248000Y-141701799D01*
X109253166Y-141701596D01*
X109258038Y-141701500D01*
X109501962Y-141701500D01*
X109506834Y-141701596D01*
X109536286Y-141702754D01*
X109541151Y-141703041D01*
X109580230Y-141706119D01*
X109585067Y-141706595D01*
X109614301Y-141710055D01*
X109619125Y-141710723D01*
X109860001Y-141748875D01*
X109864790Y-141749730D01*
X109866148Y-141750000D01*
X110750000Y-141750000D01*
X111748000Y-141750000D01*
X113250000Y-141750000D01*
X114248000Y-141750000D01*
X115750000Y-141750000D01*
X115750000Y-141701500D01*
X116748000Y-141701500D01*
X117612704Y-141701500D01*
X117615857Y-141701540D01*
X117634927Y-141702025D01*
X117638080Y-141702145D01*
X117663451Y-141703437D01*
X117666602Y-141703638D01*
X117685651Y-141705095D01*
X117688796Y-141705376D01*
X117831319Y-141719936D01*
X117838028Y-141720807D01*
X117878457Y-141727181D01*
X117885108Y-141728416D01*
X117938359Y-141739818D01*
X117944926Y-141741413D01*
X117976513Y-141750000D01*
X118250000Y-141750000D01*
X119248000Y-141750000D01*
X120750000Y-141750000D01*
X121748000Y-141750000D01*
X123250000Y-141750000D01*
X124248000Y-141750000D01*
X125750000Y-141750000D01*
X126748000Y-141750000D01*
X128250000Y-141750000D01*
X129248000Y-141750000D01*
X130750000Y-141750000D01*
X131748000Y-141750000D01*
X133250000Y-141750000D01*
X134248000Y-141750000D01*
X135376000Y-141750000D01*
X135376000Y-140248000D01*
X134248000Y-140248000D01*
X134248000Y-141750000D01*
X133250000Y-141750000D01*
X133250000Y-140248000D01*
X131748000Y-140248000D01*
X131748000Y-141750000D01*
X130750000Y-141750000D01*
X130750000Y-140248000D01*
X129248000Y-140248000D01*
X129248000Y-141750000D01*
X128250000Y-141750000D01*
X128250000Y-140248000D01*
X126748000Y-140248000D01*
X126748000Y-141750000D01*
X125750000Y-141750000D01*
X125750000Y-140248000D01*
X124248000Y-140248000D01*
X124248000Y-141750000D01*
X123250000Y-141750000D01*
X123250000Y-140248000D01*
X121748000Y-140248000D01*
X121748000Y-141750000D01*
X120750000Y-141750000D01*
X120750000Y-140248000D01*
X119248000Y-140248000D01*
X119248000Y-141750000D01*
X118250000Y-141750000D01*
X118250000Y-140248000D01*
X116748000Y-140248000D01*
X116748000Y-141701500D01*
X115750000Y-141701500D01*
X115750000Y-140248000D01*
X114248000Y-140248000D01*
X114248000Y-141750000D01*
X113250000Y-141750000D01*
X113250000Y-140248000D01*
X111748000Y-140248000D01*
X111748000Y-141750000D01*
X110750000Y-141750000D01*
X110750000Y-140248000D01*
X109248000Y-140248000D01*
X109248000Y-141701799D01*
X108250000Y-141701799D01*
X108250000Y-140248000D01*
X107212797Y-140248000D01*
X107194191Y-140305263D01*
X107192595Y-140309864D01*
X107182396Y-140337509D01*
X107180621Y-140342045D01*
X107165619Y-140378261D01*
X107163669Y-140382719D01*
X107154775Y-140402010D01*
X105588457Y-140402010D01*
X105129409Y-139942962D01*
X105192993Y-139925925D01*
X105307007Y-139860099D01*
X105400099Y-139767007D01*
X105465925Y-139652993D01*
X105482962Y-139589409D01*
X106115270Y-140221717D01*
X106115270Y-140221716D01*
X106154622Y-140167554D01*
X106251095Y-139978217D01*
X106316757Y-139776130D01*
X106316757Y-139776127D01*
X106350000Y-139566246D01*
X106350000Y-139353753D01*
X106316757Y-139143872D01*
X106316757Y-139143869D01*
X106251095Y-138941782D01*
X106154624Y-138752449D01*
X106115270Y-138698282D01*
X106115269Y-138698282D01*
X105482962Y-139330590D01*
X105465925Y-139267007D01*
X105400099Y-139152993D01*
X105307007Y-139059901D01*
X105192993Y-138994075D01*
X105129407Y-138977036D01*
X105761716Y-138344728D01*
X105707550Y-138305375D01*
X105518217Y-138208904D01*
X105316129Y-138143242D01*
X105106246Y-138110000D01*
X104893754Y-138110000D01*
X104683872Y-138143242D01*
X104680927Y-138143949D01*
X104679773Y-138143891D01*
X104679062Y-138144004D01*
X104679038Y-138143854D01*
X104611145Y-138140453D01*
X104554331Y-138099785D01*
X104528522Y-138034857D01*
X104541913Y-137966283D01*
X104564308Y-137935692D01*
X104605593Y-137894407D01*
X106748000Y-137894407D01*
X106752623Y-137896997D01*
X106792351Y-137932301D01*
X106973541Y-138181691D01*
X106976322Y-138185682D01*
X106992678Y-138210159D01*
X106995303Y-138214260D01*
X107015785Y-138247681D01*
X107018248Y-138251883D01*
X107032648Y-138277595D01*
X107034944Y-138281890D01*
X107149214Y-138506154D01*
X107151340Y-138510537D01*
X107163669Y-138537281D01*
X107165619Y-138541739D01*
X107180621Y-138577955D01*
X107182396Y-138582491D01*
X107192595Y-138610136D01*
X107194191Y-138614737D01*
X107271974Y-138854130D01*
X107273389Y-138858794D01*
X107281391Y-138887171D01*
X107282621Y-138891887D01*
X107291769Y-138930004D01*
X107292811Y-138934756D01*
X107298551Y-138963619D01*
X107299406Y-138968407D01*
X107338777Y-139216980D01*
X107339445Y-139221804D01*
X107342782Y-139250000D01*
X108250000Y-139250000D01*
X109248000Y-139250000D01*
X110750000Y-139250000D01*
X111748000Y-139250000D01*
X113250000Y-139250000D01*
X114248000Y-139250000D01*
X115750000Y-139250000D01*
X116748000Y-139250000D01*
X118250000Y-139250000D01*
X119248000Y-139250000D01*
X120750000Y-139250000D01*
X121748000Y-139250000D01*
X123250000Y-139250000D01*
X124248000Y-139250000D01*
X125750000Y-139250000D01*
X126748000Y-139250000D01*
X128250000Y-139250000D01*
X129248000Y-139250000D01*
X130750000Y-139250000D01*
X131748000Y-139250000D01*
X133250000Y-139250000D01*
X134248000Y-139250000D01*
X135376000Y-139250000D01*
X135376000Y-138116518D01*
X135275464Y-138015982D01*
X135272638Y-138013063D01*
X135255834Y-137995120D01*
X135253104Y-137992107D01*
X135231570Y-137967547D01*
X135228951Y-137964460D01*
X135213405Y-137945516D01*
X135210886Y-137942341D01*
X135061761Y-137748000D01*
X134248000Y-137748000D01*
X134248000Y-139250000D01*
X133250000Y-139250000D01*
X133250000Y-137748000D01*
X131748000Y-137748000D01*
X131748000Y-139250000D01*
X130750000Y-139250000D01*
X130750000Y-137748000D01*
X129248000Y-137748000D01*
X129248000Y-139250000D01*
X128250000Y-139250000D01*
X128250000Y-137748000D01*
X126748000Y-137748000D01*
X126748000Y-139250000D01*
X125750000Y-139250000D01*
X125750000Y-137748000D01*
X124248000Y-137748000D01*
X124248000Y-139250000D01*
X123250000Y-139250000D01*
X123250000Y-137748000D01*
X121748000Y-137748000D01*
X121748000Y-139250000D01*
X120750000Y-139250000D01*
X120750000Y-137748000D01*
X119248000Y-137748000D01*
X119248000Y-139250000D01*
X118250000Y-139250000D01*
X118250000Y-137748000D01*
X116748000Y-137748000D01*
X116748000Y-139250000D01*
X115750000Y-139250000D01*
X115750000Y-137748000D01*
X114248000Y-137748000D01*
X114248000Y-139250000D01*
X113250000Y-139250000D01*
X113250000Y-137748000D01*
X111748000Y-137748000D01*
X111748000Y-139250000D01*
X110750000Y-139250000D01*
X110750000Y-137748000D01*
X109248000Y-137748000D01*
X109248000Y-139250000D01*
X108250000Y-139250000D01*
X108250000Y-137748000D01*
X106748000Y-137748000D01*
X106748000Y-137894407D01*
X104605593Y-137894407D01*
X104752602Y-137747398D01*
X105000000Y-137500000D01*
X105000000Y-136750000D01*
X106748000Y-136750000D01*
X108250000Y-136750000D01*
X109248000Y-136750000D01*
X110750000Y-136750000D01*
X111748000Y-136750000D01*
X113250000Y-136750000D01*
X114248000Y-136750000D01*
X115750000Y-136750000D01*
X116748000Y-136750000D01*
X118250000Y-136750000D01*
X119248000Y-136750000D01*
X120750000Y-136750000D01*
X121748000Y-136750000D01*
X123250000Y-136750000D01*
X124248000Y-136750000D01*
X125750000Y-136750000D01*
X126748000Y-136750000D01*
X128250000Y-136750000D01*
X129248000Y-136750000D01*
X130750000Y-136750000D01*
X131748000Y-136750000D01*
X133250000Y-136750000D01*
X133250000Y-136124000D01*
X131748000Y-136124000D01*
X131748000Y-136750000D01*
X130750000Y-136750000D01*
X130750000Y-136124000D01*
X129248000Y-136124000D01*
X129248000Y-136750000D01*
X128250000Y-136750000D01*
X128250000Y-136124000D01*
X126748000Y-136124000D01*
X126748000Y-136750000D01*
X125750000Y-136750000D01*
X125750000Y-136124000D01*
X124248000Y-136124000D01*
X124248000Y-136750000D01*
X123250000Y-136750000D01*
X123250000Y-136124000D01*
X121748000Y-136124000D01*
X121748000Y-136750000D01*
X120750000Y-136750000D01*
X120750000Y-136124000D01*
X119248000Y-136124000D01*
X119248000Y-136750000D01*
X118250000Y-136750000D01*
X118250000Y-136124000D01*
X116748000Y-136124000D01*
X116748000Y-136750000D01*
X115750000Y-136750000D01*
X115750000Y-136124000D01*
X114248000Y-136124000D01*
X114248000Y-136750000D01*
X113250000Y-136750000D01*
X113250000Y-136124000D01*
X111748000Y-136124000D01*
X111748000Y-136750000D01*
X110750000Y-136750000D01*
X110750000Y-136124000D01*
X109248000Y-136124000D01*
X109248000Y-136750000D01*
X108250000Y-136750000D01*
X108250000Y-136124000D01*
X106748000Y-136124000D01*
X106748000Y-136750000D01*
X105000000Y-136750000D01*
X105000000Y-136142809D01*
X105000265Y-136134700D01*
X105000500Y-136131114D01*
X105000500Y-135868886D01*
X105000265Y-135865301D01*
X105000000Y-135857192D01*
X105000000Y-135124000D01*
X105019685Y-135056961D01*
X105072489Y-135011206D01*
X105124000Y-135000000D01*
X133948638Y-135000000D01*
X134015677Y-135019685D01*
G37*
%TD.AperFunction*%
%TA.AperFunction,Conductor*%
G36*
X104869075Y-147867993D02*
G01*
X104934901Y-147982007D01*
X105027993Y-148075099D01*
X105142007Y-148140925D01*
X105205590Y-148157962D01*
X104535370Y-148828181D01*
X104474047Y-148861666D01*
X104447698Y-148864500D01*
X104437134Y-148864500D01*
X104437123Y-148864501D01*
X104377516Y-148870908D01*
X104242671Y-148921202D01*
X104242665Y-148921206D01*
X104198310Y-148954410D01*
X104132846Y-148978827D01*
X104064573Y-148963975D01*
X104015168Y-148914570D01*
X104000000Y-148855143D01*
X104000000Y-148515919D01*
X104019685Y-148448880D01*
X104072489Y-148403125D01*
X104141647Y-148393181D01*
X104205203Y-148422206D01*
X104218426Y-148436613D01*
X104219728Y-148436716D01*
X104852037Y-147804408D01*
X104869075Y-147867993D01*
G37*
%TD.AperFunction*%
%TD*%
M02*
