%TF.GenerationSoftware,KiCad,Pcbnew,9.0.4*%
%TF.CreationDate,2025-10-16T10:52:11+01:00*%
%TF.ProjectId,tinySolarSupply,74696e79-536f-46c6-9172-537570706c79,rev?*%
%TF.SameCoordinates,Original*%
%TF.FileFunction,Copper,L1,Top*%
%TF.FilePolarity,Positive*%
%FSLAX46Y46*%
G04 Gerber Fmt 4.6, Leading zero omitted, Abs format (unit mm)*
G04 Created by KiCad (PCBNEW 9.0.4) date 2025-10-16 10:52:11*
%MOMM*%
%LPD*%
G01*
G04 APERTURE LIST*
G04 Aperture macros list*
%AMRoundRect*
0 Rectangle with rounded corners*
0 $1 Rounding radius*
0 $2 $3 $4 $5 $6 $7 $8 $9 X,Y pos of 4 corners*
0 Add a 4 corners polygon primitive as box body*
4,1,4,$2,$3,$4,$5,$6,$7,$8,$9,$2,$3,0*
0 Add four circle primitives for the rounded corners*
1,1,$1+$1,$2,$3*
1,1,$1+$1,$4,$5*
1,1,$1+$1,$6,$7*
1,1,$1+$1,$8,$9*
0 Add four rect primitives between the rounded corners*
20,1,$1+$1,$2,$3,$4,$5,0*
20,1,$1+$1,$4,$5,$6,$7,0*
20,1,$1+$1,$6,$7,$8,$9,0*
20,1,$1+$1,$8,$9,$2,$3,0*%
G04 Aperture macros list end*
%TA.AperFunction,SMDPad,CuDef*%
%ADD10R,1.175499X0.558000*%
%TD*%
%TA.AperFunction,SMDPad,CuDef*%
%ADD11RoundRect,0.235000X1.465000X-0.940000X1.465000X0.940000X-1.465000X0.940000X-1.465000X-0.940000X0*%
%TD*%
%TA.AperFunction,SMDPad,CuDef*%
%ADD12RoundRect,0.250000X0.262500X0.450000X-0.262500X0.450000X-0.262500X-0.450000X0.262500X-0.450000X0*%
%TD*%
%TA.AperFunction,ComponentPad*%
%ADD13RoundRect,0.250000X0.550000X0.550000X-0.550000X0.550000X-0.550000X-0.550000X0.550000X-0.550000X0*%
%TD*%
%TA.AperFunction,ComponentPad*%
%ADD14C,1.600000*%
%TD*%
%TA.AperFunction,ComponentPad*%
%ADD15R,1.700000X1.700000*%
%TD*%
%TA.AperFunction,ComponentPad*%
%ADD16C,1.700000*%
%TD*%
%TA.AperFunction,SMDPad,CuDef*%
%ADD17RoundRect,0.250000X0.250000X0.475000X-0.250000X0.475000X-0.250000X-0.475000X0.250000X-0.475000X0*%
%TD*%
%TA.AperFunction,SMDPad,CuDef*%
%ADD18RoundRect,0.250000X1.000000X0.650000X-1.000000X0.650000X-1.000000X-0.650000X1.000000X-0.650000X0*%
%TD*%
%TA.AperFunction,SMDPad,CuDef*%
%ADD19RoundRect,0.250000X-0.262500X-0.450000X0.262500X-0.450000X0.262500X0.450000X-0.262500X0.450000X0*%
%TD*%
%TA.AperFunction,SMDPad,CuDef*%
%ADD20RoundRect,0.150000X-0.587500X-0.150000X0.587500X-0.150000X0.587500X0.150000X-0.587500X0.150000X0*%
%TD*%
%TA.AperFunction,SMDPad,CuDef*%
%ADD21RoundRect,0.250000X-0.250000X-0.475000X0.250000X-0.475000X0.250000X0.475000X-0.250000X0.475000X0*%
%TD*%
%TA.AperFunction,SMDPad,CuDef*%
%ADD22RoundRect,0.250000X0.325000X0.650000X-0.325000X0.650000X-0.325000X-0.650000X0.325000X-0.650000X0*%
%TD*%
%TA.AperFunction,ViaPad*%
%ADD23C,0.600000*%
%TD*%
%TA.AperFunction,Conductor*%
%ADD24C,0.200000*%
%TD*%
%TA.AperFunction,Conductor*%
%ADD25C,0.350000*%
%TD*%
G04 APERTURE END LIST*
D10*
%TO.P,U1,5,VIN*%
%TO.N,Net-(J3-Pin_1)*%
X120500000Y-144500000D03*
%TO.P,U1,4,SHDN*%
%TO.N,Net-(Q1-D)*%
X120500000Y-142599998D03*
%TO.P,U1,3,FB*%
%TO.N,Net-(U1-FB)*%
X123224902Y-142599998D03*
%TO.P,U1,2,GND*%
%TO.N,Net-(D1-A)*%
X123224902Y-143549999D03*
%TO.P,U1,1,SW*%
%TO.N,GNDD*%
X123224902Y-144500000D03*
%TD*%
D11*
%TO.P,L1,2,2*%
%TO.N,Net-(D1-A)*%
X129500000Y-137105000D03*
%TO.P,L1,1,1*%
%TO.N,Net-(J3-Pin_1)*%
X129500000Y-143155000D03*
%TD*%
D12*
%TO.P,R3,1*%
%TO.N,Net-(J3-Pin_1)*%
X116325000Y-148500000D03*
%TO.P,R3,2*%
%TO.N,Net-(Q1-D)*%
X114500000Y-148500000D03*
%TD*%
D13*
%TO.P,J3,1,Pin_1*%
%TO.N,Net-(J3-Pin_1)*%
X117000000Y-144000000D03*
D14*
%TO.P,J3,2,Pin_2*%
%TO.N,/BAT_P*%
X109380000Y-144000000D03*
%TD*%
D15*
%TO.P,J1,1,Pin_1*%
%TO.N,GNDD*%
X135500000Y-146225000D03*
D16*
%TO.P,J1,2,Pin_2*%
%TO.N,/OUT_P*%
X135500000Y-148765000D03*
%TD*%
D15*
%TO.P,J2,1,Pin_1*%
%TO.N,/BAT_P*%
X105335000Y-150215000D03*
D16*
%TO.P,J2,2,Pin_2*%
%TO.N,GNDD*%
X105335000Y-147675000D03*
%TD*%
D17*
%TO.P,C1,2*%
%TO.N,GNDD*%
X128675000Y-148500000D03*
%TO.P,C1,1*%
%TO.N,Net-(J3-Pin_1)*%
X130575000Y-148500000D03*
%TD*%
D18*
%TO.P,D1,2,A*%
%TO.N,Net-(D1-A)*%
X119000000Y-137430000D03*
%TO.P,D1,1,K*%
%TO.N,/OUT_P*%
X123000000Y-137430000D03*
%TD*%
D19*
%TO.P,R4,2*%
%TO.N,GNDD*%
X120500000Y-152000000D03*
%TO.P,R4,1*%
%TO.N,/SOLAR_P*%
X118675000Y-152000000D03*
%TD*%
D12*
%TO.P,R2,1*%
%TO.N,Net-(U1-FB)*%
X120500000Y-148500000D03*
%TO.P,R2,2*%
%TO.N,GNDD*%
X118675000Y-148500000D03*
%TD*%
%TO.P,R1,1*%
%TO.N,/OUT_P*%
X125612500Y-148500000D03*
%TO.P,R1,2*%
%TO.N,Net-(U1-FB)*%
X123787500Y-148500000D03*
%TD*%
D20*
%TO.P,Q1,1,G*%
%TO.N,/SOLAR_P*%
X109000000Y-149725000D03*
%TO.P,Q1,2,S*%
%TO.N,GNDD*%
X109000000Y-151625000D03*
%TO.P,Q1,3,D*%
%TO.N,Net-(Q1-D)*%
X110875000Y-150675000D03*
%TD*%
D18*
%TO.P,D2,1,K*%
%TO.N,/BAT_P*%
X113500000Y-137430000D03*
%TO.P,D2,2,A*%
%TO.N,/SOLAR_P*%
X109500000Y-137430000D03*
%TD*%
D21*
%TO.P,C3,1*%
%TO.N,/OUT_P*%
X128675000Y-152030000D03*
%TO.P,C3,2*%
%TO.N,Net-(U1-FB)*%
X130575000Y-152030000D03*
%TD*%
D22*
%TO.P,C2,1*%
%TO.N,/OUT_P*%
X126175000Y-152200000D03*
%TO.P,C2,2*%
%TO.N,GNDD*%
X123225000Y-152200000D03*
%TD*%
D15*
%TO.P,J4,1,Pin_1*%
%TO.N,/SOLAR_P*%
X105000000Y-142000000D03*
D16*
%TO.P,J4,2,Pin_2*%
%TO.N,GNDD*%
X105000000Y-139460000D03*
%TD*%
D23*
%TO.N,GNDD*%
X118675000Y-150000000D03*
X122518015Y-150618015D03*
X124500000Y-145500000D03*
%TO.N,Net-(J3-Pin_1)*%
X121500000Y-146500000D03*
X126500000Y-146500000D03*
%TD*%
D24*
%TO.N,GNDD*%
X123225000Y-150775000D02*
X123225000Y-152200000D01*
X123068015Y-150618015D02*
X123225000Y-150775000D01*
X122518015Y-150618015D02*
X123068015Y-150618015D01*
X135500000Y-147000000D02*
X135500000Y-146225000D01*
X129526000Y-149526000D02*
X131060160Y-149526000D01*
X133000000Y-149500000D02*
X135500000Y-147000000D01*
X128675000Y-148675000D02*
X129526000Y-149526000D01*
X128675000Y-148500000D02*
X128675000Y-148675000D01*
X131060160Y-149526000D02*
X131086160Y-149500000D01*
X131086160Y-149500000D02*
X133000000Y-149500000D01*
D25*
%TO.N,/SOLAR_P*%
X105000000Y-141930000D02*
X109500000Y-137430000D01*
X105000000Y-142000000D02*
X105000000Y-141930000D01*
D24*
%TO.N,GNDD*%
X118675000Y-150000000D02*
X118675000Y-150175000D01*
%TO.N,Net-(U1-FB)*%
X120500000Y-148500000D02*
X123787500Y-148500000D01*
%TO.N,GNDD*%
X117225000Y-151625000D02*
X118675000Y-150175000D01*
X109000000Y-151625000D02*
X117225000Y-151625000D01*
X123500000Y-144500000D02*
X124500000Y-145500000D01*
X123224902Y-144500000D02*
X123500000Y-144500000D01*
D25*
%TO.N,/OUT_P*%
X133765000Y-150500000D02*
X130205000Y-150500000D01*
X130205000Y-150500000D02*
X128675000Y-152030000D01*
X135500000Y-148765000D02*
X133765000Y-150500000D01*
D24*
%TO.N,GNDD*%
X118675000Y-150175000D02*
X120500000Y-152000000D01*
X118675000Y-148500000D02*
X118675000Y-150000000D01*
%TO.N,Net-(J3-Pin_1)*%
X121500000Y-146500000D02*
X120500000Y-145500000D01*
X120500000Y-145500000D02*
X120500000Y-144500000D01*
X127500000Y-146500000D02*
X126500000Y-146500000D01*
X129500000Y-144500000D02*
X127500000Y-146500000D01*
X129500000Y-143155000D02*
X129500000Y-144500000D01*
X130575000Y-144230000D02*
X129500000Y-143155000D01*
X130575000Y-148500000D02*
X130575000Y-144230000D01*
%TO.N,Net-(U1-FB)*%
X121500000Y-152399000D02*
X121500000Y-150787500D01*
X124500000Y-155399000D02*
X121500000Y-152399000D01*
X127206000Y-155399000D02*
X124500000Y-155399000D01*
X130575000Y-152030000D02*
X127206000Y-155399000D01*
X121500000Y-150787500D02*
X123787500Y-148500000D01*
D25*
%TO.N,/OUT_P*%
X126175000Y-152200000D02*
X126175000Y-151675000D01*
X126175000Y-151675000D02*
X125612500Y-151112500D01*
X125612500Y-151112500D02*
X125612500Y-148500000D01*
X128505000Y-152200000D02*
X128675000Y-152030000D01*
X126175000Y-152200000D02*
X128505000Y-152200000D01*
D24*
%TO.N,Net-(D1-A)*%
X126996000Y-134601000D02*
X121829000Y-134601000D01*
X129500000Y-137105000D02*
X126996000Y-134601000D01*
X121829000Y-134601000D02*
X119000000Y-137430000D01*
D25*
%TO.N,/OUT_P*%
X125612500Y-140042500D02*
X125612500Y-148500000D01*
X123000000Y-137430000D02*
X125612500Y-140042500D01*
D24*
%TO.N,Net-(D1-A)*%
X119523653Y-137430000D02*
X119000000Y-137430000D01*
X124113651Y-143448999D02*
X124113651Y-142019998D01*
X124113651Y-142019998D02*
X119523653Y-137430000D01*
X124012651Y-143549999D02*
X124113651Y-143448999D01*
X123224902Y-143549999D02*
X124012651Y-143549999D01*
%TO.N,Net-(U1-FB)*%
X122437153Y-142599998D02*
X123224902Y-142599998D01*
X122336153Y-142700998D02*
X122437153Y-142599998D01*
X122336153Y-146663847D02*
X122336153Y-142700998D01*
X120500000Y-148500000D02*
X122336153Y-146663847D01*
%TO.N,Net-(J3-Pin_1)*%
X117500000Y-144500000D02*
X117000000Y-144000000D01*
X120500000Y-144500000D02*
X117500000Y-144500000D01*
%TO.N,Net-(Q1-D)*%
X116513842Y-142599998D02*
X120500000Y-142599998D01*
X114500000Y-144613840D02*
X116513842Y-142599998D01*
X114500000Y-148500000D02*
X114500000Y-144613840D01*
%TO.N,Net-(J3-Pin_1)*%
X116325000Y-144675000D02*
X117000000Y-144000000D01*
X116325000Y-148500000D02*
X116325000Y-144675000D01*
D25*
%TO.N,/SOLAR_P*%
X107378000Y-152301000D02*
X106901000Y-151824000D01*
X118675000Y-152000000D02*
X118374000Y-152301000D01*
X118374000Y-152301000D02*
X107378000Y-152301000D01*
X102500000Y-150824000D02*
X102500000Y-144500000D01*
X103500000Y-151824000D02*
X102500000Y-150824000D01*
X106901000Y-151824000D02*
X103500000Y-151824000D01*
X102500000Y-144500000D02*
X105000000Y-142000000D01*
X109000000Y-149725000D02*
X106901000Y-151824000D01*
D24*
%TO.N,Net-(Q1-D)*%
X112325000Y-150675000D02*
X114500000Y-148500000D01*
X110875000Y-150675000D02*
X112325000Y-150675000D01*
D25*
%TO.N,/BAT_P*%
X109380000Y-146170000D02*
X109380000Y-144000000D01*
X105335000Y-150215000D02*
X109380000Y-146170000D01*
X109380000Y-141550000D02*
X113500000Y-137430000D01*
X109380000Y-144000000D02*
X109380000Y-141550000D01*
%TD*%
M02*
